<?xml version="1.0" encoding="utf-8"?>
<svg version="1.1" xmlns:xlink="http://www.w3.org/1999/xlink" width="99px" height="32px" viewBox="102 112  99 32" xmlns="http://www.w3.org/2000/svg">
  <path d="M 103 114  A 1 1 0 0 1 104 113 L 199 113  A 1 1 0 0 1 200 114 L 200 142  A 1 1 0 0 1 199 143 L 104 143  A 1 1 0 0 1 103 142 L 103 114  Z " fill-rule="nonzero" fill="#ffffff" stroke="none" />
  <path d="M 102.5 114  A 1.5 1.5 0 0 1 104 112.5 L 199 112.5  A 1.5 1.5 0 0 1 200.5 114 L 200.5 142  A 1.5 1.5 0 0 1 199 143.5 L 104 143.5  A 1.5 1.5 0 0 1 102.5 142 L 102.5 114  Z " stroke-width="1" stroke="#000000" fill="none" stroke-opacity="0.149019607843137" />
</svg>