<?xml version="1.0" encoding="utf-8"?>
<svg version="1.1" xmlns:xlink="http://www.w3.org/1999/xlink" width="64px" height="32px" viewBox="217 112  64 32" xmlns="http://www.w3.org/2000/svg">
  <path d="M 218 114  A 1 1 0 0 1 219 113 L 279 113  A 1 1 0 0 1 280 114 L 280 142  A 1 1 0 0 1 279 143 L 219 143  A 1 1 0 0 1 218 142 L 218 114  Z " fill-rule="nonzero" fill="#ffffff" stroke="none" />
  <path d="M 217.5 114  A 1.5 1.5 0 0 1 219 112.5 L 279 112.5  A 1.5 1.5 0 0 1 280.5 114 L 280.5 142  A 1.5 1.5 0 0 1 279 143.5 L 219 143.5  A 1.5 1.5 0 0 1 217.5 142 L 217.5 114  Z " stroke-width="1" stroke="#000000" fill="none" stroke-opacity="0.149019607843137" />
</svg>