<?xml version="1.0" encoding="utf-8"?>
<svg version="1.1" xmlns:xlink="http://www.w3.org/1999/xlink" width="264px" height="32px" viewBox="297 112  264 32" xmlns="http://www.w3.org/2000/svg">
  <path d="M 298 114  A 1 1 0 0 1 299 113 L 559 113  A 1 1 0 0 1 560 114 L 560 142  A 1 1 0 0 1 559 143 L 299 143  A 1 1 0 0 1 298 142 L 298 114  Z " fill-rule="nonzero" fill="#ffffff" stroke="none" />
  <path d="M 297.5 114  A 1.5 1.5 0 0 1 299 112.5 L 559 112.5  A 1.5 1.5 0 0 1 560.5 114 L 560.5 142  A 1.5 1.5 0 0 1 559 143.5 L 299 143.5  A 1.5 1.5 0 0 1 297.5 142 L 297.5 114  Z " stroke-width="1" stroke="#000000" fill="none" stroke-opacity="0.149019607843137" />
</svg>