<?xml version="1.0" encoding="utf-8"?>
<svg version="1.1" xmlns:xlink="http://www.w3.org/1999/xlink" width="14px" height="16px" xmlns="http://www.w3.org/2000/svg">
  <g transform="matrix(1 0 0 1 -577 -120 )">
    <path d="M 5.00142045454545 6.09375  C 5.06107954545455 6.15625  5.09090909090909 6.23611111111111  5.09090909090909 6.33333333333333  L 5.09090909090909 12.3333333333333  C 5.09090909090909 12.4305555555556  5.06107954545455 12.5104166666667  5.00142045454545 12.5729166666667  C 4.94176136363636 12.6354166666667  4.8655303030303 12.6666666666667  4.77272727272727 12.6666666666667  L 4.13636363636364 12.6666666666667  C 4.04356060606061 12.6666666666667  3.96732954545455 12.6354166666667  3.90767045454545 12.5729166666667  C 3.84801136363636 12.5104166666667  3.81818181818182 12.4305555555556  3.81818181818182 12.3333333333333  L 3.81818181818182 6.33333333333333  C 3.81818181818182 6.23611111111111  3.84801136363636 6.15625  3.90767045454545 6.09375  C 3.96732954545455 6.03125  4.04356060606061 6  4.13636363636364 6  L 4.77272727272727 6  C 4.8655303030303 6  4.94176136363636 6.03125  5.00142045454545 6.09375  Z M 7.546875 6.09375  C 7.60653409090909 6.15625  7.63636363636364 6.23611111111111  7.63636363636364 6.33333333333333  L 7.63636363636364 12.3333333333333  C 7.63636363636364 12.4305555555556  7.60653409090909 12.5104166666667  7.546875 12.5729166666667  C 7.48721590909091 12.6354166666667  7.41098484848485 12.6666666666667  7.31818181818182 12.6666666666667  L 6.68181818181818 12.6666666666667  C 6.58901515151515 12.6666666666667  6.51278409090909 12.6354166666667  6.453125 12.5729166666667  C 6.39346590909091 12.5104166666667  6.36363636363636 12.4305555555556  6.36363636363636 12.3333333333333  L 6.36363636363636 6.33333333333333  C 6.36363636363636 6.23611111111111  6.39346590909091 6.15625  6.453125 6.09375  C 6.51278409090909 6.03125  6.58901515151515 6  6.68181818181818 6  L 7.31818181818182 6  C 7.41098484848485 6  7.48721590909091 6.03125  7.546875 6.09375  Z M 10.0923295454545 6.09375  C 10.1519886363636 6.15625  10.1818181818182 6.23611111111111  10.1818181818182 6.33333333333333  L 10.1818181818182 12.3333333333333  C 10.1818181818182 12.4305555555556  10.1519886363636 12.5104166666667  10.0923295454545 12.5729166666667  C 10.0326704545455 12.6354166666667  9.95643939393939 12.6666666666667  9.86363636363636 12.6666666666667  L 9.22727272727273 12.6666666666667  C 9.1344696969697 12.6666666666667  9.05823863636364 12.6354166666667  8.99857954545455 12.5729166666667  C 8.93892045454546 12.5104166666667  8.90909090909091 12.4305555555556  8.90909090909091 12.3333333333333  L 8.90909090909091 6.33333333333333  C 8.90909090909091 6.23611111111111  8.93892045454546 6.15625  8.99857954545455 6.09375  C 9.05823863636364 6.03125  9.1344696969697 6  9.22727272727273 6  L 9.86363636363636 6  C 9.95643939393939 6  10.0326704545455 6.03125  10.0923295454545 6.09375  Z M 11.3849431818182 14.296875  C 11.4313446969697 14.1684027777778  11.4545454545455 14.0277777777778  11.4545454545455 13.875  L 11.4545454545455 4  L 2.54545454545455 4  L 2.54545454545455 13.875  C 2.54545454545455 14.0277777777778  2.5686553030303 14.1684027777778  2.61505681818182 14.296875  C 2.66145833333333 14.4253472222222  2.70951704545455 14.5190972222222  2.75923295454545 14.578125  C 2.80894886363636 14.6371527777778  2.84375 14.6666666666667  2.86363636363636 14.6666666666667  L 11.1363636363636 14.6666666666667  C 11.15625 14.6666666666667  11.1910511363636 14.6371527777778  11.2407670454545 14.578125  C 11.2904829545455 14.5190972222222  11.3385416666667 14.4253472222222  11.3849431818182 14.296875  Z M 5.25994318181818 1.44791666666667  L 4.77272727272727 2.66666666666667  L 9.22727272727273 2.66666666666667  L 8.75 1.44791666666667  C 8.70359848484849 1.38541666666667  8.64725378787879 1.34722222222222  8.58096590909091 1.33333333333333  L 5.42897727272727 1.33333333333333  C 5.36268939393939 1.34722222222222  5.3063446969697 1.38541666666667  5.25994318181818 1.44791666666667  Z M 13.9105113636364 2.76041666666667  C 13.9701704545455 2.82291666666667  14 2.90277777777778  14 3  L 14 3.66666666666667  C 14 3.76388888888889  13.9701704545455 3.84375  13.9105113636364 3.90625  C 13.8508522727273 3.96875  13.7746212121212 4  13.6818181818182 4  L 12.7272727272727 4  L 12.7272727272727 13.875  C 12.7272727272727 14.4513888888889  12.5714962121212 14.9496527777778  12.2599431818182 15.3697916666667  C 11.9483901515152 15.7899305555556  11.5738636363636 16  11.1363636363636 16  L 2.86363636363636 16  C 2.42613636363636 16  2.05160984848485 15.796875  1.74005681818182 15.390625  C 1.42850378787879 14.984375  1.27272727272727 14.4930555555556  1.27272727272727 13.9166666666667  L 1.27272727272727 4  L 0.318181818181818 4  C 0.225378787878788 4  0.149147727272727 3.96875  0.0894886363636364 3.90625  C 0.0298295454545455 3.84375  0 3.76388888888889  0 3.66666666666667  L 0 3  C 0 2.90277777777778  0.0298295454545455 2.82291666666667  0.0894886363636364 2.76041666666667  C 0.149147727272727 2.69791666666667  0.225378787878788 2.66666666666667  0.318181818181818 2.66666666666667  L 3.390625 2.66666666666667  L 4.08664772727273 0.927083333333334  C 4.18607954545455 0.670138888888888  4.36505681818182 0.451388888888888  4.62357954545455 0.270833333333334  C 4.88210227272727 0.0902777777777768  5.14393939393939 0  5.40909090909091 0  L 8.59090909090909 0  C 8.85606060606061 0  9.11789772727273 0.0902777777777768  9.37642045454546 0.270833333333334  C 9.63494318181818 0.451388888888888  9.81392045454546 0.670138888888888  9.91335227272727 0.927083333333334  L 10.609375 2.66666666666667  L 13.6818181818182 2.66666666666667  C 13.7746212121212 2.66666666666667  13.8508522727273 2.69791666666667  13.9105113636364 2.76041666666667  Z " fill-rule="nonzero" fill="#000000" stroke="none" fill-opacity="0.149019607843137" transform="matrix(1 0 0 1 577 120 )" />
  </g>
</svg>