<?xml version="1.0" encoding="utf-8"?>
<svg version="1.1" xmlns:xlink="http://www.w3.org/1999/xlink" width="28px" height="28px" xmlns="http://www.w3.org/2000/svg">
  <g transform="matrix(1 0 0 1 -15 -247 )">
    <path d="M 0.410156281246155 27.5898430366672  C 0.410156281246155 27.5898430366672  0.410156281246155 27.1523444253852  0.410156281246155 27.1523444253852  C 0.410156281246155 27.1523444253852  0.410156281246155 26.6601563174174  0.410156281246155 26.6601563174174  C 0.410156281246155 26.6601563174174  0.847656277370663 26.6601563174174  0.847656277370663 26.6601563174174  C 0.847656277370663 26.6601563174174  1.33984372392117 26.6601563174174  1.33984372392117 26.6601563174174  C 1.33984372392117 26.6601563174174  1.33984372392117 27.1523444253852  1.33984372392117 27.1523444253852  C 1.33984372392117 27.1523444253852  1.33984372392117 27.5898430366672  1.33984372392117 27.5898430366672  C 1.33984372392117 27.5898430366672  0.847656277370663 27.5898430366672  0.847656277370663 27.5898430366672  C 0.847656277370663 27.5898430366672  0.410156281246155 27.5898430366672  0.410156281246155 27.5898430366672  Z M 2.16015636909064 27.1523444253852  C 2.16015636909064 27.1523444253852  2.16015636909064 26.7148437471741  2.16015636909064 26.7148437471741  C 2.16015636909064 26.7148437471741  4.78515630449911 26.7148437471741  4.78515630449911 26.7148437471741  C 4.78515630449911 26.7148437471741  7.41015623990757 26.7148437471741  7.41015623990757 26.7148437471741  C 7.41015623990757 26.7148437471741  7.40937080685603 25.2792974242299  7.40937080685603 25.2792974242299  C 7.40937080685603 25.2792974242299  7.40858537380449 23.8437490343566  7.40858537380449 23.8437490343566  C 7.40858537380449 23.8437490343566  6.85268707055396 23.4335938279135  6.85268707055396 23.4335938279135  C 6.12109855509108 22.8938194317466  5.13788312652847 21.9104489835027  4.5676597645753 21.1482234117071  C 4.24299605209163 20.7142406467953  4.07598218809099 20.53500027719  3.99591700305322 20.5346218224749  C 3.8063537695287 20.533726635489  3.34818855442449 20.2885871927021  3.12324156192811 20.0677010957751  C 3.0062589565389 19.9528300651371  2.84738238564512 19.7218546672772  2.77018279108802 19.5544222501372  C 2.64890717399343 19.2913972566093  2.62564781432953 19.1496036478936  2.59914027561171 18.5117187423298  C 2.56475980401674 17.6843772567821  2.51312006119291 17.5388024080019  2.17147032550516 17.306093890106  C 1.55009020004699 16.8828521288668  0.925806576628775 16.1095089589196  0.681651839526284 15.4605531678013  C 0.261520868564939 14.3438585594523  0.359934947836246 13.0035019684178  0.941960061467518 12.0052318551862  C 1.2163931600297 11.5345334022014  1.87769912111961 10.8716332807177  2.35156247658557 10.5922315946793  C 2.35156247658557 10.5922315946793  2.73437510496124 10.3665154978712  2.73437510496124 10.3665154978712  C 2.73437510496124 10.3665154978712  2.88745145946232 9.9207576446664  2.88745145946232 9.9207576446664  C 3.91476564678234 6.92922070056051  6.43703114574234 4.3026455584979  9.48179688775106 3.0536993195448  C 9.82863275520097 2.91142907698255  10.0562126019633 2.78815039891362  10.0468878580982 2.7475927030612  C 10.0383018346875 2.71024494807468  9.97971245620786 2.54960383982274  9.91669158177432 2.39061276105776  C 9.85367029395496 2.23162168229277  9.81695253895294 2.08669295554397  9.83509686921514 2.06854903866759  C 9.8532403727057 2.05040553517703  10.2140046551672 2.10393961850542  10.6367937589372 2.18751486251194  C 11.4902719761252 2.35622691544717  11.8413570363839 2.35162882500913  12.3316878018778 2.1653176977038  C 12.7687110194707 1.99926210336461  13.1446455279369 1.67451428753656  13.5625000452141 1.10209030752731  C 13.7730469494821 0.813659696514279  13.9576173091137 0.577671044840771  13.9726562851216 0.577671044840771  C 13.9876952611295 0.577671044840771  14.2269530505179 0.813659696514279  14.4374999547859 1.10209030752731  C 14.8553544720631 1.67451428753656  15.2312889805293 1.99926210336461  15.6683121981222 2.1653176977038  C 16.1514822945009 2.34890791956427  16.4903691660834 2.35334747654165  17.3538316842069 2.18739849440456  C 17.7828376972727 2.10494786651211  18.1482536036355 2.05189951151822  18.1658673532021 2.06951326108481  C 18.1834817228474 2.08712763073013  18.1463307395096 2.23162168229277  18.0833084182257 2.39061276105776  C 18.0202875437921 2.54960383982274  17.9616991987771 2.71116638505988  17.9531121419018 2.74964082308955  C 17.9434823193041 2.79279272163404  18.1789415064237 2.9200640866126  18.5676847744172 3.08183063775023  C 21.5530252718252 4.3241095835603  23.9710594642948 6.85152628318095  25.1058965426699 9.91580362904026  C 25.1058965426699 9.91580362904026  25.3121243919261 10.4726562334484  25.3121243919261 10.4726562334484  C 25.3121243919261 10.4726562334484  26.4509837142967 10.4726562334484  26.4509837142967 10.4726562334484  C 26.4509837142967 10.4726562334484  27.5898430366672 10.4726562334484  27.5898430366672 10.4726562334484  C 27.5898430366672 10.4726562334484  27.5898430366672 14.4648437730107  27.5898430366672 14.4648437730107  C 27.5898430366672 14.4648437730107  27.5898430366672 18.4023436761234  27.5898430366672 18.4023436761234  C 27.5898430366672 18.4023436761234  26.7148437471741 18.4023436761234  26.7148437471741 18.4023436761234  C 26.7148437471741 18.4023436761234  25.839844457681 18.4023436761234  25.839844457681 18.4023436761234  C 25.839844457681 18.4023436761234  25.839844457681 18.8398437342558  25.839844457681 18.8398437342558  C 25.839844457681 18.8398437342558  25.839844457681 19.2773437923882  25.839844457681 19.2773437923882  C 25.839844457681 19.2773437923882  26.277343068963 19.2773437923882  26.277343068963 19.2773437923882  C 26.277343068963 19.2773437923882  26.7148437471741 19.2773437923882  26.7148437471741 19.2773437923882  C 26.7148437471741 19.2773437923882  26.7148437471741 19.7148436438277  26.7148437471741 19.7148436438277  C 26.7148437471741 19.7148436438277  26.7148437471741 20.15234370196  26.7148437471741 20.15234370196  C 26.7148437471741 20.15234370196  25.4160165153539 20.1524530425085  25.4160165153539 20.1524530425085  C 25.4160165153539 20.1524530425085  24.1171872166046 20.152562383057  24.1171872166046 20.152562383057  C 24.1171872166046 20.152562383057  23.9538853505442 20.4122302703684  23.9538853505442 20.4122302703684  C 23.0815420649227 21.7993412106461  21.6482383600335 23.1987555462905  20.1824966835016 24.0944427289753  C 20.1824966835016 24.0944427289753  19.7148436438277 24.3802184109198  19.7148436438277 24.3802184109198  C 19.7148436438277 24.3802184109198  19.7148436438277 25.5475414136924  19.7148436438277 25.5475414136924  C 19.7148436438277 25.5475414136924  19.7148436438277 26.714866483394  19.7148436438277 26.714866483394  C 19.7148436438277 26.714866483394  22.7773438440614 26.714866483394  22.7773438440614 26.714866483394  C 22.7773438440614 26.714866483394  25.839844457681 26.714866483394  25.839844457681 26.714866483394  C 25.839844457681 26.714866483394  25.839844457681 27.1523671616051  25.839844457681 27.1523671616051  C 25.839844457681 27.1523671616051  25.839844457681 27.5898657728872  25.839844457681 27.5898657728872  C 25.839844457681 27.5898657728872  13.9726562851216 27.5898657728872  13.9726562851216 27.5898657728872  C 13.9726562851216 27.5898657728872  2.16015636909064 27.5898657728872  2.16015636909064 27.5898657728872  C 2.16015636909064 27.5898657728872  2.16015636909064 27.1523671616051  2.16015636909064 27.1523671616051  Z M 11.8398436309094 26.7148437471741  C 11.8398436309094 26.7148437471741  11.8398436309094 24.1381562121517  11.8398436309094 24.1381562121517  C 11.8398436309094 24.1381562121517  11.8398436309094 21.5067812473725  11.8398436309094 21.5067812473725  C 11.8398436309094 21.5067812473725  11.7167968622835 21.5303339042733  11.7167968622835 21.5303339042733  C 11.6491210568622 21.5432935496237  10.8069336464829 21.6994355733407  9.91210940669022 21.8773299587271  C 9.91210940669022 21.8773299587271  8.28515635617233 22.2007733562802  8.28515635617233 22.2007733562802  C 8.28515635617233 22.2007733562802  8.28515635617233 24.4851522666055  8.28515635617233 24.4851522666055  C 8.28515635617233 24.4851522666055  8.28515635617233 26.7148437471741  8.28515635617233 26.7148437471741  C 8.28515635617233 26.7148437471741  10.0898438117657 26.7148437471741  10.0898438117657 26.7148437471741  C 10.0898438117657 26.7148437471741  11.8398436309094 26.7148437471741  11.8398436309094 26.7148437471741  Z M 9.16015626574419 25.839844457681  C 9.16015626574419 25.839844457681  9.16015626574419 25.3476563497132  9.16015626574419 25.3476563497132  C 9.16015626574419 25.3476563497132  9.16015626574419 24.9101556715021  9.16015626574419 24.9101556715021  C 9.16015626574419 24.9101556715021  10.0898438117657 24.9101556715021  10.0898438117657 24.9101556715021  C 10.0898438117657 24.9101556715021  10.9648437213375 24.9101556715021  10.9648437213375 24.9101556715021  C 10.9648437213375 24.9101556715021  10.9648437213375 25.4023437794699  10.9648437213375 25.4023437794699  C 10.9648437213375 25.4023437794699  10.9648437213375 25.839844457681  10.9648437213375 25.839844457681  C 10.9648437213375 25.839844457681  10.0898438117657 25.839844457681  10.0898438117657 25.839844457681  C 10.0898438117657 25.839844457681  9.16015626574419 25.839844457681  9.16015626574419 25.839844457681  Z M 9.16015626574419 24.0898438117657  C 9.16015626574419 24.0898438117657  9.16015626574419 23.5976557037978  9.16015626574419 23.5976557037978  C 9.16015626574419 23.5976557037978  9.16015626574419 23.1601570925158  9.16015626574419 23.1601570925158  C 9.16015626574419 23.1601570925158  10.0898438117657 23.1601570925158  10.0898438117657 23.1601570925158  C 10.0898438117657 23.1601570925158  10.9648437213375 23.1601570925158  10.9648437213375 23.1601570925158  C 10.9648437213375 23.1601570925158  10.9648437213375 23.5976557037978  10.9648437213375 23.5976557037978  C 10.9648437213375 23.5976557037978  10.9648437213375 24.0898438117657  10.9648437213375 24.0898438117657  C 10.9648437213375 24.0898438117657  10.0898438117657 24.0898438117657  10.0898438117657 24.0898438117657  C 10.0898438117657 24.0898438117657  9.16015626574419 24.0898438117657  9.16015626574419 24.0898438117657  Z M 14.4648437730107 26.7148437471741  C 14.4648437730107 26.7148437471741  14.4648437730107 24.0428211751274  14.4648437730107 24.0428211751274  C 14.4648437730107 24.0428211751274  14.4648437730107 21.316111173324  14.4648437730107 21.316111173324  C 14.4648437730107 21.316111173324  15.3398436825826 21.4921866611175  15.3398436825826 21.4921866611175  C 15.3398436825826 21.4921866611175  16.2148437988473 21.66826421584  16.2148437988473 21.66826421584  C 16.2148437988473 21.66826421584  16.2148437988473 20.6642100082626  16.2148437988473 20.6642100082626  C 16.2148437988473 20.6642100082626  16.2148437988473 19.660156214071  16.2148437988473 19.660156214071  C 16.2148437988473 19.660156214071  14.0273437148784 19.660156214071  14.0273437148784 19.660156214071  C 14.0273437148784 19.660156214071  11.7851562011527 19.660156214071  11.7851562011527 19.660156214071  C 11.7851562011527 19.660156214071  11.7851562011527 20.1250000904281  11.7851562011527 20.1250000904281  C 11.7851562011527 20.6557934730366  11.7546477078089 20.6336124302753  12.318359416379 20.5126704155347  C 12.318359416379 20.5126704155347  12.6601563174174 20.4393394921422  12.6601563174174 20.4393394921422  C 12.6601563174174 20.4393394921422  12.6601563174174 23.6044358512688  12.6601563174174 23.6044358512688  C 12.6601563174174 23.6044358512688  12.6601563174174 26.7148437471741  12.6601563174174 26.7148437471741  C 12.6601563174174 26.7148437471741  13.5351562269893 26.7148437471741  13.5351562269893 26.7148437471741  C 13.5351562269893 26.7148437471741  14.4648437730107 26.7148437471741  14.4648437730107 26.7148437471741  Z M 18.8398437342558 26.7148437471741  C 18.8398437342558 26.7148437471741  18.8398437342558 24.9226508778875  18.8398437342558 24.9226508778875  C 18.8398437342558 24.9226508778875  18.8398437342558 23.0757726457733  18.8398437342558 23.0757726457733  C 18.8398437342558 23.0757726457733  17.2128906837379 22.7523292482202  17.2128906837379 22.7523292482202  C 16.3180664439452 22.5744369297629  15.475879033566 22.4182887052586  15.4082032281446 22.4053331937664  C 15.4082032281446 22.4053331937664  15.2851562528259 22.3817805368656  15.2851562528259 22.3817805368656  C 15.2851562528259 22.3817805368656  15.2851562528259 24.520967393677  15.2851562528259 24.520967393677  C 15.2851562528259 24.520967393677  15.2851562528259 26.7148437471741  15.2851562528259 26.7148437471741  C 15.2851562528259 26.7148437471741  17.0898437084192 26.7148437471741  17.0898437084192 26.7148437471741  C 17.0898437084192 26.7148437471741  18.8398437342558 26.7148437471741  18.8398437342558 26.7148437471741  Z M 16.1601563690906 25.839844457681  C 16.1601563690906 25.839844457681  16.1601563690906 25.3476563497132  16.1601563690906 25.3476563497132  C 16.1601563690906 25.3476563497132  16.1601563690906 24.9101556715021  16.1601563690906 24.9101556715021  C 16.1601563690906 24.9101556715021  17.0898437084192 24.9101556715021  17.0898437084192 24.9101556715021  C 17.0898437084192 24.9101556715021  17.9648436179911 24.9101556715021  17.9648436179911 24.9101556715021  C 17.9648436179911 24.9101556715021  17.9648436179911 25.4023437794699  17.9648436179911 25.4023437794699  C 17.9648436179911 25.4023437794699  17.9648436179911 25.839844457681  17.9648436179911 25.839844457681  C 17.9648436179911 25.839844457681  17.0898437084192 25.839844457681  17.0898437084192 25.839844457681  C 17.0898437084192 25.839844457681  16.1601563690906 25.839844457681  16.1601563690906 25.839844457681  Z M 20.0566405448661 23.1527849765555  C 20.2446287784294 23.0261773025055  20.5460936922713 22.8105821306451  20.726561611059 22.6736832166909  C 21.2543354169701 22.2733335218176  22.1024439590934 21.4276474205795  22.5945032973793 20.811082475121  C 22.8454574250626 20.4966293923073  23.0507820263095 20.2197739562064  23.0507820263095 20.1958469784486  C 23.0507820263095 20.1719202073839  22.3001953321802 20.15234370196  21.3828115949111 20.15234370196  C 21.3828115949111 20.15234370196  19.7148436438277 20.15234370196  19.7148436438277 20.15234370196  C 19.7148436438277 20.15234370196  19.7148436438277 19.7148436438277  19.7148436438277 19.7148436438277  C 19.7148436438277 19.7148436438277  19.7148436438277 19.2773437923882  19.7148436438277 19.2773437923882  C 19.7148436438277 19.2773437923882  20.15234370196 19.2773437923882  20.15234370196 19.2773437923882  C 20.15234370196 19.2773437923882  20.5898437600924 19.2773437923882  20.5898437600924 19.2773437923882  C 20.5898437600924 19.2773437923882  20.5898437600924 18.8398437342558  20.5898437600924 18.8398437342558  C 20.5898437600924 18.8398437342558  20.5898437600924 18.4023436761234  20.5898437600924 18.4023436761234  C 20.5898437600924 18.4023436761234  19.7148436438277 18.4023436761234  19.7148436438277 18.4023436761234  C 19.7148436438277 18.4023436761234  18.8398437342558 18.4023436761234  18.8398437342558 18.4023436761234  C 18.8398437342558 18.4023436761234  18.8398437342558 14.4648437730107  18.8398437342558 14.4648437730107  C 18.8398437342558 14.4648437730107  18.8398437342558 10.4726562334484  18.8398437342558 10.4726562334484  C 18.8398437342558 10.4726562334484  21.6015629674812 10.4726562334484  21.6015629674812 10.4726562334484  C 23.3570409754665 10.4726562334484  24.3632819940137 10.4532498362881  24.3632819940137 10.4193922977512  C 24.3632819940137 10.3248561288175  24.042337513722 9.55482335248958  23.8119720666345 9.09665048974777  C 22.7628753404804 7.01009922219244  20.9943632776978 5.23936851773207  18.9157023052239 4.19423864187404  C 18.3621144153023 3.91589997746309  17.7909636222696 3.68299468791843  17.7536034657086 3.72035505117236  C 17.7010739099145 3.77288440027351  17.8619913665849 4.41886071311858  17.9907443063301 4.6723201655433  C 18.202792834577 5.08975199582303  18.5203620196761 5.39472593516914  19.1047965525395 5.74218746205247  C 19.4083469978261 5.9226562076118  19.6567065094314 6.08261729619544  19.6567065094314 6.09765627220334  C 19.6567065094314 6.11269524821124  19.409077657257 6.272574899789  19.1064201253342 6.45294463944526  C 18.2718745651606 6.95029407602623  17.8968125074603 7.41742418264212  17.7460079147144 8.14730376113917  C 17.6571154956418 8.57753153598593  17.7052486932764 8.98722953771581  17.9098920346975 9.54225228980678  C 18.0018670718045 9.7917023131963  18.0676402690049 10.0052760284135  18.0560547181089 10.0168615793095  C 18.0444695805987 10.0284467168197  17.7177426595044 9.98612014305806  17.3299950312501 9.92280183752948  C 16.5365828066786 9.79323845489078  16.1723138392639 9.8066964368431  15.7011546677866 9.98297944431645  C 15.2556834976456 10.1496516449397  14.923220641653 10.4399623759852  14.4622344817364 11.0648196342318  C 14.2380836703228 11.3686513885666  13.9876952611296 11.6173312741798  13.9726562851217 11.6174412348071  C 13.9576173091138 11.6175505753555  13.7730469494821 11.3816527858845  13.5625000452141 11.0932221335329  C 13.1446455279369 10.520798318878  12.7687110194707 10.1960506890736  12.3316878018778 10.0299948467029  C 11.8413570363839 9.84368392609045  11.4902719761252 9.83908583565241  10.6367937589372 10.0077976818947  C 10.2140046551672 10.0913729259013  9.85344127821257 10.1451077080436  9.83554208573962 10.1272085155707  C 9.81764247988085 10.1093089097119  9.89711135587817 9.86594330546399  10.012138232969 9.58639507415366  C 10.2055269388404 9.11640619792307  10.2214776372668 9.0369360817683  10.22392054075 8.53125010011687  C 10.2263533162807 8.02784828179507  10.2128045961416 7.95533648239821  10.0535028579355 7.61908391193199  C 9.81490793270404 7.11546237904866  9.53753390409612 6.83654084063629  8.89401454985201 6.4531250823542  C 8.59111808092722 6.27265633679487  8.34329349056857 6.11269524821123  8.34329349056857 6.09765627220334  C 8.34329349056857 6.08261729619544  8.5916530021739 5.9226562076118  8.89520344746055 5.74218746205247  C 9.50313813722594 5.38075452803261  9.81638826731329 5.07289143521428  10.0174035281151 4.63928712501754  C 10.1538369696398 4.34499176808583  10.2970832161151 3.77104152630311  10.2466803236545 3.72063842714964  C 10.2079648816938 3.68192319188181  9.63826610634188 3.91609840265505  9.02678167256935 4.2220791431575  C 8.48558646935073 4.49288757153327  7.7867891637109 4.93215320048835  7.27343756216935 5.32423393887219  C 6.80938511295805 5.67866205022977  5.87191454547455 6.59792772642894  5.4808298602158 7.08203124798151  C 4.8478745805149 7.8655331676788  4.18539549248535 8.97937520720041  3.85735751827369 9.81161448790318  C 3.85735751827369 9.81161448790318  3.75365947948673 10.0746985956029  3.75365947948673 10.0746985956029  C 3.75365947948673 10.0746985956029  4.13335393864779 10.0475314998147  4.13335393864779 10.0475314998147  C 6.04407836997839 9.91081984963533  7.83878917227389 11.3212033779231  8.207711623826 13.2493873659107  C 8.49973583908131 14.775657407095  7.83189431023882 16.4181351619553  6.5244200805999 17.306093890106  C 6.18226394728682 17.5384661186401  6.13056839737775 17.6840014890748  6.09617201042884 18.5117187423297  C 6.06961858588537 19.1507175159764  6.04663557463988 19.2904485361602  5.92526818589399 19.5507811478646  C 5.80654109235874 19.8054493404171  5.3781043115624 20.3145314932448  5.28022323129372 20.3172435108946  C 5.26360098760825 20.317677566002  5.21480285888773 20.3403548784361  5.17178386388327 20.3675784013883  C 5.10855402291944 20.4075920815061  5.13954039026722 20.4781593140217  5.33350845636052 20.7358813942943  C 5.65725073185899 21.1660341396153  6.50992181324012 22.0402707322768  7.00568426167116 22.4503515292728  C 7.00568426167116 22.4503515292728  7.41015623990758 22.7849191391506  7.41015623990758 22.7849191391506  C 7.41015623990758 22.7849191391506  7.41015623990758 22.1648135441729  7.41015623990758 22.1648135441729  C 7.41015623990758 22.1648135441729  7.41015623990758 21.5447058822661  7.41015623990758 21.5447058822661  C 7.41015623990758 21.5447058822661  9.16015626574419 21.1965151428023  9.16015626574419 21.1965151428023  C 9.16015626574419 21.1965151428023  10.9101562915808 20.8483244033385  10.9101562915808 20.8483244033385  C 10.9101562915808 20.8483244033385  10.9101562915808 19.8440839654507  10.9101562915808 19.8440839654507  C 10.9101562915808 19.8440839654507  10.9101562915808 18.8398437342558  10.9101562915808 18.8398437342558  C 10.9101562915808 18.8398437342558  11.3476563497132 18.8398437342558  11.3476563497132 18.8398437342558  C 11.3476563497132 18.8398437342558  11.7851562011527 18.8398437342558  11.7851562011527 18.8398437342558  C 11.7851562011527 18.8398437342558  11.7851562011527 18.4023436761234  11.7851562011527 18.4023436761234  C 11.7851562011527 18.4023436761234  11.7851562011527 17.9648436179911  11.7851562011527 17.9648436179911  C 11.7851562011527 17.9648436179911  12.222656259285 17.9648436179911  12.222656259285 17.9648436179911  C 12.222656259285 17.9648436179911  12.6601563174174 17.9648436179911  12.6601563174174 17.9648436179911  C 12.6601563174174 17.9648436179911  12.6601563174174 18.4023436761234  12.6601563174174 18.4023436761234  C 12.6601563174174 18.4023436761234  12.6601563174174 18.8398437342558  12.6601563174174 18.8398437342558  C 12.6601563174174 18.8398437342558  13.0976563755498 18.8398437342558  13.0976563755498 18.8398437342558  C 13.0976563755498 18.8398437342558  13.5351562269893 18.8398437342558  13.5351562269893 18.8398437342558  C 13.5351562269893 18.8398437342558  13.5351562269893 17.9648436179911  13.5351562269893 17.9648436179911  C 13.5351562269893 17.9648436179911  13.5351562269893 17.0898437084192  13.5351562269893 17.0898437084192  C 13.5351562269893 17.0898437084192  13.9726562851217 17.0898437084192  13.9726562851217 17.0898437084192  C 13.9726562851217 17.0898437084192  14.4648437730107 17.0898437084192  14.4648437730107 17.0898437084192  C 14.4648437730107 17.0898437084192  14.4648437730107 17.9648436179911  14.4648437730107 17.9648436179911  C 14.4648437730107 17.9648436179911  14.4648437730107 18.8398437342558  14.4648437730107 18.8398437342558  C 14.4648437730107 18.8398437342558  14.9023436244502 18.8398437342558  14.9023436244502 18.8398437342558  C 14.9023436244502 18.8398437342558  15.3398436825826 18.8398437342558  15.3398436825826 18.8398437342558  C 15.3398436825826 18.8398437342558  15.3398436825826 18.4023436761234  15.3398436825826 18.4023436761234  C 15.3398436825826 18.4023436761234  15.3398436825826 17.9648436179911  15.3398436825826 17.9648436179911  C 15.3398436825826 17.9648436179911  15.777343740715 17.9648436179911  15.777343740715 17.9648436179911  C 15.777343740715 17.9648436179911  16.2148437988474 17.9648436179911  16.2148437988474 17.9648436179911  C 16.2148437988474 17.9648436179911  16.2148437988474 18.4023436761234  16.2148437988474 18.4023436761234  C 16.2148437988474 18.4023436761234  16.2148437988474 18.8398437342558  16.2148437988474 18.8398437342558  C 16.2148437988474 18.8398437342558  16.6523436502868 18.8398437342558  16.6523436502868 18.8398437342558  C 16.6523436502868 18.8398437342558  17.0898437084192 18.8398437342558  17.0898437084192 18.8398437342558  C 17.0898437084192 18.8398437342558  17.0898437084192 20.3665622990511  17.0898437084192 20.3665622990511  C 17.0898437084192 20.3665622990511  17.0898437084192 21.8932810705393  17.0898437084192 21.8932810705393  C 17.0898437084192 21.8932810705393  17.3496093614762 21.9482675849344  17.3496093614762 21.9482675849344  C 17.4924804603228 21.9785108912768  18.0831054457897 22.0967888411223  18.6621093291804 22.2111044879157  C 18.6621093291804 22.2111044879157  19.7148436438277 22.418952809573  19.7148436438277 22.418952809573  C 19.7148436438277 22.418952809573  19.7148436438277 22.9009668725156  19.7148436438277 22.9009668725156  C 19.7148436438277 22.9009668725156  19.7148436438277 23.3829809354581  19.7148436438277 23.3829809354581  C 19.7148436438277 23.3829809354581  20.0566405448661 23.1527849765555  20.0566405448661 23.1527849765555  Z M 10.9101562915808 15.3398436825826  C 10.9101562915808 15.3398436825826  10.9101562915808 14.8476561946935  10.9101562915808 14.8476561946935  C 10.9101562915808 14.8476561946935  10.9101562915808 14.410156343254  10.9101562915808 14.410156343254  C 10.9101562915808 14.410156343254  11.4023437794699 14.410156343254  11.4023437794699 14.410156343254  C 11.4023437794699 14.410156343254  11.8398436309094 14.410156343254  11.8398436309094 14.410156343254  C 11.8398436309094 14.410156343254  11.8398436309094 14.8476561946935  11.8398436309094 14.8476561946935  C 11.8398436309094 14.8476561946935  11.8398436309094 15.3398436825826  11.8398436309094 15.3398436825826  C 11.8398436309094 15.3398436825826  11.4023437794699 15.3398436825826  11.4023437794699 15.3398436825826  C 11.4023437794699 15.3398436825826  10.9101562915808 15.3398436825826  10.9101562915808 15.3398436825826  Z M 12.6601563174174 15.3398436825826  C 12.6601563174174 15.3398436825826  12.6601563174174 14.8476561946935  12.6601563174174 14.8476561946935  C 12.6601563174174 14.8476561946935  12.6601563174174 14.410156343254  12.6601563174174 14.410156343254  C 12.6601563174174 14.410156343254  13.1523438053065 14.410156343254  13.1523438053065 14.410156343254  C 13.1523438053065 14.410156343254  13.589843656746 14.410156343254  13.589843656746 14.410156343254  C 13.589843656746 14.410156343254  13.589843656746 14.8476561946935  13.589843656746 14.8476561946935  C 13.589843656746 14.8476561946935  13.589843656746 15.3398436825826  13.589843656746 15.3398436825826  C 13.589843656746 15.3398436825826  13.1523438053065 15.3398436825826  13.1523438053065 15.3398436825826  C 13.1523438053065 15.3398436825826  12.6601563174174 15.3398436825826  12.6601563174174 15.3398436825826  Z M 14.410156343254 15.3398436825826  C 14.410156343254 15.3398436825826  14.410156343254 14.8476561946935  14.410156343254 14.8476561946935  C 14.410156343254 14.8476561946935  14.410156343254 14.410156343254  14.410156343254 14.410156343254  C 14.410156343254 14.410156343254  14.8476561946935 14.410156343254  14.8476561946935 14.410156343254  C 14.8476561946935 14.410156343254  15.3398436825826 14.410156343254  15.3398436825826 14.410156343254  C 15.3398436825826 14.410156343254  15.3398436825826 14.8476561946935  15.3398436825826 14.8476561946935  C 15.3398436825826 14.8476561946935  15.3398436825826 15.3398436825826  15.3398436825826 15.3398436825826  C 15.3398436825826 15.3398436825826  14.8476561946935 15.3398436825826  14.8476561946935 15.3398436825826  C 14.8476561946935 15.3398436825826  14.410156343254 15.3398436825826  14.410156343254 15.3398436825826  Z M 16.1601563690906 15.3398436825826  C 16.1601563690906 15.3398436825826  16.1601563690906 14.8476561946935  16.1601563690906 14.8476561946935  C 16.1601563690906 14.8476561946935  16.1601563690906 14.410156343254  16.1601563690906 14.410156343254  C 16.1601563690906 14.410156343254  16.5976562205301 14.410156343254  16.5976562205301 14.410156343254  C 16.5976562205301 14.410156343254  17.0898437084192 14.410156343254  17.0898437084192 14.410156343254  C 17.0898437084192 14.410156343254  17.0898437084192 14.8476561946935  17.0898437084192 14.8476561946935  C 17.0898437084192 14.8476561946935  17.0898437084192 15.3398436825826  17.0898437084192 15.3398436825826  C 17.0898437084192 15.3398436825826  16.5976562205301 15.3398436825826  16.5976562205301 15.3398436825826  C 16.5976562205301 15.3398436825826  16.1601563690906 15.3398436825826  16.1601563690906 15.3398436825826  Z M 10.9101562915808 13.589843656746  C 10.9101562915808 13.589843656746  10.9101562915808 13.1523438053065  10.9101562915808 13.1523438053065  C 10.9101562915808 13.1523438053065  10.9101562915808 12.6601563174174  10.9101562915808 12.6601563174174  C 10.9101562915808 12.6601563174174  14.0273437148784 12.6601563174174  14.0273437148784 12.6601563174174  C 14.0273437148784 12.6601563174174  17.0898437084192 12.6601563174174  17.0898437084192 12.6601563174174  C 17.0898437084192 12.6601563174174  17.0898437084192 13.1523438053065  17.0898437084192 13.1523438053065  C 17.0898437084192 13.1523438053065  17.0898437084192 13.589843656746  17.0898437084192 13.589843656746  C 17.0898437084192 13.589843656746  14.0273437148784 13.589843656746  14.0273437148784 13.589843656746  C 14.0273437148784 13.589843656746  10.9101562915808 13.589843656746  10.9101562915808 13.589843656746  Z M 3.99218743621586 19.6406721003772  C 4.21013043282159 19.74155973569  4.70033222194064 19.7040116952753  4.88155394976491 19.5687105175022  C 5.08414834438611 19.4174520271296  5.215823301776 19.1690631651313  5.25620448188473 18.9628907095745  C 5.25620448188473 18.9628907095745  5.29101549480769 18.7851563044991  5.29101549480769 18.7851563044991  C 5.29101549480769 18.7851563044991  4.35449220092293 18.7851563044991  4.35449220092293 18.7851563044991  C 3.39557848436077 18.7851563044991  3.41098826744615 18.7793378991305  3.53098672906037 19.0960493086602  C 3.60798355787442 19.2992668823999  3.7896114372635 19.5468978015035  3.99218743621586 19.6406721003772  Z M 24.9648431012588 19.2773437923882  C 24.9648431012588 19.2773437923882  24.9648431012588 18.8398437342558  24.9648431012588 18.8398437342558  C 24.9648431012588 18.8398437342558  24.9648431012588 18.3476562463667  24.9648431012588 18.3476562463667  C 24.9648431012588 18.3476562463667  23.2148445222725 18.3476562463667  23.2148445222725 18.3476562463667  C 23.2148445222725 18.3476562463667  21.4101564466005 18.3476562463667  21.4101564466005 18.3476562463667  C 21.4101564466005 18.3476562463667  21.4101564466005 18.8398437342558  21.4101564466005 18.8398437342558  C 21.4101564466005 18.8398437342558  21.4101564466005 19.2773437923882  21.4101564466005 19.2773437923882  C 21.4101564466005 19.2773437923882  23.2148445222725 19.2773437923882  23.2148445222725 19.2773437923882  C 23.2148445222725 19.2773437923882  24.9648431012588 19.2773437923882  24.9648431012588 19.2773437923882  Z M 3.91015618823435 17.9648436179911  C 3.91015618823435 17.9648436179911  3.91015618823435 16.6013415550851  3.91015618823435 16.6013415550851  C 3.91015618823435 15.2714122078885  3.90737410168863 15.236956293382  3.79718797251014 15.2019846800693  C 3.61789530959903 15.1450790220207  3.31178063209201 14.8495455745683  3.1949747491394 14.6205870861076  C 2.92311590740364 14.087700111031  3.01158708632906 13.4973279109909  3.4422850875422 13.068459762095  C 3.96567576363987 12.547292274919  4.70378978091068 12.5189127185307  5.24561539749962 12.9958466831731  C 5.70629213813258 13.4013506791006  5.83114540277693 14.0793472372208  5.55867475003261 14.6134340646301  C 5.43872568802348 14.8485530352226  5.1341436384315 15.1444320732177  4.95281194998002 15.2019846800693  C 4.8426252007228 15.236956293382  4.83984373425581 15.2714122078885  4.83984373425581 16.6013415550851  C 4.83984373425581 16.6013415550851  4.83984373425581 17.9648436179911  4.83984373425581 17.9648436179911  C 4.83984373425581 17.9648436179911  5.05471651440166 17.9648436179911  5.05471651440166 17.9648436179911  C 5.05471651440166 17.9648436179911  5.26958929454751 17.9648436179911  5.26958929454751 17.9648436179911  C 5.26958929454751 17.9648436179911  5.33191816112406 17.6646070801032  5.33191816112406 17.6646070801032  C 5.41821059010308 17.2489383403312  5.66809900915111 16.9068396676467  6.16913336690124 16.5184545984632  C 6.83262338994529 16.0041387745045  7.21377668765313 15.4408208159247  7.38250775633593 14.7251710106995  C 7.82939559967038 12.8297619037952  6.35204170885724 10.9117728368166  4.40234367612343 10.9117728368166  C 2.45264564338962 10.9117728368166  0.920604426166228 12.8297619037952  1.36749208347706 14.7251710106995  C 1.53691609013494 15.4437581288445  1.91958963485261 16.0113837743262  2.5747476187316 16.5159114489195  C 3.08092139564662 16.9057086440524  3.33134783633494 17.2468116769977  3.418081968059 17.6646070801032  C 3.418081968059 17.6646070801032  3.48041083463556 17.9648436179911  3.48041083463556 17.9648436179911  C 3.48041083463556 17.9648436179911  3.69528361478141 17.9648436179911  3.69528361478141 17.9648436179911  C 3.69528361478141 17.9648436179911  3.91015618823435 17.9648436179911  3.91015618823435 17.9648436179911  Z M 21.4648438763572 17.5273437665516  C 21.4648438763572 17.5273437665516  21.4648438763572 16.2148437988473  21.4648438763572 16.2148437988473  C 21.4648438763572 16.2148437988473  21.4648438763572 14.8476561946935  21.4648438763572 14.8476561946935  C 21.4648438763572 14.8476561946935  20.5898437600924 14.8476561946935  20.5898437600924 14.8476561946935  C 20.5898437600924 14.8476561946935  19.660156214071 14.8476561946935  19.660156214071 14.8476561946935  C 19.660156214071 14.8476561946935  19.660156214071 16.2148437988473  19.660156214071 16.2148437988473  C 19.660156214071 16.2148437988473  19.660156214071 17.5273437665516  19.660156214071 17.5273437665516  C 19.660156214071 17.5273437665516  20.5898437600924 17.5273437665516  20.5898437600924 17.5273437665516  C 20.5898437600924 17.5273437665516  21.4648438763572 17.5273437665516  21.4648438763572 17.5273437665516  Z M 24.0898438117657 17.5273437665516  C 24.0898438117657 17.5273437665516  24.0898438117657 16.2148437988473  24.0898438117657 16.2148437988473  C 24.0898438117657 16.2148437988473  24.0898438117657 14.8476561946935  24.0898438117657 14.8476561946935  C 24.0898438117657 14.8476561946935  23.2148445222725 14.8476561946935  23.2148445222725 14.8476561946935  C 23.2148445222725 14.8476561946935  22.2851557360936 14.8476561946935  22.2851557360936 14.8476561946935  C 22.2851557360936 14.8476561946935  22.2851557360936 16.2148437988473  22.2851557360936 16.2148437988473  C 22.2851557360936 16.2148437988473  22.2851557360936 17.5273437665516  22.2851557360936 17.5273437665516  C 22.2851557360936 17.5273437665516  23.2148445222725 17.5273437665516  23.2148445222725 17.5273437665516  C 23.2148445222725 17.5273437665516  24.0898438117657 17.5273437665516  24.0898438117657 17.5273437665516  Z M 26.7148437471741 17.5273437665516  C 26.7148437471741 17.5273437665516  26.7148437471741 16.2148437988473  26.7148437471741 16.2148437988473  C 26.7148437471741 16.2148437988473  26.7148437471741 14.8476561946935  26.7148437471741 14.8476561946935  C 26.7148437471741 14.8476561946935  25.839844457681 14.8476561946935  25.839844457681 14.8476561946935  C 25.839844457681 14.8476561946935  24.9101556715021 14.8476561946935  24.9101556715021 14.8476561946935  C 24.9101556715021 14.8476561946935  24.9101556715021 16.2148437988473  24.9101556715021 16.2148437988473  C 24.9101556715021 16.2148437988473  24.9101556715021 17.5273437665516  24.9101556715021 17.5273437665516  C 24.9101556715021 17.5273437665516  25.839844457681 17.5273437665516  25.839844457681 17.5273437665516  C 25.839844457681 17.5273437665516  26.7148437471741 17.5273437665516  26.7148437471741 17.5273437665516  Z M 4.34765624636673 14.4648437730107  C 4.45420788744567 14.4648437730107  4.62099624948336 14.4152252801372  4.70561074543281 14.3306105774948  C 4.79022524138225 14.2459962882383  4.83984373425582 14.1338951492644  4.83984373425582 14.0273437148784  C 4.83984373425582 13.9207922804923  4.79022524138226 13.7540037117617  4.70561074543281 13.6693894225052  C 4.62099624948336 13.5847747198628  4.45420788744567 13.5351562269893  4.34765624636673 13.5351562269893  C 4.24110460528778 13.5351562269893  4.12900387969971 13.5847747198628  4.04438917705735 13.6693894225052  C 3.77312871129113 13.9406498882714  3.9653427813646 14.4648437730107  4.34765624636673 14.4648437730107  Z M 21.4648438763572 14.0273437148784  C 21.4648438763572 14.0273437148784  21.4648438763572 12.7148437471741  21.4648438763572 12.7148437471741  C 21.4648438763572 12.7148437471741  21.4648438763572 11.3476563497132  21.4648438763572 11.3476563497132  C 21.4648438763572 11.3476563497132  20.5898437600924 11.3476563497132  20.5898437600924 11.3476563497132  C 20.5898437600924 11.3476563497132  19.660156214071 11.3476563497132  19.660156214071 11.3476563497132  C 19.660156214071 11.3476563497132  19.660156214071 12.7148437471741  19.660156214071 12.7148437471741  C 19.660156214071 12.7148437471741  19.660156214071 14.0273437148784  19.660156214071 14.0273437148784  C 19.660156214071 14.0273437148784  20.5898437600924 14.0273437148784  20.5898437600924 14.0273437148784  C 20.5898437600924 14.0273437148784  21.4648438763572 14.0273437148784  21.4648438763572 14.0273437148784  Z M 24.0898438117657 14.0273437148784  C 24.0898438117657 14.0273437148784  24.0898438117657 12.7148437471741  24.0898438117657 12.7148437471741  C 24.0898438117657 12.7148437471741  24.0898438117657 11.3476563497132  24.0898438117657 11.3476563497132  C 24.0898438117657 11.3476563497132  23.2148445222725 11.3476563497132  23.2148445222725 11.3476563497132  C 23.2148445222725 11.3476563497132  22.2851557360936 11.3476563497132  22.2851557360936 11.3476563497132  C 22.2851557360936 11.3476563497132  22.2851557360936 12.7148437471741  22.2851557360936 12.7148437471741  C 22.2851557360936 12.7148437471741  22.2851557360936 14.0273437148784  22.2851557360936 14.0273437148784  C 22.2851557360936 14.0273437148784  23.2148445222725 14.0273437148784  23.2148445222725 14.0273437148784  C 23.2148445222725 14.0273437148784  24.0898438117657 14.0273437148784  24.0898438117657 14.0273437148784  Z M 26.7148437471741 14.0273437148784  C 26.7148437471741 14.0273437148784  26.7148437471741 12.7148437471741  26.7148437471741 12.7148437471741  C 26.7148437471741 12.7148437471741  26.7148437471741 11.3476563497132  26.7148437471741 11.3476563497132  C 26.7148437471741 11.3476563497132  25.839844457681 11.3476563497132  25.839844457681 11.3476563497132  C 25.839844457681 11.3476563497132  24.9101556715021 11.3476563497132  24.9101556715021 11.3476563497132  C 24.9101556715021 11.3476563497132  24.9101556715021 12.7148437471741  24.9101556715021 12.7148437471741  C 24.9101556715021 12.7148437471741  24.9101556715021 14.0273437148784  24.9101556715021 14.0273437148784  C 24.9101556715021 14.0273437148784  25.839844457681 14.0273437148784  25.839844457681 14.0273437148784  C 25.839844457681 14.0273437148784  26.7148437471741 14.0273437148784  26.7148437471741 14.0273437148784  Z M 14.0273428881067 10.1971434744797  C 14.0423818641146 10.1981976083121  14.1751024809276 10.0763517254835  14.3222777528967 9.92638051854379  C 14.8672579166521 9.37104049283857  15.5527448190762 9.0652432956387  16.3711034308291 9.01239605284459  C 16.3711034308291 9.01239605284459  16.8437499644747 8.98187329769013  16.8437499644747 8.98187329769013  C 16.8437499644747 8.98187329769013  16.8261479964038 8.7018744758397  16.8261479964038 8.7018744758397  C 16.7811472297946 7.98608060565747  17.1463388743519 7.04430669182316  17.6907557999322 6.47218030826328  C 17.6907557999322 6.47218030826328  18.0137450931657 6.07806447150432  18.0137450931657 6.07806447150432  C 18.0137450931657 6.07806447150432  17.7021852976824 5.74386746201114  17.7021852976824 5.74386746201114  C 17.530827575521 5.56005897243949  17.3224125019091 5.28329344775361  17.2390402303386 5.12883266415274  C 17.0161750488146 4.71593712313147  16.8645490584511 4.06850837921978  16.8775574833278 3.58533187536093  C 16.8775574833278 3.58533187536093  16.8885101405386 3.17847610781309  16.8885101405386 3.17847610781309  C 16.8885101405386 3.17847610781309  16.5917166931172 3.1922253200732  16.5917166931172 3.1922253200732  C 15.858354959194 3.22619509285937  14.9278127379967 2.87267539683377  14.3552334902748 2.34256844137381  C 14.3552334902748 2.34256844137381  14.0273437148784 2.03900011715059  14.0273437148784 2.03900011715059  C 14.0273437148784 2.03900011715059  13.6447665097252 2.34256844137381  13.6447665097252 2.34256844137381  C 13.0721872620033 2.87267539683377  12.141645040806 3.22619509285937  11.4082833068828 3.19222428660865  C 11.4082833068828 3.19222428660865  11.1114898594614 3.17847507434855  11.1114898594614 3.17847507434855  C 11.1114898594614 3.17847507434855  11.1224425166722 3.58533084189639  11.1224425166722 3.58533084189639  C 11.1354517683206 4.06850734575523  10.9838249511854 4.71593608966693  10.7609597696614 5.1288316306882  C 10.6775874980909 5.28329241428906  10.4640700033447 5.56551256482499  10.2864761494469 5.7559869006893  C 10.2864761494469 5.7559869006893  9.96357883455761 6.15699160538899  9.96357883455761 6.15699160538899  C 9.96357883455761 6.15699160538899  10.1988121063284 6.38708876508148  10.1988121063284 6.38708876508148  C 10.7850545820607 6.9605309556956  11.0780963465035 7.65040016116141  11.1080552434042 8.52759804312013  C 11.1080552434042 8.52759804312013  11.1266079988532 9.07082255731244  11.1266079988532 9.07082255731244  C 11.1266079988532 9.07082255731244  11.4158420665393 9.05742472299644  11.4158420665393 9.05742472299644  C 12.1393631510983 9.02390946791562  13.0836161396748 9.38292140790056  13.6322651025525 9.90012473178827  C 13.8044405018592 10.0624321982669  14.0123039120988 10.1960905808049  14.0273428881067 10.1971434744797  Z M 16.6070417321102 6.54882803275522  C 16.3464327719874 8.07813232583336  14.8411927007581 9.05168465424005  13.358661152592 8.69230583434287  C 12.880727827738 8.57645032538262  12.506458644034 8.36033614762952  12.1275448639876 7.98142236758311  C 10.6286442709487 6.48252177454425  11.4441408060005 3.89723726138688  13.5471836873232 3.52140258559541  C 15.2657411745635 3.21427924669589  16.8997379060104 4.83123146084568  16.6070417321102 6.54882803275522  Z M 13.4260761115631 7.81444116106198  C 13.7712022152755 7.93984505561405  14.408648518488 7.90332861950471  14.765624946712 7.73392910595647  C 15.1115676941051 7.56976553716128  15.4409121741901 7.24209609640512  15.6132396994774 6.89062493379368  C 15.8057303246621 6.49802994345399  15.8057303246621 5.7519700307094  15.6132396994774 5.35937504036971  C 15.4422974300616 5.01072998989346  15.1142704105741 4.68270255702011  14.765624946712 4.51176049429723  C 14.3730299563723 4.31926986911246  13.6269700436277 4.31926986911246  13.234375053288 4.51176049429723  C 11.8128046847243 5.20876143187103  11.9313114436193 7.27130738505641  13.4260761115631 7.81444116106198  Z M 26.6601563174174 27.5898430366672  C 26.6601563174174 27.5898430366672  26.6601563174174 27.1523444253852  26.6601563174174 27.1523444253852  C 26.6601563174174 27.1523444253852  26.6601563174174 26.6601563174174  26.6601563174174 26.6601563174174  C 26.6601563174174 26.6601563174174  27.1523444253852 26.6601563174174  27.1523444253852 26.6601563174174  C 27.1523444253852 26.6601563174174  27.5898430366672 26.6601563174174  27.5898430366672 26.6601563174174  C 27.5898430366672 26.6601563174174  27.5898430366672 27.1523444253852  27.5898430366672 27.1523444253852  C 27.5898430366672 27.1523444253852  27.5898430366672 27.5898430366672  27.5898430366672 27.5898430366672  C 27.5898430366672 27.5898430366672  27.1523444253852 27.5898430366672  27.1523444253852 27.5898430366672  C 27.1523444253852 27.5898430366672  26.6601563174174 27.5898430366672  26.6601563174174 27.5898430366672  Z " fill-rule="nonzero" fill="#ffffff" stroke="none" transform="matrix(1 0 0 1 15 247 )" />
  </g>
</svg>