<?xml version="1.0" encoding="utf-8"?>
<svg version="1.1" xmlns:xlink="http://www.w3.org/1999/xlink" width="28px" height="28px" xmlns="http://www.w3.org/2000/svg">
  <g transform="matrix(1 0 0 1 -15 -189 )">
    <path d="M 0.988993857288272 27.9277091469427  C 0.988993857288272 27.9277091469427  0.847505466962584 27.786218577962  0.847505466962584 27.786218577962  C 0.847505466962584 27.786218577962  0.706017076636897 27.6447301876363  0.706017076636897 27.6447301876363  C 0.706017076636897 27.6447301876363  0.706017076636897 20.0881828211702  0.706017076636897 20.0881828211702  C 0.706017076636897 20.0881828211702  0.706017076636897 12.4739878082188  0.706017076636897 12.4739878082188  C 0.706017076636897 12.4739878082188  0.847505466962584 12.3324994178931  0.847505466962584 12.3324994178931  C 0.847505466962584 12.3324994178931  0.988993857288272 12.1910088489124  0.988993857288272 12.1910088489124  C 0.988993857288272 12.1910088489124  5.31750424122975 12.1910088489124  5.31750424122975 12.1910088489124  C 5.31750424122975 12.1910088489124  9.70365588819745 12.1910088489124  9.70365588819745 12.1910088489124  C 9.70365588819745 12.1910088489124  9.84514427852313 12.3324994178931  9.84514427852313 12.3324994178931  C 9.84514427852313 12.3324994178931  9.98663266884882 12.4739878082188  9.98663266884882 12.4739878082188  C 9.98663266884882 12.4739878082188  9.98663266884882 16.0216877900867  9.98663266884882 16.0216877900867  C 9.98663266884882 16.0216877900867  9.98663266884882 19.5693899506096  9.98663266884882 19.5693899506096  C 9.98663266884882 19.5693899506096  13.995480924909 19.5693899506096  13.995480924909 19.5693899506096  C 13.995480924909 19.5693899506096  18.0043302702967 19.5693899506096  18.0043302702967 19.5693899506096  C 18.0043302702967 19.5693899506096  18.1458186606224 19.7108783409352  18.1458186606224 19.7108783409352  C 18.1458186606224 19.7108783409352  18.2873070509481 19.8523667312609  18.2873070509481 19.8523667312609  C 18.2873070509481 19.8523667312609  18.2873070509481 23.7773714112293  18.2873070509481 23.7773714112293  C 18.2873070509481 23.7773714112293  18.2873070509481 27.6447301876363  18.2873070509481 27.6447301876363  C 18.2873070509481 27.6447301876363  18.1458186606224 27.786218577962  18.1458186606224 27.786218577962  C 18.1458186606224 27.786218577962  18.0043302702967 27.9277091469427  18.0043302702967 27.9277091469427  C 18.0043302702967 27.9277091469427  9.46783979828815 27.9277091469427  9.46783979828815 27.9277091469427  C 9.46783979828815 27.9277091469427  0.988993857288272 27.9277091469427  0.988993857288272 27.9277091469427  Z M 9.06433612046417 27.0054104199031  C 9.06433612046417 27.0054104199031  9.06433612046417 23.7773714112293  9.06433612046417 23.7773714112293  C 9.06433612046417 23.7773714112293  9.06433612046417 20.4916864989942  9.06433612046417 20.4916864989942  C 9.06433612046417 20.4916864989942  8.14203957207952 20.4916864989942  8.14203957207952 20.4916864989942  C 8.14203957207952 20.4916864989942  7.2197408450399 20.4916864989942  7.2197408450399 20.4916864989942  C 7.2197408450399 20.4916864989942  7.2197408450399 21.7336442384385  7.2197408450399 21.7336442384385  C 7.2197408450399 22.9754078597241  7.2197190584901 22.975623546567  7.07825245471421 23.1170901503429  C 7.07825245471421 23.1170901503429  6.93676406438852 23.2585785406686  6.93676406438852 23.2585785406686  C 6.93676406438852 23.2585785406686  5.3751477482706 23.2585785406686  5.3751477482706 23.2585785406686  C 5.3751477482706 23.2585785406686  3.75588574645684 23.2585785406686  3.75588574645684 23.2585785406686  C 3.75588574645684 23.2585785406686  3.61439735613116 23.1170901503429  3.61439735613116 23.1170901503429  C 3.47293075235526 22.975623546567  3.47290896580547 22.9754078597241  3.47290896580547 21.7336442384385  C 3.47290896580547 21.7336442384385  3.47290896580547 20.4916864989942  3.47290896580547 20.4916864989942  C 3.47290896580547 20.4916864989942  2.55061241742082 20.4916864989942  2.55061241742082 20.4916864989942  C 2.55061241742082 20.4916864989942  1.62831369038119 20.4916864989942  1.62831369038119 20.4916864989942  C 1.62831369038119 20.4916864989942  1.62831369038119 23.7773714112293  1.62831369038119 23.7773714112293  C 1.62831369038119 23.7773714112293  1.62831369038119 27.0054104199031  1.62831369038119 27.0054104199031  C 1.62831369038119 27.0054104199031  5.3751477482706 27.0054104199031  5.3751477482706 27.0054104199031  C 5.3751477482706 27.0054104199031  9.06433612046417 27.0054104199031  9.06433612046417 27.0054104199031  Z M 7.16209733799904 26.0831138715184  C 7.16209733799904 26.0831138715184  7.16209733799904 25.5643210009577  7.16209733799904 25.5643210009577  C 7.16209733799904 25.5643210009577  7.16209733799904 25.1031738160929  7.16209733799904 25.1031738160929  C 7.16209733799904 25.1031738160929  7.68089020855971 25.1031738160929  7.68089020855971 25.1031738160929  C 7.68089020855971 25.1031738160929  8.14203957207952 25.1031738160929  8.14203957207952 25.1031738160929  C 8.14203957207952 25.1031738160929  8.14203957207952 25.5643210009577  8.14203957207952 25.5643210009577  C 8.14203957207952 25.5643210009577  8.14203957207952 26.0831138715184  8.14203957207952 26.0831138715184  C 8.14203957207952 26.0831138715184  7.68089020855971 26.0831138715184  7.68089020855971 26.0831138715184  C 7.68089020855971 26.0831138715184  7.16209733799904 26.0831138715184  7.16209733799904 26.0831138715184  Z M 17.3650105025635 27.0054104199031  C 17.3650105025635 27.0054104199031  17.3650105025635 23.7773714112293  17.3650105025635 23.7773714112293  C 17.3650105025635 23.7773714112293  17.3650105025635 20.4916864989942  17.3650105025635 20.4916864989942  C 17.3650105025635 20.4916864989942  16.4427139541788 20.4916864989942  16.4427139541788 20.4916864989942  C 16.4427139541788 20.4916864989942  15.5204152271392 20.4916864989942  15.5204152271392 20.4916864989942  C 15.5204152271392 20.4916864989942  15.5204152271392 21.7336442384385  15.5204152271392 21.7336442384385  C 15.5204152271392 22.9754078597241  15.5203934405894 22.975623546567  15.3789268368135 23.1170901503429  C 15.3789268368135 23.1170901503429  15.2374384464878 23.2585785406686  15.2374384464878 23.2585785406686  C 15.2374384464878 23.2585785406686  13.6758221303699 23.2585785406686  13.6758221303699 23.2585785406686  C 13.6758221303699 23.2585785406686  12.0565612178836 23.2585785406686  12.0565612178836 23.2585785406686  C 12.0565612178836 23.2585785406686  11.9150728275579 23.1170901503429  11.9150728275579 23.1170901503429  C 11.773606223782 22.975623546567  11.7735844372322 22.9754078597241  11.7735844372322 21.7336442384385  C 11.7735844372322 21.7336442384385  11.7735844372322 20.4916864989942  11.7735844372322 20.4916864989942  C 11.7735844372322 20.4916864989942  10.8512857101926 20.4916864989942  10.8512857101926 20.4916864989942  C 10.8512857101926 20.4916864989942  9.92898916180797 20.4916864989942  9.92898916180797 20.4916864989942  C 9.92898916180797 20.4916864989942  9.92898916180797 23.7773714112293  9.92898916180797 23.7773714112293  C 9.92898916180797 23.7773714112293  9.92898916180797 27.0054104199031  9.92898916180797 27.0054104199031  C 9.92898916180797 27.0054104199031  13.6758221303699 27.0054104199031  13.6758221303699 27.0054104199031  C 13.6758221303699 27.0054104199031  17.3650105025635 27.0054104199031  17.3650105025635 27.0054104199031  Z M 15.4627717200983 26.0831138715184  C 15.4627717200983 26.0831138715184  15.4627717200983 25.5643210009577  15.4627717200983 25.5643210009577  C 15.4627717200983 25.5643210009577  15.4627717200983 25.1031738160929  15.4627717200983 25.1031738160929  C 15.4627717200983 25.1031738160929  15.981564590659 25.1031738160929  15.981564590659 25.1031738160929  C 15.981564590659 25.1031738160929  16.4427139541788 25.1031738160929  16.4427139541788 25.1031738160929  C 16.4427139541788 25.1031738160929  16.4427139541788 25.5643210009577  16.4427139541788 25.5643210009577  C 16.4427139541788 25.5643210009577  16.4427139541788 26.0831138715184  16.4427139541788 26.0831138715184  C 16.4427139541788 26.0831138715184  15.981564590659 26.0831138715184  15.981564590659 26.0831138715184  C 15.981564590659 26.0831138715184  15.4627717200983 26.0831138715184  15.4627717200983 26.0831138715184  Z M 6.29744429665525 22.3939254993248  C 6.29744429665525 22.3939254993248  6.29744429665525 21.4139832652444  6.29744429665525 21.4139832652444  C 6.29744429665525 21.4139832652444  6.29744429665525 20.4916864989942  6.29744429665525 20.4916864989942  C 6.29744429665525 20.4916864989942  5.3751477482706 20.4916864989942  5.3751477482706 20.4916864989942  C 5.3751477482706 20.4916864989942  4.39520551419012 20.4916864989942  4.39520551419012 20.4916864989942  C 4.39520551419012 20.4916864989942  4.39520551419012 21.4139832652444  4.39520551419012 21.4139832652444  C 4.39520551419012 21.4139832652444  4.39520551419012 22.3939254993248  4.39520551419012 22.3939254993248  C 4.39520551419012 22.3939254993248  5.3751477482706 22.3939254993248  5.3751477482706 22.3939254993248  C 5.3751477482706 22.3939254993248  6.29744429665525 22.3939254993248  6.29744429665525 22.3939254993248  Z M 14.5981186787545 22.3939254993248  C 14.5981186787545 22.3939254993248  14.5981186787545 21.4139832652444  14.5981186787545 21.4139832652444  C 14.5981186787545 21.4139832652444  14.5981186787545 20.4916864989942  14.5981186787545 20.4916864989942  C 14.5981186787545 20.4916864989942  13.6758221303699 20.4916864989942  13.6758221303699 20.4916864989942  C 13.6758221303699 20.4916864989942  12.6958809856169 20.4916864989942  12.6958809856169 20.4916864989942  C 12.6958809856169 20.4916864989942  12.6958809856169 21.4139832652444  12.6958809856169 21.4139832652444  C 12.6958809856169 21.4139832652444  12.6958809856169 22.3939254993248  12.6958809856169 22.3939254993248  C 12.6958809856169 22.3939254993248  13.6758221303699 22.3939254993248  13.6758221303699 22.3939254993248  C 13.6758221303699 22.3939254993248  14.5981186787545 22.3939254993248  14.5981186787545 22.3939254993248  Z M 9.06433612046417 19.6270334576504  C 9.06433612046417 19.6270334576504  9.06433612046417 16.3413465846258  9.06433612046417 16.3413465846258  C 9.06433612046417 16.3413465846258  9.06433612046417 13.1133075759521  9.06433612046417 13.1133075759521  C 9.06433612046417 13.1133075759521  8.14203957207952 13.1133075759521  8.14203957207952 13.1133075759521  C 8.14203957207952 13.1133075759521  7.2197408450399 13.1133075759521  7.2197408450399 13.1133075759521  C 7.2197408450399 13.1133075759521  7.2197408450399 14.3552629188759  7.2197408450399 14.3552629188759  C 7.2197408450399 15.5970265401615  7.2197190584901 15.5972422270044  7.07825245471421 15.7387088307803  C 7.07825245471421 15.7387088307803  6.93676406438852 15.880199399761  6.93676406438852 15.880199399761  C 6.93676406438852 15.880199399761  5.3751477482706 15.880199399761  5.3751477482706 15.880199399761  C 5.3751477482706 15.880199399761  3.75588574645684 15.880199399761  3.75588574645684 15.880199399761  C 3.75588574645684 15.880199399761  3.61439735613116 15.7387088307803  3.61439735613116 15.7387088307803  C 3.47293075235526 15.5972422270044  3.47290896580547 15.5970265401615  3.47290896580547 14.3552629188759  C 3.47290896580547 14.3552629188759  3.47290896580547 13.1133075759521  3.47290896580547 13.1133075759521  C 3.47290896580547 13.1133075759521  2.55061241742082 13.1133075759521  2.55061241742082 13.1133075759521  C 2.55061241742082 13.1133075759521  1.62831369038119 13.1133075759521  1.62831369038119 13.1133075759521  C 1.62831369038119 13.1133075759521  1.62831369038119 16.3413465846258  1.62831369038119 16.3413465846258  C 1.62831369038119 16.3413465846258  1.62831369038119 19.6270334576504  1.62831369038119 19.6270334576504  C 1.62831369038119 19.6270334576504  5.3751477482706 19.6270334576504  5.3751477482706 19.6270334576504  C 5.3751477482706 19.6270334576504  9.06433612046417 19.6270334576504  9.06433612046417 19.6270334576504  Z M 7.16209733799904 18.7047369092658  C 7.16209733799904 18.7047369092658  7.16209733799904 18.2435875457459  7.16209733799904 18.2435875457459  C 7.16209733799904 18.2435875457459  7.16209733799904 17.7247946751853  7.16209733799904 17.7247946751853  C 7.16209733799904 17.7247946751853  7.68089020855971 17.7247946751853  7.68089020855971 17.7247946751853  C 7.68089020855971 17.7247946751853  8.14203957207952 17.7247946751853  8.14203957207952 17.7247946751853  C 8.14203957207952 17.7247946751853  8.14203957207952 18.2435875457459  8.14203957207952 18.2435875457459  C 8.14203957207952 18.2435875457459  8.14203957207952 18.7047369092658  8.14203957207952 18.7047369092658  C 8.14203957207952 18.7047369092658  7.68089020855971 18.7047369092658  7.68089020855971 18.7047369092658  C 7.68089020855971 18.7047369092658  7.16209733799904 18.7047369092658  7.16209733799904 18.7047369092658  Z M 6.29744429665525 15.0155441797622  C 6.29744429665525 15.0155441797622  6.29744429665525 14.0932476313776  6.29744429665525 14.0932476313776  C 6.29744429665525 14.0932476313776  6.29744429665525 13.1133075759521  6.29744429665525 13.1133075759521  C 6.29744429665525 13.1133075759521  5.3751477482706 13.1133075759521  5.3751477482706 13.1133075759521  C 5.3751477482706 13.1133075759521  4.39520551419012 13.1133075759521  4.39520551419012 13.1133075759521  C 4.39520551419012 13.1133075759521  4.39520551419012 14.0932476313776  4.39520551419012 14.0932476313776  C 4.39520551419012 14.0932476313776  4.39520551419012 15.0155441797622  4.39520551419012 15.0155441797622  C 4.39520551419012 15.0155441797622  5.3751477482706 15.0155441797622  5.3751477482706 15.0155441797622  C 5.3751477482706 15.0155441797622  6.29744429665525 15.0155441797622  6.29744429665525 15.0155441797622  Z M 19.1519709855668 24.7062627482365  C 19.1519709855668 24.7062627482365  19.1519622709469 24.2418127224229  19.1519622709469 24.2418127224229  C 19.1519622709469 24.2418127224229  19.1519622709469 23.7773714112293  19.1519622709469 23.7773714112293  C 19.1519622709469 23.7773714112293  20.6096589232035 23.7773714112293  20.6096589232035 23.7773714112293  C 22.0067092282612 23.7773714112293  22.1357015072217 23.7719683468804  22.3821988888983 23.647673901652  C 22.5700904516298 23.5529241965989  22.6743478070129 23.4486668412158  22.769097512066 23.2607752784843  C 22.8966817263133 23.0077680757293  22.8987950216433 22.9109044217497  22.8987950216433 20.7965130104337  C 22.8987950216433 20.7965130104337  22.8987950216433 18.6470934022249  22.8987950216433 18.6470934022249  C 22.8987950216433 18.6470934022249  23.3623997293249 18.6470934022249  23.3623997293249 18.6470934022249  C 23.3623997293249 18.6470934022249  23.8260044370064 18.6470934022249  23.8260044370064 18.6470934022249  C 23.8260044370064 18.6470934022249  23.8091416474661 20.9672454865476  23.8091416474661 20.9672454865476  C 23.8091416474661 20.9672454865476  23.7922788579257 23.3450434744317  23.7922788579257 23.3450434744317  C 23.7922788579257 23.3450434744317  23.6511913401162 23.6317588270276  23.6511913401162 23.6317588270276  C 23.4712366174746 23.997454779936  23.1188871049699 24.3498042924407  22.7531911520616 24.5297590150823  C 22.4726108918875 24.6678269170903  22.3739934206495 24.6712256188582  20.7804001139373 24.6885502832542  C 20.7804001139373 24.6885502832542  19.1519709855668 24.7062627482365  19.1519709855668 24.7062627482365  Z M 19.1519622709469 22.8550726841897  C 19.1519622709469 22.8550726841897  19.1519622709469 22.3939254993248  19.1519622709469 22.3939254993248  C 19.1519622709469 22.3939254993248  19.1519622709469 21.932776135805  19.1519622709469 21.932776135805  C 19.1519622709469 21.932776135805  20.0742588193315 21.932776135805  20.0742588193315 21.932776135805  C 20.0742588193315 21.932776135805  21.054198874757 21.932776135805  21.054198874757 21.932776135805  C 21.054198874757 21.932776135805  21.054198874757 20.4916864989942  21.054198874757 20.4916864989942  C 21.054198874757 20.4916864989942  21.054198874757 19.1082405870897  21.054198874757 19.1082405870897  C 21.054198874757 19.1082405870897  21.5153491097388 19.1082405870897  21.5153491097388 19.1082405870897  C 21.5153491097388 19.1082405870897  21.9764962946037 19.1082405870897  21.9764962946037 19.1082405870897  C 21.9764962946037 19.1082405870897  21.9764962946037 20.8113474721883  21.9764962946037 20.8113474721883  C 21.9764962946037 20.8113474721883  21.9764962946037 22.5720959035383  21.9764962946037 22.5720959035383  C 21.9764962946037 22.5720959035383  21.835007904278 22.713584293864  21.835007904278 22.713584293864  C 21.6935413005021 22.8550508976399  21.6356821066183 22.8550726841897  20.3939176138707 22.8550726841897  C 20.3939176138707 22.8550726841897  19.1519622709469 22.8550726841897  19.1519622709469 22.8550726841897  Z M 13.7254425225837 18.5824097894837  C 13.6188932221623 18.5785317836204  13.1037110364989 18.4984836423681  12.5805931000732 18.4045073598327  C 12.0574784316299 18.3105332559522  11.5715229025149 18.1966440669053  11.5006926504804 18.1514217254984  C 11.3553502194962 18.0586262739618  11.2839273733073 17.8462292000223  11.3327052796406 17.651875746622  C 11.35072275632 17.5800629211918  11.7433272768787 17.1684953876926  12.2051476661321 16.7372763862795  C 12.2051476661321 16.7372763862795  13.0448176350964 15.9532416401961  13.0448176350964 15.9532416401961  C 13.0448176350964 15.9532416401961  19.2543764842174 14.0297587930271  19.2543764842174 14.0297587930271  C 25.1967154569599 12.2442116035088  25.5418281312196 12.1638824157642  25.9921713660418 12.1630523482171  C 26.4236147689178 12.1621808862253  26.4834253840666 12.1767125149378  26.7111057226864 12.3367281872081  C 27.1125817263211 12.6188966868621  27.2989504092219 12.9334182129599  27.3271574552399 13.3763932366417  C 27.3580311749527 13.8612703315419  27.2370875010825 14.1845130135222  26.9130212875201 14.4832240404346  C 26.6507286572429 14.724998098116  26.4930027513559 14.7938958831838  25.5561723956039 15.0759271275742  C 25.5561723956039 15.0759271275742  24.9566893341685 15.2564003701008  24.9566893341685 15.2564003701008  C 24.9566893341685 15.2564003701008  24.9913386629605 16.1242094110477  24.9913386629605 16.1242094110477  C 25.0332843072785 17.1049919523538  24.9985282243925 17.2094018135854  24.5859737601877 17.3420121848702  C 23.8672006240115 17.5730520094682  21.1569102565668 18.3653133567537  21.1418753585541 18.3487773654602  C 21.1325071421428 18.3384723274078  21.0716398793289 18.1405654877361  21.0066039780776 17.9089679274634  C 20.9090176642413 17.561448493048  20.9022485832204 17.4825485029698  20.9678696711992 17.4573676087182  C 21.0115996339453 17.440591965377  21.7168616234013 17.2262689604358  22.5351121459359 16.9811027369515  C 22.5351121459359 16.9811027369515  24.0228437357382 16.5353499281709  24.0228437357382 16.5353499281709  C 24.0228437357382 16.5353499281709  24.039662952179 16.0590175180998  24.039662952179 16.0590175180998  C 24.0550224697836 15.6241231257365  24.0475061101047 15.5853169232438  23.9531986720124 15.6129400897273  C 23.8963924220802 15.6295850137698  21.5708257265372 16.3061031366209  18.8557218387811 17.1163209582465  C 16.1406188224869 17.926543137182  13.8319940016601 18.586281259382  13.7254425225837 18.5824097894837  Z M 13.7334643302177 17.6604988630304  C 13.7493249384676 17.6637014858501  14.2816450777952 17.5268732385253  14.8459646478634 17.3564414167986  C 15.4102820392767 17.1860095950719  15.884056708402 17.034505927806  15.8987931306825 17.0197673268705  C 15.9214053907135 16.9971550668395  15.7086030869478 16.1694921011976  15.667280537954 16.1244026577444  C 15.6596116724266 16.1160366226236  15.1785145439156 16.250474885436  14.5981513585792 16.4231289352417  C 14.5981513585792 16.4231289352417  13.4853024561368 16.7370447952552  13.4853024561368 16.7370447952552  C 13.4853024561368 16.7370447952552  13.1497416589032 17.1267458223228  13.1497416589032 17.1267458223228  C 12.9651834382902 17.3093781119341  12.8233606244252 17.4679820157777  12.834576340259 17.4791977316116  C 12.8457964134028 17.4904178047554  13.0461444359788 17.5344854590232  13.279805182517 17.5771326302445  C 13.5134659290552 17.6197819801208  13.7176124365878 17.6572984188657  13.7334643302177 17.6604988630304  Z M 20.5354066577929 15.6545022907689  C 20.5354066577929 15.6545022907689  23.9652008822938 14.5678865729332  23.9652008822938 14.5678865729332  C 23.9652008822938 14.5678865729332  23.9449829640852 14.1144038962858  23.9449829640852 14.1144038962858  C 23.9338718236904 13.8649892955917  23.9196800651547 13.6553809000259  23.9134578265336 13.648611819005  C 23.9023684726886 13.6365420704192  16.5362146363322 15.8797773942915  16.5229422701979 15.8991434584032  C 16.5192167701831 15.9045683093018  16.5708007841298 16.0977583609431  16.6375700232828 16.3284365288145  C 16.7522043123327 16.7244811455856  16.7670213448474 16.7460585445014  16.9034661488959 16.7156641288841  C 16.9829413038886 16.6979516639018  18.6490138865892 16.2204384228318  20.5354001218279 15.6545022907689  Z M 24.9151003356707 14.32382122381  C 24.9375143380985 14.32382122381  25.2341011764061 14.2355203374958  25.5741805040669 14.1275963057824  C 25.9223753215259 14.0170971038834  26.2853703958564 13.8848854264599  26.3307692083166 13.8249680572171  C 26.5310420672959 13.5606362058792  26.3239500182312 13.0556625438527  26.0012890371304 13.0556625438527  C 25.9051362782706 13.0556625438527  25.5510715107007 13.122081019554  25.2849270184199 13.2032598827406  C 24.8057405703259 13.3494214879971  24.8010324969154 13.3527090783609  24.8010324969154 13.5410755878779  C 24.8010324969154 13.8317299486766  24.8693769036185 14.32382122381  24.9151003356707 14.32382122381  Z M 12.2347316220971 12.7098017194731  C 11.1431927976045 12.7098017194731  11.1331165183248 12.7087123919834  10.9927762791733 12.5683133291474  C 10.8524338613667 12.4279709113409  10.8512857101926 12.4178968107163  10.8512857101926 11.3263558075687  C 10.8512857101926 9.84466562802416  10.7530436212076 9.88526638862334  12.2347316220971 9.88526638862334  C 13.3262715359172 9.88526638862334  13.3939913222377 9.88635571611303  13.5343315613892 10.026754778949  C 13.6746739791957 10.1670971967556  13.6758221303699 10.2348148044211  13.6758221303699 11.3263558075687  C 13.6758221303699 12.8080459871131  13.7164207123141 12.7098017194731  12.2347316220971 12.7098017194731  Z M 12.7535244926577 11.7875051710885  C 12.7535244926577 11.7875051710885  12.7535244926577 11.3263558075687  12.7535244926577 11.3263558075687  C 12.7535244926577 11.3263558075687  12.7535244926577 10.807562937008  12.7535244926577 10.807562937008  C 12.7535244926577 10.807562937008  12.2347316220971 10.807562937008  12.2347316220971 10.807562937008  C 12.2347316220971 10.807562937008  11.7735844372322 10.807562937008  11.7735844372322 10.807562937008  C 11.7735844372322 10.807562937008  11.7735844372322 11.3263558075687  11.7735844372322 11.3263558075687  C 11.7735844372322 11.3263558075687  11.7735844372322 11.7875051710885  11.7735844372322 11.7875051710885  C 11.7735844372322 11.7875051710885  12.2347316220971 11.7875051710885  12.2347316220971 11.7875051710885  C 12.2347316220971 11.7875051710885  12.7535244926577 11.7875051710885  12.7535244926577 11.7875051710885  Z M 14.5404751717137 12.7098017194731  C 14.5404751717137 12.7098017194731  14.5404751717137 12.1910088489124  14.5404751717137 12.1910088489124  C 14.5404751717137 12.1910088489124  14.5404751717137 11.7298616640476  14.5404751717137 11.7298616640476  C 14.5404751717137 11.7298616640476  17.3650105025635 11.7298616640476  17.3650105025635 11.7298616640476  C 17.3650105025635 11.7298616640476  20.1319023263724 11.7298616640476  20.1319023263724 11.7298616640476  C 20.1319023263724 11.7298616640476  20.1319023263724 12.1910088489124  20.1319023263724 12.1910088489124  C 20.1319023263724 12.1910088489124  20.1319023263724 12.7098017194731  20.1319023263724 12.7098017194731  C 20.1319023263724 12.7098017194731  17.3650105025635 12.7098017194731  17.3650105025635 12.7098017194731  C 17.3650105025635 12.7098017194731  14.5404751717137 12.7098017194731  14.5404751717137 12.7098017194731  Z M 21.0543252367458 12.2486632492282  C 21.0543252367458 12.2486632492282  21.054198874757 8.55946507308722  21.054198874757 8.55946507308722  C 21.054198874757 8.55946507308722  21.054198874757 4.8126331938528  21.054198874757 4.8126331938528  C 21.054198874757 4.8126331938528  15.4627717200983 4.8126331938528  15.4627717200983 4.8126331938528  C 15.4627717200983 4.8126331938528  9.92898916180797 4.8126331938528  9.92898916180797 4.8126331938528  C 9.92898916180797 4.8126331938528  9.92898916180797 8.09831570956741  9.92898916180797 8.09831570956741  C 9.92898916180797 8.09831570956741  9.92898916180797 11.3263558075687  9.92898916180797 11.3263558075687  C 9.92898916180797 11.3263558075687  9.46783979828815 11.3263558075687  9.46783979828815 11.3263558075687  C 9.46783979828815 11.3263558075687  9.00669261342332 11.3263558075687  9.00669261342332 11.3263558075687  C 9.00669261342332 11.3263558075687  9.00669261342332 7.77865691502826  9.00669261342332 7.77865691502826  C 9.00669261342332 7.77865691502826  9.00669261342332 4.17331342611952  9.00669261342332 4.17331342611952  C 9.00669261342332 4.17331342611952  9.148181003749 4.03182503579384  9.148181003749 4.03182503579384  C 9.2896476075249 3.89035843201794  9.28986329436786 3.89033664546815  10.5316269156535 3.89033664546815  C 10.5316269156535 3.89033664546815  11.7735844372322 3.89033664546815  11.7735844372322 3.89033664546815  C 11.7735844372322 3.89033664546815  11.7735844372322 3.42918706408284  11.7735844372322 3.42918706408284  C 11.7735844372322 3.42918706408284  11.7735844372322 2.96803857202501  11.7735844372322 2.96803857202501  C 11.7735844372322 2.96803857202501  10.2892624424727 2.96899718021594  10.2892624424727 2.96899718021594  C 8.85637413446621 2.96991221530728  8.79699053569333 2.97444817497434  8.57554115031455 3.09987007415461  C 8.44691771764208 3.17271819643104  8.28906327111131 3.33057133576882  8.21621558456588 3.45919411484479  C 8.21621558456588 3.45919411484479  8.08629149487073 3.68859319437783  8.08629149487073 3.68859319437783  C 8.08629149487073 3.68859319437783  8.08542003287898 7.53630333512235  8.08542003287898 7.53630333512235  C 8.08542003287898 7.53630333512235  8.08454857088723 11.3263667008436  8.08454857088723 11.3263667008436  C 8.08454857088723 11.3263667008436  7.62185889829699 11.3263667008436  7.62185889829699 11.3263667008436  C 7.62185889829699 11.3263667008436  7.15917140436174 11.3263667008436  7.15917140436174 11.3263667008436  C 7.15917140436174 11.3263667008436  7.17511915881078 7.39219402285647  7.17511915881078 7.39219402285647  C 7.17511915881078 7.39219402285647  7.19106691325982 3.40037565917356  7.19106691325982 3.40037565917356  C 7.19106691325982 3.40037565917356  7.3321544310693 3.11366117803957  7.3321544310693 3.11366117803957  C 7.51210915371087 2.7479650072657  7.86445866621557 2.39561658408849  8.23015461912394 2.21566207931242  C 8.23015461912394 2.21566207931242  8.51686779306494 2.07457347217545  8.51686779306494 2.07457347217545  C 8.51686779306494 2.07457347217545  11.0031227116703 2.05787190310354  11.0031227116703 2.05787190310354  C 11.0031227116703 2.05787190310354  13.4893765409483 2.04117033403164  13.4893765409483 2.04117033403164  C 13.4893765409483 2.04117033403164  13.3245373265536 1.39497037387349  13.3245373265536 1.39497037387349  C 13.1225694740004 0.603216522478843  13.1205433248696 0.520766196246308  13.2986636200185 0.342645029635383  C 13.2986636200185 0.342645029635383  13.4401520103442 0.201156203578699  13.4401520103442 0.201156203578699  C 13.4401520103442 0.201156203578699  15.5205611970228 0.201156203578699  15.5205611970228 0.201156203578699  C 15.5205611970228 0.201156203578699  17.5433268766605 0.201156203578699  17.5433268766605 0.201156203578699  C 17.5433268766605 0.201156203578699  17.6848152669862 0.342645029635383  17.6848152669862 0.342645029635383  C 17.8629377407901 0.520766196246308  17.8609094130043 0.603216522478843  17.6589415604511 1.39497037387349  C 17.6589415604511 1.39497037387349  17.4941045247115 2.04117033403164  17.4941045247115 2.04117033403164  C 17.4941045247115 2.04117033403164  19.9803572646619 2.05787190310354  19.9803572646619 2.05787190310354  C 22.3916891099885 2.07407020287521  22.474772117627 2.07834254528977  22.7373283651567 2.19966160141288  C 23.083281346642 2.35951605321472  23.4710274665966 2.74726043024537  23.6513285953799 3.11366052444307  C 23.6513285953799 3.11366052444307  23.7924161131894 3.40037500557707  23.7924161131894 3.40037500557707  C 23.7924161131894 3.40037500557707  23.808298507989 7.62276761528889  23.808298507989 7.62276761528889  C 23.808298507989 7.62276761528889  23.8241809027887 11.7875160643634  23.8241809027887 11.7875160643634  C 23.8241809027887 11.7875160643634  23.3615718404327 11.7875160643634  23.3615718404327 11.7875160643634  C 23.3615718404327 11.7875160643634  22.8989605994217 11.7875160643634  22.8989605994217 11.7875160643634  C 22.8989605994217 11.7875160643634  22.8976534064341 7.79569835427695  22.8976534064341 7.79569835427695  C 22.8965640789444 4.02745966481166  22.890376698803 3.73300289747745  22.7890823141918 3.50996091530874  C 22.7300647294555 3.38000719590587  22.5944521716092 3.21139977985888  22.4877198641695 3.13527626768646  C 22.2961115160432 2.99861708398806  22.2741964256057 2.99665476944814  20.7516948095255 2.97981267713006  C 20.7516948095255 2.97981267713006  19.2097321399765 2.96275598729652  19.2097321399765 2.96275598729652  C 19.2097321399765 2.96275598729652  19.2097321399765 3.42655110942329  19.2097321399765 3.42655110942329  C 19.2097321399765 3.42655110942329  19.2097321399765 3.89034753874304  19.2097321399765 3.89034753874304  C 19.2097321399765 3.89034753874304  20.4516874829003 3.89034753874304  20.4516874829003 3.89034753874304  C 21.6934519756479 3.89034753874304  21.6936676624909 3.89036932529284  21.8351342662668 4.03183592906873  C 21.8351342662668 4.03183592906873  21.9766226565925 4.17332431939442  21.9766226565925 4.17332431939442  C 21.9766226565925 4.17332431939442  21.9766226565925 8.23981717182297  21.9766226565925 8.23981717182297  C 21.9766226565925 8.23981717182297  21.9766226565925 12.2486632492282  21.9766226565925 12.2486632492282  C 21.9766226565925 12.2486632492282  21.5154754717276 12.2486632492282  21.5154754717276 12.2486632492282  C 21.5154754717276 12.2486632492282  21.0543252367458 12.2486632492282  21.0543252367458 12.2486632492282  Z M 18.2873070509481 3.947980152509  C 18.2873070509481 3.947980152509  18.2873070509481 3.48683057112369  18.2873070509481 3.48683057112369  C 18.2873070509481 3.48683057112369  18.2873070509481 3.02568207906587  18.2873070509481 3.02568207906587  C 18.2873070509481 3.02568207906587  17.5064988928891 3.02568207906587  17.5064988928891 3.02568207906587  C 16.7543509410839 3.02568207906587  16.7204968213593 3.02048816559503  16.5842023445045 2.88419325300918  C 16.4060101537412 2.70600040864944  16.4080711613517 2.56612444087399  16.6106555732641 1.7719343303352  C 16.6106555732641 1.7719343303352  16.7760721312283 1.12344403734343  16.7760721312283 1.12344403734343  C 16.7760721312283 1.12344403734343  15.4627717200983 1.12344403734343  15.4627717200983 1.12344403734343  C 15.4627717200983 1.12344403734343  14.2071148160092 1.12344403734343  14.2071148160092 1.12344403734343  C 14.2071148160092 1.12344403734343  14.3725335526284 1.7719343303352  14.3725335526284 1.7719343303352  C 14.5751157858858 2.56612444087399  14.5771789721512 2.70600040864944  14.398986781388 2.88419325300918  C 14.2626901258782 3.02048860132603  14.2288381848086 3.02568207906587  13.4766880543484 3.02568207906587  C 13.4766880543484 3.02568207906587  12.6958809856169 3.02568207906587  12.6958809856169 3.02568207906587  C 12.6958809856169 3.02568207906587  12.6958809856169 3.48683057112369  12.6958809856169 3.48683057112369  C 12.6958809856169 3.48683057112369  12.6958809856169 3.947980152509  12.6958809856169 3.947980152509  C 12.6958809856169 3.947980152509  15.4627717200983 3.947980152509  15.4627717200983 3.947980152509  C 15.4627717200983 3.947980152509  18.2873070509481 3.947980152509  18.2873070509481 3.947980152509  Z M 14.5404751717137 10.8652064440488  C 14.5404751717137 10.8652064440488  14.5404751717137 10.404059259184  14.5404751717137 10.404059259184  C 14.5404751717137 10.404059259184  14.5404751717137 9.88526638862334  14.5404751717137 9.88526638862334  C 14.5404751717137 9.88526638862334  15.0592680422743 9.88526638862334  15.0592680422743 9.88526638862334  C 15.0592680422743 9.88526638862334  15.5204152271392 9.88526638862334  15.5204152271392 9.88526638862334  C 15.5204152271392 9.88526638862334  15.5204152271392 10.404059259184  15.5204152271392 10.404059259184  C 15.5204152271392 10.404059259184  15.5204152271392 10.8652064440488  15.5204152271392 10.8652064440488  C 15.5204152271392 10.8652064440488  15.0592680422743 10.8652064440488  15.0592680422743 10.8652064440488  C 15.0592680422743 10.8652064440488  14.5404751717137 10.8652064440488  14.5404751717137 10.8652064440488  Z M 16.385070447138 10.8652064440488  C 16.385070447138 10.8652064440488  16.385070447138 10.404059259184  16.385070447138 10.404059259184  C 16.385070447138 10.404059259184  16.385070447138 9.88526638862334  16.385070447138 9.88526638862334  C 16.385070447138 9.88526638862334  18.2296635439073 9.88526638862334  18.2296635439073 9.88526638862334  C 18.2296635439073 9.88526638862334  20.1319023263724 9.88526638862334  20.1319023263724 9.88526638862334  C 20.1319023263724 9.88526638862334  20.1319023263724 10.404059259184  20.1319023263724 10.404059259184  C 20.1319023263724 10.404059259184  20.1319023263724 10.8652064440488  20.1319023263724 10.8652064440488  C 20.1319023263724 10.8652064440488  18.2296635439073 10.8652064440488  18.2296635439073 10.8652064440488  C 18.2296635439073 10.8652064440488  16.385070447138 10.8652064440488  16.385070447138 10.8652064440488  Z M 12.2347316220971 8.55946507308722  C 11.1431927976045 8.55946507308722  11.1331165183248 8.55837574559753  10.9927762791733 8.41797668276154  C 10.8524338613667 8.27763644360998  10.8512857101926 8.26756016433036  10.8512857101926 7.17601916118276  C 10.8512857101926 5.69432898163827  10.7530436212076 5.73492974223745  12.2347316220971 5.73492974223745  C 13.7164207123141 5.73492974223745  13.6758221303699 5.69432898163827  13.6758221303699 7.17601916118276  C 13.6758221303699 8.65770934072725  13.7164207123141 8.55946507308722  12.2347316220971 8.55946507308722  Z M 12.7535244926577 7.63716852470257  C 12.7535244926577 7.63716852470257  12.7535244926577 7.11837565414191  12.7535244926577 7.11837565414191  C 12.7535244926577 7.11837565414191  12.7535244926577 6.65722846927707  12.7535244926577 6.65722846927707  C 12.7535244926577 6.65722846927707  12.2347316220971 6.65722846927707  12.2347316220971 6.65722846927707  C 12.2347316220971 6.65722846927707  11.7735844372322 6.65722846927707  11.7735844372322 6.65722846927707  C 11.7735844372322 6.65722846927707  11.7735844372322 7.11837565414191  11.7735844372322 7.11837565414191  C 11.7735844372322 7.11837565414191  11.7735844372322 7.63716852470257  11.7735844372322 7.63716852470257  C 11.7735844372322 7.63716852470257  12.2347316220971 7.63716852470257  12.2347316220971 7.63716852470257  C 12.2347316220971 7.63716852470257  12.7535244926577 7.63716852470257  12.7535244926577 7.63716852470257  Z M 14.5404751717137 8.55946507308722  C 14.5404751717137 8.55946507308722  14.5404751717137 8.04067220252655  14.5404751717137 8.04067220252655  C 14.5404751717137 8.04067220252655  14.5404751717137 7.57952501766172  14.5404751717137 7.57952501766172  C 14.5404751717137 7.57952501766172  17.3650105025635 7.57952501766172  17.3650105025635 7.57952501766172  C 17.3650105025635 7.57952501766172  20.1319023263724 7.57952501766172  20.1319023263724 7.57952501766172  C 20.1319023263724 7.57952501766172  20.1319023263724 8.04067220252655  20.1319023263724 8.04067220252655  C 20.1319023263724 8.04067220252655  20.1319023263724 8.55946507308722  20.1319023263724 8.55946507308722  C 20.1319023263724 8.55946507308722  17.3650105025635 8.55946507308722  17.3650105025635 8.55946507308722  C 17.3650105025635 8.55946507308722  14.5404751717137 8.55946507308722  14.5404751717137 8.55946507308722  Z M 14.5404751717137 6.71487197631793  C 14.5404751717137 6.71487197631793  14.5404751717137 6.25372261279811  14.5404751717137 6.25372261279811  C 14.5404751717137 6.25372261279811  14.5404751717137 5.73492974223745  14.5404751717137 5.73492974223745  C 14.5404751717137 5.73492974223745  15.0592680422743 5.73492974223745  15.0592680422743 5.73492974223745  C 15.0592680422743 5.73492974223745  15.5204152271392 5.73492974223745  15.5204152271392 5.73492974223745  C 15.5204152271392 5.73492974223745  15.5204152271392 6.25372261279811  15.5204152271392 6.25372261279811  C 15.5204152271392 6.25372261279811  15.5204152271392 6.71487197631793  15.5204152271392 6.71487197631793  C 15.5204152271392 6.71487197631793  15.0592680422743 6.71487197631793  15.0592680422743 6.71487197631793  C 15.0592680422743 6.71487197631793  14.5404751717137 6.71487197631793  14.5404751717137 6.71487197631793  Z M 16.385070447138 6.71487197631793  C 16.385070447138 6.71487197631793  16.385070447138 6.25372261279811  16.385070447138 6.25372261279811  C 16.385070447138 6.25372261279811  16.385070447138 5.73492974223745  16.385070447138 5.73492974223745  C 16.385070447138 5.73492974223745  18.2296635439073 5.73492974223745  18.2296635439073 5.73492974223745  C 18.2296635439073 5.73492974223745  20.1319023263724 5.73492974223745  20.1319023263724 5.73492974223745  C 20.1319023263724 5.73492974223745  20.1319023263724 6.25372261279811  20.1319023263724 6.25372261279811  C 20.1319023263724 6.25372261279811  20.1319023263724 6.71487197631793  20.1319023263724 6.71487197631793  C 20.1319023263724 6.71487197631793  18.2296635439073 6.71487197631793  18.2296635439073 6.71487197631793  C 18.2296635439073 6.71487197631793  16.385070447138 6.71487197631793  16.385070447138 6.71487197631793  Z " fill-rule="nonzero" fill="#ffffff" stroke="none" fill-opacity="0.996078431372549" transform="matrix(1 0 0 1 15 189 )" />
  </g>
</svg>