<?xml version="1.0" encoding="utf-8"?>
<svg version="1.1" xmlns:xlink="http://www.w3.org/1999/xlink" width="28px" height="28px" xmlns="http://www.w3.org/2000/svg">
  <g transform="matrix(1 0 0 1 -15 -305 )">
    <path d="M 4.17862216588036 27.5898430366673  C 4.17862216588036 27.5898430366673  4.04438917705735 27.4556104612301  4.04438917705735 27.4556104612301  C 3.95977468110791 27.3709965853593  3.91015618823435 27.2588946196138  3.91015618823435 27.1523444253852  C 3.91015618823435 27.0457921642276  3.95977468110791 26.933690198482  4.04438917705735 26.8490763226113  C 4.04438917705735 26.8490763226113  4.17862216588036 26.7148437471741  4.17862216588036 26.7148437471741  C 4.17862216588036 26.7148437471741  6.45063939343899 26.7148437471741  6.45063939343899 26.7148437471741  C 6.45063939343899 26.7148437471741  8.72265620761181 26.7148437471741  8.72265620761181 26.7148437471741  C 8.72265620761181 26.7148437471741  8.72265620761181 26.2013710235883  8.72265620761181 26.2013710235883  C 8.72265620761181 25.4328557865931  8.7176480384437 25.4366920069712  9.76575801265359 25.4023437794699  C 9.76575801265359 25.4023437794699  10.6001022539345 25.3750003746309  10.6001022539345 25.3750003746309  C 10.6001022539345 25.3750003746309  10.8873220992293 24.5148457698119  10.8873220992293 24.5148457698119  C 10.8873220992293 24.5148457698119  11.1745419445241 23.6546932319219  11.1745419445241 23.6546932319219  C 11.1745419445241 23.6546932319219  6.46227103685357 23.639852681106  6.46227103685357 23.639852681106  C 6.46227103685357 23.639852681106  1.75000002583661 23.6250121302901  1.75000002583661 23.6250121302901  C 1.75000002583661 23.6250121302901  1.44448930500765 23.4817408739729  1.44448930500765 23.4817408739729  C 1.07240740766714 23.3072383192117  0.787810660733005 23.0317270070933  0.587885622345334 22.652468256583  C 0.587885622345334 22.652468256583  0.43750003746309 22.3671865706893  0.43750003746309 22.3671865706893  C 0.43750003746309 22.3671865706893  0.43750003746309 15.3398436825826  0.43750003746309 15.3398436825826  C 0.43750003746309 15.3398436825826  0.43750003746309 8.25781253794753  0.43750003746309 8.25781253794753  C 0.43750003746309 8.25781253794753  0.587885622345334 7.97253126543968  0.587885622345334 7.97253126543968  C 0.778876421779616 7.61022174679572  1.0477215982352 7.34137628097007  1.41003109620986 7.15038583291374  C 1.41003109620986 7.15038583291374  1.69531253407203 7  1.69531253407203 7  C 1.69531253407203 7  3.45898442768247 6.98289822876727  3.45898442768247 6.98289822876727  C 3.45898442768247 6.98289822876727  5.22265636263149 6.96579645753454  5.22265636263149 6.96579645753454  C 5.22265636263149 6.96579645753454  5.22265636263149 5.35345969602708  5.22265636263149 5.35345969602708  C 5.22265636263149 5.35345969602708  5.22265636263149 3.74112210774798  5.22265636263149 3.74112210774798  C 5.22265636263149 3.74112210774798  5.35688914476159 3.60688911892497  5.35688914476159 3.60688911892497  C 5.49003327534367 3.4737451950358  5.49959220227381 3.47265633679487  6.53515633033572 3.47265633679487  C 7.57072045839763 3.47265633679487  7.58027917863486 3.47375180920886  7.71342310252404 3.60688911892497  C 7.71342310252404 3.60688911892497  7.84765629803995 3.74112210774798  7.84765629803995 3.74112210774798  C 7.84765629803995 3.74112210774798  7.84765629803995 5.35688914476159  7.84765629803995 5.35688914476159  C 7.84765629803995 5.35688914476159  7.84765629803995 6.97265618177519  7.84765629803995 6.97265618177519  C 7.84765629803995 6.97265618177519  8.06640622375969 6.97265618177519  8.06640622375969 6.97265618177519  C 8.06640622375969 6.97265618177519  8.28515635617233 6.97265618177519  8.28515635617233 6.97265618177519  C 8.28515635617233 6.97265618177519  8.28515635617233 3.82563925133762  8.28515635617233 3.82563925133762  C 8.28515635617233 3.82563925133762  8.28515635617233 0.678622196884296  8.28515635617233 0.678622196884296  C 8.28515635617233 0.678622196884296  8.41938955168825 0.544389208061289  8.41938955168825 0.544389208061289  C 8.55253326888452 0.411245304841405  8.56209219581466 0.410156281246155  9.59765632387657 0.410156281246155  C 10.6332204519385 0.410156281246155  10.6427791721757 0.411245552872895  10.7759230960649 0.544389208061289  C 10.7759230960649 0.544389208061289  10.9101562915808 0.678622196884296  10.9101562915808 0.678622196884296  C 10.9101562915808 0.678622196884296  10.9101562915808 3.82563925133762  10.9101562915808 3.82563925133762  C 10.9101562915808 3.82563925133762  10.9101562915808 6.97265618177519  10.9101562915808 6.97265618177519  C 10.9101562915808 6.97265618177519  11.1289062173005 6.97265618177519  11.1289062173005 6.97265618177519  C 11.1289062173005 6.97265618177519  11.3476563497132 6.97265618177519  11.3476563497132 6.97265618177519  C 11.3476563497132 6.97265618177519  11.3476563497132 4.70063916090947  11.3476563497132 4.70063916090947  C 11.3476563497132 4.70063916090947  11.3476563497132 2.42862214004375  11.3476563497132 2.42862214004375  C 11.3476563497132 2.42862214004375  11.4818895452291 2.29438915122074  11.4818895452291 2.29438915122074  C 11.6150332624254 2.16124522733156  11.6245921893555 2.16015636909064  12.6601563174174 2.16015636909064  C 13.6957204454793 2.16015636909064  13.7052791657166 2.16125184150463  13.8384230896057 2.29438915122074  C 13.8384230896057 2.29438915122074  14.0273437148784 2.42862214004375  14.0273437148784 2.42862214004375  C 14.0273437148784 2.42862214004375  14.0273437148784 4.70063916090947  14.0273437148784 4.70063916090947  C 14.0273437148784 4.70063916090947  14.0273437148784 6.97265618177519  14.0273437148784 6.97265618177519  C 14.0273437148784 6.97265618177519  16.7097945642275 6.97265618177519  16.7097945642275 6.97265618177519  C 16.7097945642275 6.97265618177519  19.3922447934979 6.97265618177519  19.3922447934979 6.97265618177519  C 19.3922447934979 6.97265618177519  19.1373502722109 6.6154534248166  19.1373502722109 6.6154534248166  C 17.9994706742256 5.02085773570724  18.2209534935789 2.83189736634111  19.6557807318952 1.49169937077511  C 20.1126663112041 1.06494655844128  20.5058780731821 0.828882443186948  21.1224343375385 0.611197151299283  C 21.5689116887571 0.453560489823807  21.6518740882905 0.442155071797366  22.3398431658503 0.443829139669559  C 22.9813166736881 0.445389671127223  23.1331016108981 0.463861609649075  23.4973957948475 0.58469767360488  C 24.91178089784 1.05385008430487  25.9264301838969 2.19509532492384  26.1998993700812 3.62438732715582  C 26.397251825855 4.6558517013816  26.157209016801 5.7537878948379  25.5475620829832 6.60813070846135  C 25.5475620829832 6.60813070846135  25.2978935851896 6.95801033567888  25.2978935851896 6.95801033567888  C 25.2978935851896 6.95801033567888  25.8012900294958 6.98455735274219  25.8012900294958 6.98455735274219  C 26.2028013385138 7.00573138765425  26.3624261377356 7.04041797144641  26.5899681596957 7.15593760443067  C 26.9655105717148 7.34659527690464  27.243159088505 7.6315406734365  27.4192283755111 8.00698945356817  C 27.4192283755111 8.00698945356817  27.5624996318283 8.31249996770423  27.5624996318283 8.31249996770423  C 27.5624996318283 8.31249996770423  27.5624996318283 15.3398436825826  27.5624996318283 15.3398436825826  C 27.5624996318283 15.3398436825826  27.5624996318283 22.3124997610113  27.5624996318283 22.3124997610113  C 27.5624996318283 22.3124997610113  27.4192283755111 22.6180104818403  27.4192283755111 22.6180104818403  C 27.2371174547953 23.0063471848832  26.9438470879959 23.2996154847536  26.555510384953 23.4817284723984  C 26.555510384953 23.4817284723984  26.249999664124 23.6249997287156  26.249999664124 23.6249997287156  C 26.249999664124 23.6249997287156  21.537729996611 23.6398402795315  21.537729996611 23.6398402795315  C 21.537729996611 23.6398402795315  16.8254580554759 23.6546808303474  16.8254580554759 23.6546808303474  C 16.8254580554759 23.6546808303474  17.1126779007707 24.5148333682374  17.1126779007707 24.5148333682374  C 17.1126779007707 24.5148333682374  17.3998977460655 25.3749879730564  17.3998977460655 25.3749879730564  C 17.3998977460655 25.3749879730564  18.2342419873464 25.4023313778954  18.2342419873464 25.4023313778954  C 19.2823519615563 25.4366796053967  19.2773437923882 25.4328433850186  19.2773437923882 26.2013586220138  C 19.2773437923882 26.2013586220138  19.2773437923882 26.7148313455996  19.2773437923882 26.7148313455996  C 19.2773437923882 26.7148313455996  21.549360606561 26.7148313455996  21.549360606561 26.7148313455996  C 21.549360606561 26.7148313455996  23.8213786608913 26.7148313455996  23.8213786608913 26.7148313455996  C 23.8213786608913 26.7148313455996  23.9556112363285 26.8490639210368  23.9556112363285 26.8490639210368  C 24.1331997162106 27.026652400919  24.1331997162106 27.2780095797734  23.9556112363285 27.4555980596556  C 23.9556112363285 27.4555980596556  23.8213786608913 27.5898430366673  23.8213786608913 27.5898430366673  C 23.8213786608913 27.5898430366673  14.0273437148784 27.5898430366673  14.0273437148784 27.5898430366673  C 14.0273437148784 27.5898430366673  4.17862216588036 27.5898430366673  4.17862216588036 27.5898430366673  Z M 18.4023436761234 26.7148437471741  C 18.4023436761234 26.7148437471741  18.4023436761234 26.4960944415331  18.4023436761234 26.4960944415331  C 18.4023436761234 26.4960944415331  18.4023436761234 26.2226556392063  18.4023436761234 26.2226556392063  C 18.4023436761234 26.2226556392063  14.0273437148784 26.2226556392063  14.0273437148784 26.2226556392063  C 14.0273437148784 26.2226556392063  9.59765632387657 26.2226556392063  9.59765632387657 26.2226556392063  C 9.59765632387657 26.2226556392063  9.59765632387657 26.4960944415331  9.59765632387657 26.4960944415331  C 9.59765632387657 26.4960944415331  9.59765632387657 26.7148437471741  9.59765632387657 26.7148437471741  C 9.59765632387657 26.7148437471741  14.0273437148784 26.7148437471741  14.0273437148784 26.7148437471741  C 14.0273437148784 26.7148437471741  18.4023436761234 26.7148437471741  18.4023436761234 26.7148437471741  Z M 16.4800140580705 25.4023437794699  C 16.4800140580705 25.4023437794699  16.1922642521589 24.5410151589317  16.1922642521589 24.5410151589317  C 16.1922642521589 24.5410151589317  15.9045146529401 23.6249991086368  15.9045146529401 23.6249991086368  C 15.9045146529401 23.6249991086368  14.0273437148784 23.6249991086368  14.0273437148784 23.6249991086368  C 14.0273437148784 23.6249991086368  12.0954853470599 23.6249991086368  12.0954853470599 23.6249991086368  C 12.0954853470599 23.6249991086368  11.8077357478411 24.5410151589317  11.8077357478411 24.5410151589317  C 11.8077357478411 24.5410151589317  11.5199859419295 25.4023437794699  11.5199859419295 25.4023437794699  C 11.5199859419295 25.4023437794699  14.0273437148784 25.4023437794699  14.0273437148784 25.4023437794699  C 14.0273437148784 25.4023437794699  16.4800140580705 25.4023437794699  16.4800140580705 25.4023437794699  Z M 26.1599538986232 22.7500066400097  C 26.1599538986232 22.7500066400097  26.3109740720725 22.6372453238867  26.3109740720725 22.6372453238867  C 26.6384975876354 22.3927090110062  26.6860100864663 22.2162856590481  26.7060096922734 21.5704033914763  C 26.7060096922734 21.5704033914763  26.7245211091407 20.9726557683894  26.7245211091407 20.9726557683894  C 26.7245211091407 20.9726557683894  13.9774949661049 20.9726557683894  13.9774949661049 20.9726557683894  C 13.9774949661049 20.9726557683894  1.28515629416446 20.9726557683894  1.28515629416446 20.9726557683894  C 1.28515629416446 20.9726557683894  1.28515629416446 21.4886274092365  1.28515629416446 21.4886274092365  C 1.28515629416446 22.04285790741  1.33346733037728 22.2927605882687  1.52122100882822 22.4972067446553  C 1.79011839591244 22.790009985482  1.10367787441738 22.7743467968911  14.0916961050272 22.7617261279103  C 14.0916961050272 22.7617261279103  26.1599538986232 22.7500066400097  26.1599538986232 22.7500066400097  Z M 2.42862214004375 22.3398431658503  C 2.42862214004375 22.3398431658503  2.29438915122074 22.2056105904131  2.29438915122074 22.2056105904131  C 2.20977465527129 22.1209967145424  2.16015636909064 22.0088947487969  2.16015636909064 21.9023445545683  C 2.16015636909064 21.7957922934106  2.20977465527129 21.6290028979084  2.29438915122074 21.5443890220377  C 2.29438915122074 21.5443890220377  2.42862214004375 21.4101564466005  2.42862214004375 21.4101564466005  C 2.42862214004375 21.4101564466005  3.96484361799105 21.4101564466005  3.96484361799105 21.4101564466005  C 3.96484361799105 21.4101564466005  5.44637787287456 21.4101564466005  5.44637787287456 21.4101564466005  C 5.44637787287456 21.4101564466005  5.58061044831175 21.5443890220377  5.58061044831175 21.5443890220377  C 5.75819996165847 21.7219775019198  5.75819996165847 22.028022110531  5.58061044831175 22.2056105904131  C 5.58061044831175 22.2056105904131  5.44637787287456 22.3398431658503  5.44637787287456 22.3398431658503  C 5.44637787287456 22.3398431658503  3.96484361799105 22.3398431658503  3.96484361799105 22.3398431658503  C 3.96484361799105 22.3398431658503  2.42862214004375 22.3398431658503  2.42862214004375 22.3398431658503  Z M 6.80859368581216 22.3398431658503  C 6.46978887131425 22.3398431658503  6.34916785066024 22.3228943473697  6.23188946771926 22.2056105904131  C 6.1472747650769 22.1209967145424  6.09765627220334 22.0088947487969  6.09765627220334 21.9023445545683  C 6.09765627220334 21.7957922934106  6.1472747650769 21.6290028979084  6.23188946771926 21.5443890220377  C 6.34916785066024 21.4271114658683  6.46978887131425 21.4101564466005  6.80859368581216 21.4101564466005  C 7.14739870700299 21.4101564466005  7.21333209120738 21.4271052650811  7.33061047414837 21.5443890220377  C 7.41522517679072 21.6290028979084  7.46484366966428 21.7957922934106  7.46484366966428 21.9023445545683  C 7.46484366966428 22.0088947487969  7.41522517679072 22.1209967145424  7.33061047414837 22.2056105904131  C 7.21333209120738 22.3228902135116  7.14739870700299 22.3398431658503  6.80859368581216 22.3398431658503  Z M 26.7163009321776 20.15234370196  C 26.7163009321776 20.15234370196  26.7019006372564 14.3047789245871  26.7019006372564 14.3047789245871  C 26.687597488002 8.49529628210393  26.6867707163688 8.401542859214  26.5747452269994 8.25151687865362  C 26.3061746627418 7.89182636585073  26.2519942506891 7.8765974390601  25.1740328598909 7.85781236078218  C 24.2139029622563 7.8410805698553  24.1780872151061 7.844484802055  23.82433436948 7.98610582219228  C 22.8589338026837 8.37259345047752  21.8023485924619 8.37022495644131  20.84056721849 7.97941723967969  C 20.84056721849 7.97941723967969  20.5162989095399 7.84765629803995  20.5162989095399 7.84765629803995  C 20.5162989095399 7.84765629803995  17.2718213122091 7.84765629803995  17.2718213122091 7.84765629803995  C 17.2718213122091 7.84765629803995  14.0273437148784 7.84765629803995  14.0273437148784 7.84765629803995  C 14.0273437148784 7.84765629803995  14.0273437148784 9.59765632387657  14.0273437148784 9.59765632387657  C 14.0273437148784 9.59765632387657  14.0273437148784 11.3476563497132  14.0273437148784 11.3476563497132  C 14.0273437148784 11.3476563497132  14.2460936405981 11.3476563497132  14.2460936405981 11.3476563497132  C 14.2460936405981 11.3476563497132  14.4648437730107 11.3476563497132  14.4648437730107 11.3476563497132  C 14.4648437730107 11.3476563497132  14.4648437730107 9.95063944511222  14.4648437730107 9.95063944511222  C 14.4648437730107 9.95063944511222  14.4648437730107 8.55362212712544  14.4648437730107 8.55362212712544  C 14.4648437730107 8.55362212712544  14.5990769685267 8.41938955168825  14.5990769685267 8.41938955168825  C 14.7322206857229 8.28624521441326  14.7417796126531 8.28515635617233  15.777343740715 8.28515635617233  C 16.8129078687769 8.28515635617233  16.8224665890141 8.28625182858632  16.9556105129033 8.41938955168825  C 16.9556105129033 8.41938955168825  17.0898437084192 8.55362212712544  17.0898437084192 8.55362212712544  C 17.0898437084192 8.55362212712544  17.0898437084192 10.2539063077287  17.0898437084192 10.2539063077287  C 17.0898437084192 10.2539063077287  17.0898437084192 11.9541904883319  17.0898437084192 11.9541904883319  C 17.0898437084192 11.9541904883319  16.9556105129033 12.0884230637691  16.9556105129033 12.0884230637691  C 16.9556105129033 12.0884230637691  16.8213779374661 12.222656259285  16.8213779374661 12.222656259285  C 16.8213779374661 12.222656259285  9.59765632387657 12.222656259285  9.59765632387657 12.222656259285  C 9.59765632387657 12.222656259285  2.42862214004375 12.222656259285  2.42862214004375 12.222656259285  C 2.42862214004375 12.222656259285  2.29438915122074 12.0884230637691  2.29438915122074 12.0884230637691  C 2.29438915122074 12.0884230637691  2.16015636909064 11.9541904883319  2.16015636909064 11.9541904883319  C 2.16015636909064 11.9541904883319  2.16015636909064 10.2539063077287  2.16015636909064 10.2539063077287  C 2.16015636909064 10.2539063077287  2.16015636909064 8.55362212712544  2.16015636909064 8.55362212712544  C 2.16015636909064 8.55362212712544  2.29438915122074 8.41938955168825  2.29438915122074 8.41938955168825  C 2.42753307510992 8.28624521441326  2.43709220873297 8.28515635617233  3.47265633679487 8.28515635617233  C 4.50822025816387 8.28515635617233  4.51777939178692 8.28625182858632  4.6509233156761 8.41938955168825  C 4.6509233156761 8.41938955168825  4.78515630449911 8.55362212712544  4.78515630449911 8.55362212712544  C 4.78515630449911 8.55362212712544  4.78515630449911 9.95063944511222  4.78515630449911 9.95063944511222  C 4.78515630449911 9.95063944511222  4.78515630449911 11.3476563497132  4.78515630449911 11.3476563497132  C 4.78515630449911 11.3476563497132  5.00390623021884 11.3476563497132  5.00390623021884 11.3476563497132  C 5.00390623021884 11.3476563497132  5.22265636263149 11.3476563497132  5.22265636263149 11.3476563497132  C 5.22265636263149 11.3476563497132  5.22265636263149 9.59541783967968  5.22265636263149 9.59541783967968  C 5.22265636263149 9.59541783967968  5.22265636263149 7.84317953633909  5.22265636263149 7.84317953633909  C 5.22265636263149 7.84317953633909  3.53125129598299 7.85908868949093  3.53125129598299 7.85908868949093  C 1.92147777456994 7.87423225211043  1.83256251593104 7.88044192715448  1.6889272320638 7.98775419813597  C 1.60592171638972 8.049768684799  1.48726882560854 8.16846250077602  1.42525411158331 8.25151687865362  C 1.313234388946 8.401542859214  1.31240625313961 8.49529628210393  1.29809928006645 14.3047789245871  C 1.29809928006645 14.3047789245871  1.28369848908222 20.15234370196  1.28369848908222 20.15234370196  C 1.28369848908222 20.15234370196  14.0273437148784 20.15234370196  14.0273437148784 20.15234370196  C 14.0273437148784 20.15234370196  26.7163009321776 20.15234370196  26.7163009321776 20.15234370196  Z M 10.0782609478774 19.6495654761426  C 9.80851264742833 19.5778405566476  9.41891181055827 19.227451844797  9.27976986516314 18.9314399032618  C 9.27976986516314 18.9314399032618  9.16754016320029 18.692681277247  9.16754016320029 18.692681277247  C 9.16754016320029 18.692681277247  6.91396180329818 17.753694823974  6.91396180329818 17.753694823974  C 6.91396180329818 17.753694823974  4.66038365008898 16.8147075439294  4.66038365008898 16.8147075439294  C 4.66038365008898 16.8147075439294  4.47080016065945 17.0361930502905  4.47080016065945 17.0361930502905  C 3.94588987829995 17.6494325135474  3.13125669952616 17.6854129949455  2.56845960707531 17.1202149576719  C 2.01524343368003 16.5646386819725  2.01524343368003 15.8091756887506  2.56845960707531 15.2559596393711  C 2.95250453857026 14.8719145011832  3.36624669374393 14.7622306357719  3.86603200624921 14.9119699332685  C 4.15081101498989 14.9972917323501  4.52644457858158 15.3351412122259  4.66554270508015 15.6310601419523  C 4.66554270508015 15.6310601419523  4.77777261373591 15.8698187679671  4.77777261373591 15.8698187679671  C 4.77777261373591 15.8698187679671  7.02279926125002 16.8599298853364  7.02279926125002 16.8599298853364  C 7.02279926125002 16.8599298853364  9.26782549537831 17.795353572949  9.26782549537831 17.795353572949  C 9.26782549537831 17.795353572949  9.55578798829262 17.5091049776303  9.55578798829262 17.5091049776303  C 10.0959278175215 16.9721792231255  10.7804790211496 16.9470939383097  11.3357989976427 17.4438774497077  C 11.3357989976427 17.4438774497077  11.5937500936577 17.6746374735571  11.5937500936577 17.6746374735571  C 11.5937500936577 17.6746374735571  13.8899698206208 15.8920064249014  13.8899698206208 15.8920064249014  C 15.92507377645 14.3605558326635  16.2468917409721 14.1422970092939  16.2937736197398 13.9726562851216  C 16.3241886878891 13.8625987189321  16.4639223950806 13.6642500033403  16.6225538281852 13.5059598202274  C 17.0098862103867 13.1194595836747  17.4185701767084 13.0127144780336  17.9311551542531 13.1641629191889  C 18.2144178638185 13.2478555647673  18.7020657553626 13.7188433878237  18.7550031162647 13.9598655078773  C 18.7898587748558 14.1185630827125  18.9647362705527 14.2318285228389  21.0893366021325 15.4717778328795  C 21.0893366021325 15.4717778328795  23.3859924511321 16.8668290879225  23.3859924511321 16.8668290879225  C 23.3859924511321 16.8668290879225  23.5550052422489 16.6743330887221  23.5550052422489 16.6743330887221  C 23.8173956885483 16.3754878008  24.110969893923 16.1915457876096  24.5273444899768 16.1915457876096  C 25.9009635506653 16.1915457876096  26.3231069457897 18.0445840884699  25.1015621923828 18.6924384130798  C 24.7977380856856 18.8535745508471  24.2560476462587 18.8527357910252  23.9479470632887 18.6906401847775  C 23.6743373259267 18.5467011036737  23.4127715843314 18.2576590536993  23.3173642047893 17.9938126625538  C 23.2508008206004 17.8097323718078  23.0959526944894 17.7091615967234  20.9574107195519 16.4610758203475  C 20.9574107195519 16.4610758203475  18.6686953920104 15.0706586203086  18.6686953920104 15.0706586203086  C 18.6686953920104 15.0706586203086  18.4996813607362 15.2631548262019  18.4996813607362 15.2631548262019  C 18.2374155502604 15.5618591495606  17.943714642133 15.6912241070073  17.5273437665516 15.6914351404667  C 17.1290316503683 15.6916625026658  16.9049988606053 15.6003645915265  16.5976562205301 15.3126772068731  C 16.5976562205301 15.3126772068731  16.4062499063423 15.1335209612815  16.4062499063423 15.1335209612815  C 16.4062499063423 15.1335209612815  14.1100301793792 16.9183218720885  14.1100301793792 16.9183218720885  C 12.0757862727415 18.4510467261061  11.7530886232016 18.6702724589008  11.7062263802602 18.8398414606338  C 11.6758113121109 18.9498990268234  11.5360776049194 19.1482479491081  11.3774461718148 19.306538132221  C 10.9949460631165 19.6882158098372  10.6079301277576 19.7904004431496  10.0782609478774 19.6495632025206  Z M 10.5273436632051 18.8398437342558  C 10.6338950975912 18.8398437342558  10.745996443258 18.7902252413823  10.8306105258216 18.7056105387399  C 11.1018714049736 18.4343500729737  10.9096569215143 17.9101561882343  10.5273436632051 17.9101561882343  C 10.3025179994459 17.9101561882343  10.0351563820089 18.1775180123642  10.0351563820089 18.4023436761234  C 10.0351563820089 18.6271695465756  10.3025179994459 18.8398437342558  10.5273436632051 18.8398437342558  Z M 24.5273444899768 17.9648436179911  C 24.6338946842053 17.9648436179911  24.7459966499509 17.9152251251175  24.8306105258216 17.8306104224751  C 24.9152244016923 17.7459963399115  24.9648431012588 17.6338952009376  24.9648431012588 17.5273437665516  C 24.9648431012588 17.4207923321655  24.9152244016923 17.254003556742  24.8306105258216 17.1693894741784  C 24.7459966499509 17.0847747715361  24.6338946842053 17.0351562786625  24.5273444899768 17.0351562786625  C 24.4207922288191 17.0351562786625  24.2540028333169 17.0847747715361  24.1693889574461 17.1693894741784  C 24.0847750815754 17.254003556742  24.035156382009 17.4207923321655  24.035156382009 17.5273437665516  C 24.035156382009 17.6338952009376  24.0847750815754 17.7459963399115  24.1693889574461 17.8306104224751  C 24.2540028333169 17.9152251251175  24.4207922288191 17.9648436179911  24.5273444899768 17.9648436179911  Z M 3.52734376655158 16.6523436502868  C 3.63389540763052 16.6523436502868  3.7459961332186 16.6027251574133  3.83061083586095 16.5181104547709  C 4.10187130162718 16.2468501956976  3.90965723155371 15.7226563109583  3.52734376655158 15.7226563109583  C 3.30251810279237 15.7226563109583  3.03515627866249 15.9900179283952  3.03515627866249 16.2148437988473  C 3.03515627866249 16.4396694626066  3.30251810279237 16.6523436502868  3.52734376655158 16.6523436502868  Z M 17.5273437665516 14.9023436244502  C 17.6338952009376 14.9023436244502  17.7459963399115 14.8527251315766  17.8306104224751 14.7681104289343  C 17.9152251251175 14.6834963463707  17.9648436179911 14.5713952073968  17.9648436179911 14.4648437730107  C 17.9648436179911 14.3582921319318  17.9152251251175 14.1915035632012  17.8306104224751 14.1068894806376  C 17.7459963399115 14.0222747779952  17.6338952009376 13.9726562851216  17.5273437665516 13.9726562851216  C 17.4207923321655 13.9726562851216  17.254003556742 14.0222747779952  17.1693894741784 14.1068894806376  C 17.0847747715361 14.1915035632012  17.0351562786625 14.3582921319318  17.0351562786625 14.4648437730107  C 17.0351562786625 14.5713952073968  17.0847747715361 14.6834963463707  17.1693894741784 14.7681104289343  C 17.254003556742 14.8527251315766  17.4207923321655 14.9023436244502  17.5273437665516 14.9023436244502  Z M 17.741122107748 19.7148436438277  C 17.741122107748 19.7148436438277  17.6068895323108 19.5806104483117  17.6068895323108 19.5806104483117  C 17.5222748296684 19.4959963657481  17.4726563367949 19.3838952267742  17.4726563367949 19.2773437923882  C 17.4726563367949 19.1707921513093  17.5222748296684 19.0040035825787  17.6068895323108 18.919389500015  C 17.6068895323108 18.919389500015  17.741122107748 18.7851563044991  17.741122107748 18.7851563044991  C 17.741122107748 18.7851563044991  19.4414062883512 18.7851563044991  19.4414062883512 18.7851563044991  C 19.4414062883512 18.7851563044991  21.1963787254828 18.7851563044991  21.1963787254828 18.7851563044991  C 21.1963787254828 18.7851563044991  21.33061130092 18.919389500015  21.33061130092 18.919389500015  C 21.4152251767907 19.0040035825787  21.4648438763572 19.1707921513093  21.4648438763572 19.2773437923882  C 21.4648438763572 19.3838952267742  21.4152251767907 19.4959963657481  21.33061130092 19.5806104483117  C 21.33061130092 19.5806104483117  21.1963787254828 19.7148436438277  21.1963787254828 19.7148436438277  C 21.1963787254828 19.7148436438277  19.4414062883512 19.7148436438277  19.4414062883512 19.7148436438277  C 19.4414062883512 19.7148436438277  17.741122107748 19.7148436438277  17.741122107748 19.7148436438277  Z M 20.3164061979231 18.4023436761234  C 19.513095656666 18.4023436761234  19.4875484132001 18.3987678888098  19.3568895581474 18.2681104806075  C 19.272274855505 18.1834963980439  19.2226563626315 18.0167078293133  19.2226563626315 17.9101561882343  C 19.2226563626315 17.8036047538483  19.272274855505 17.6915036148744  19.3568895581474 17.6068895323108  C 19.4875484132001 17.4762300571794  19.513095656666 17.4726563367949  20.3164061979231 17.4726563367949  C 21.1197177726447 17.4726563367949  21.1999524458673 17.4762321241085  21.33061130092 17.6068895323108  C 21.4152251767907 17.6915036148744  21.4648438763572 17.8036047538483  21.4648438763572 17.9101561882343  C 21.4648438763572 18.0167078293133  21.4152251767907 18.1834963980439  21.33061130092 18.2681104806075  C 21.1999524458673 18.3987699557389  21.1197177726447 18.4023436761234  20.3164061979231 18.4023436761234  Z M 2.42862214004375 13.589843656746  C 2.42862214004375 13.589843656746  2.29438915122074 13.4556104612301  2.29438915122074 13.4556104612301  C 2.20977465527129 13.3709963786664  2.16015636909064 13.2588952396925  2.16015636909064 13.1523438053065  C 2.16015636909064 13.0457921642276  2.20977465527129 12.879003595497  2.29438915122074 12.7943895129333  C 2.29438915122074 12.7943895129333  2.42862214004375 12.6601563174174  2.42862214004375 12.6601563174174  C 2.42862214004375 12.6601563174174  5.05859365997555 12.6601563174174  5.05859365997555 12.6601563174174  C 5.05859365997555 12.6601563174174  7.63387795684356 12.6601563174174  7.63387795684356 12.6601563174174  C 7.63387795684356 12.6601563174174  7.76811053228075 12.7943895129333  7.76811053228075 12.7943895129333  C 7.94570004562746 12.9719784062013  7.94570004562746 13.2780215679621  7.76811053228075 13.4556104612301  C 7.76811053228075 13.4556104612301  7.63387795684356 13.589843656746  7.63387795684356 13.589843656746  C 7.63387795684356 13.589843656746  5.05859365997555 13.589843656746  5.05859365997555 13.589843656746  C 5.05859365997555 13.589843656746  2.42862214004375 13.589843656746  2.42862214004375 13.589843656746  Z M 8.99609376978116 13.589843656746  C 8.65728874859034 13.589843656746  8.53666793462924 13.5728886374781  8.41938955168825 13.4556104612301  C 8.33477484904589 13.3709963786664  8.28515635617233 13.2588952396925  8.28515635617233 13.1523438053065  C 8.28515635617233 13.0457921642276  8.33477484904589 12.879003595497  8.41938955168825 12.7943895129333  C 8.53666793462924 12.6771105099136  8.65728874859034 12.6601563174174  8.99609376978116 12.6601563174174  C 9.33489858427907 12.6601563174174  9.40083217517637 12.6771113366853  9.51811055811736 12.7943895129333  C 9.60272526075972 12.879003595497  9.65234375363328 13.0457921642276  9.65234375363328 13.1523438053065  C 9.65234375363328 13.2588952396925  9.60272526075972 13.3709963786664  9.51811055811736 13.4556104612301  C 9.40083217517637 13.5728894642498  9.33489858427907 13.589843656746  8.99609376978116 13.589843656746  Z M 18.7925949755759 11.4023437794699  C 18.6781453917779 11.4023437794699  18.5689443610004 11.3551659164575  18.4818894418826 11.268110583954  C 18.3941795129385 11.1804010683956  18.3476562463667 11.071984643898  18.3476562463667 10.9552980227535  C 18.3476562463667 10.7966217372879  18.4590728184283 10.6106148619435  19.3473438595634 9.72234382080847  C 19.3473438595634 9.72234382080847  20.3470312660671 8.72265620761181  20.3470312660671 8.72265620761181  C 20.3470312660671 8.72265620761181  22.549047392986 8.72265620761181  22.549047392986 8.72265620761181  C 22.549047392986 8.72265620761181  24.6963779503844 8.72265620761181  24.6963779503844 8.72265620761181  C 24.6963779503844 8.72265620761181  24.8306105258216 8.85688940312772  24.8306105258216 8.85688940312772  C 24.9152244016923 8.94150369238426  24.9648431012588 9.05360483135815  24.9648431012588 9.16015626574419  C 24.9648431012588 9.26670770013022  24.9152244016923 9.37880883910411  24.8306105258216 9.46342312836065  C 24.8306105258216 9.46342312836065  24.6963779503844 9.59765632387657  24.6963779503844 9.59765632387657  C 24.6963779503844 9.59765632387657  22.74089975047 9.59765632387657  22.74089975047 9.59765632387657  C 22.74089975047 9.59765632387657  20.7307320538698 9.59765632387657  20.7307320538698 9.59765632387657  C 20.7307320538698 9.59765632387657  19.8499000971973 10.5273436632051  19.8499000971973 10.5273436632051  C 19.0773214843179 11.2948062132184  18.9473790268854 11.4023437794699  18.7925949755759 11.4023437794699  Z M 3.96484361799105 11.4023437794699  C 3.96484361799105 11.4023437794699  3.96484361799105 10.2539063077287  3.96484361799105 10.2539063077287  C 3.96484361799105 10.2539063077287  3.96484361799105 9.16015626574419  3.96484361799105 9.16015626574419  C 3.96484361799105 9.16015626574419  3.52734376655158 9.16015626574419  3.52734376655158 9.16015626574419  C 3.52734376655158 9.16015626574419  3.03515627866249 9.16015626574419  3.03515627866249 9.16015626574419  C 3.03515627866249 9.16015626574419  3.03515627866249 10.3085937374854  3.03515627866249 10.3085937374854  C 3.03515627866249 10.3085937374854  3.03515627866249 11.4023437794699  3.03515627866249 11.4023437794699  C 3.03515627866249 11.4023437794699  3.52734376655158 11.4023437794699  3.52734376655158 11.4023437794699  C 3.52734376655158 11.4023437794699  3.96484361799105 11.4023437794699  3.96484361799105 11.4023437794699  Z M 7.0273436115319 11.4023437794699  C 7.0273436115319 11.4023437794699  7.0273436115319 7.90234372779666  7.0273436115319 7.90234372779666  C 7.0273436115319 7.90234372779666  7.0273436115319 4.34765624636673  7.0273436115319 4.34765624636673  C 7.0273436115319 4.34765624636673  6.58984376009243 4.34765624636673  6.58984376009243 4.34765624636673  C 6.58984376009243 4.34765624636673  6.09765627220334 4.34765624636673  6.09765627220334 4.34765624636673  C 6.09765627220334 4.34765624636673  6.09765627220334 7.90234372779666  6.09765627220334 7.90234372779666  C 6.09765627220334 7.90234372779666  6.09765627220334 11.4023437794699  6.09765627220334 11.4023437794699  C 6.09765627220334 11.4023437794699  6.58984376009243 11.4023437794699  6.58984376009243 11.4023437794699  C 6.58984376009243 11.4023437794699  7.0273436115319 11.4023437794699  7.0273436115319 11.4023437794699  Z M 8.33984378592904 11.4023437794699  C 8.33984378592904 11.4023437794699  8.33984378592904 9.65234375363328  8.33984378592904 9.65234375363328  C 8.33984378592904 9.65234375363328  8.33984378592904 7.84765629803995  8.33984378592904 7.84765629803995  C 8.33984378592904 7.84765629803995  8.06640622375969 7.84765629803995  8.06640622375969 7.84765629803995  C 8.06640622375969 7.84765629803995  7.84765629803995 7.84765629803995  7.84765629803995 7.84765629803995  C 7.84765629803995 7.84765629803995  7.84765629803995 9.65234375363328  7.84765629803995 9.65234375363328  C 7.84765629803995 9.65234375363328  7.84765629803995 11.4023437794699  7.84765629803995 11.4023437794699  C 7.84765629803995 11.4023437794699  8.06640622375969 11.4023437794699  8.06640622375969 11.4023437794699  C 8.06640622375969 11.4023437794699  8.33984378592904 11.4023437794699  8.33984378592904 11.4023437794699  Z M 10.0898438117657 11.4023437794699  C 10.0898438117657 11.4023437794699  10.0898438117657 6.31640619792308  10.0898438117657 6.31640619792308  C 10.0898438117657 6.31640619792308  10.0898438117657 1.28515629416446  10.0898438117657 1.28515629416446  C 10.0898438117657 1.28515629416446  9.65234375363328 1.28515629416446  9.65234375363328 1.28515629416446  C 9.65234375363328 1.28515629416446  9.16015626574419 1.28515629416446  9.16015626574419 1.28515629416446  C 9.16015626574419 1.28515629416446  9.16015626574419 6.31640619792308  9.16015626574419 6.31640619792308  C 9.16015626574419 6.31640619792308  9.16015626574419 11.4023437794699  9.16015626574419 11.4023437794699  C 9.16015626574419 11.4023437794699  9.65234375363328 11.4023437794699  9.65234375363328 11.4023437794699  C 9.65234375363328 11.4023437794699  10.0898438117657 11.4023437794699  10.0898438117657 11.4023437794699  Z M 11.4023437794699 11.4023437794699  C 11.4023437794699 11.4023437794699  11.4023437794699 9.65234375363328  11.4023437794699 9.65234375363328  C 11.4023437794699 9.65234375363328  11.4023437794699 7.84765629803995  11.4023437794699 7.84765629803995  C 11.4023437794699 7.84765629803995  11.1289062173005 7.84765629803995  11.1289062173005 7.84765629803995  C 11.1289062173005 7.84765629803995  10.9101562915808 7.84765629803995  10.9101562915808 7.84765629803995  C 10.9101562915808 7.84765629803995  10.9101562915808 9.65234375363328  10.9101562915808 9.65234375363328  C 10.9101562915808 9.65234375363328  10.9101562915808 11.4023437794699  10.9101562915808 11.4023437794699  C 10.9101562915808 11.4023437794699  11.1289062173005 11.4023437794699  11.1289062173005 11.4023437794699  C 11.1289062173005 11.4023437794699  11.4023437794699 11.4023437794699  11.4023437794699 11.4023437794699  Z M 13.1523438053065 11.4023437794699  C 13.1523438053065 11.4023437794699  13.1523438053065 7.24609374394455  13.1523438053065 7.24609374394455  C 13.1523438053065 7.24609374394455  13.1523438053065 3.03515627866249  13.1523438053065 3.03515627866249  C 13.1523438053065 3.03515627866249  12.7148437471741 3.03515627866249  12.7148437471741 3.03515627866249  C 12.7148437471741 3.03515627866249  12.222656259285 3.03515627866249  12.222656259285 3.03515627866249  C 12.222656259285 3.03515627866249  12.222656259285 7.24609374394455  12.222656259285 7.24609374394455  C 12.222656259285 7.24609374394455  12.222656259285 11.4023437794699  12.222656259285 11.4023437794699  C 12.222656259285 11.4023437794699  12.7148437471741 11.4023437794699  12.7148437471741 11.4023437794699  C 12.7148437471741 11.4023437794699  13.1523438053065 11.4023437794699  13.1523438053065 11.4023437794699  Z M 16.2148437988473 11.4023437794699  C 16.2148437988473 11.4023437794699  16.2148437988473 10.3085937374854  16.2148437988473 10.3085937374854  C 16.2148437988473 10.3085937374854  16.2148437988473 9.16015626574419  16.2148437988473 9.16015626574419  C 16.2148437988473 9.16015626574419  15.777343740715 9.16015626574419  15.777343740715 9.16015626574419  C 15.777343740715 9.16015626574419  15.2851562528259 9.16015626574419  15.2851562528259 9.16015626574419  C 15.2851562528259 9.16015626574419  15.2851562528259 10.3085937374854  15.2851562528259 10.3085937374854  C 15.2851562528259 10.3085937374854  15.2851562528259 11.4023437794699  15.2851562528259 11.4023437794699  C 15.2851562528259 11.4023437794699  15.777343740715 11.4023437794699  15.777343740715 11.4023437794699  C 15.777343740715 11.4023437794699  16.2148437988473 11.4023437794699  16.2148437988473 11.4023437794699  Z M 21.5989166781763 7.38847539398436  C 21.9830368458898 7.4817858739718  22.6305133358634 7.47850131696601  23.045141376842 7.38076492173315  C 23.9054778714203 7.17796631451855  24.67853621854 6.50304162640153  25.0713767600547 5.70040035678149  C 25.1926186862053 5.45268014634153  25.3075275416455 5.14541026217002  25.3267272458975 5.01757813933125  C 25.3267272458975 5.01757813933125  25.3616356111802 4.78515630449911  25.3616356111802 4.78515630449911  C 25.3616356111802 4.78515630449911  23.945888401922 4.78515630449911  23.945888401922 4.78515630449911  C 23.945888401922 4.78515630449911  22.4754537629072 4.78515630449911  22.4754537629072 4.78515630449911  C 22.4754537629072 4.78515630449911  21.4642893192842 5.79828164374307  21.4642893192842 5.79828164374307  C 20.6387890541637 6.62538295213132  20.4681870012749 6.87661074122513  20.5351563303357 6.92336695070455  C 20.725558530375 7.05630025452017  21.3432251490348 7.3263629348828  21.5989166781763 7.38847539398436  Z M 19.8167806590359 6.20703113171675  C 19.8353168790522 6.20703113171675  20.3545344253313 5.75815944984844  20.9037573744154 5.20953880389914  C 20.9037573744154 5.20953880389914  21.9023445545683 4.21204626938863  21.9023445545683 4.21204626938863  C 21.9023445545683 4.21204626938863  21.9023445545683 2.74161183706664  21.9023445545683 2.74161183706664  C 21.9023445545683 2.74161183706664  21.9023445545683 1.32586479316278  21.9023445545683 1.32586479316278  C 21.9023445545683 1.32586479316278  21.6699225130432 1.36262237788823  21.6699225130432 1.36262237788823  C 21.542089150047 1.38283901124904  21.2357599253012 1.49680708324786  20.9891876872739 1.61588462460914  C 19.722616950723 2.22755210562126  18.9820920673698 3.73040508045263  19.3067351105626 5.10764230050093  C 19.3839041145693 5.43501782394149  19.7420688203231 6.20703113171675  19.8167806590359 6.20703113171675  Z M 25.3616356111802 3.96484361799105  C 25.3616356111802 3.96484361799105  25.3248773443682 3.73242178315891  25.3248773443682 3.73242178315891  C 25.2565529366006 3.30040590796245  24.8862935953176 2.57987091584963  24.4990502977596 2.19262575805547  C 24.1089980435778 1.80257484737759  23.3767237210452 1.42410305944628  22.9550784558298 1.36077357183136  C 22.9550784558298 1.36077357183136  22.7226564143047 1.32586479316278  22.7226564143047 1.32586479316278  C 22.7226564143047 1.32586479316278  22.7226564143047 2.67269794112456  22.7226564143047 2.67269794112456  C 22.7226564143047 2.67269794112456  22.7226564143047 3.96484361799105  22.7226564143047 3.96484361799105  C 22.7226564143047 3.96484361799105  24.0148012643996 3.96484361799105  24.0148012643996 3.96484361799105  C 24.0148012643996 3.96484361799105  25.3616356111802 3.96484361799105  25.3616356111802 3.96484361799105  Z " fill-rule="nonzero" fill="#ffffff" stroke="none" transform="matrix(1 0 0 1 15 305 )" />
  </g>
</svg>