<?xml version="1.0" encoding="utf-8"?>
<svg version="1.1" xmlns:xlink="http://www.w3.org/1999/xlink" width="28px" height="28px" xmlns="http://www.w3.org/2000/svg">
  <g transform="matrix(1 0 0 1 -20 -219 )">
    <path d="M 5.91981149311487 27.511816463784  C 5.49976995817495 27.3619186328268  5.20641133350366 27.0464907862576  5.05923916192817 26.5865019196235  C 5.00865045254305 26.4283880455613  4.94564363322727 26.3567916890553  4.80558562486256 26.2982727928575  C 4.63473078654698 26.2268831292598  4.59545003948204 26.2307338181414  4.33305793963932 26.344580272033  C 3.95078539983303 26.5104389293691  3.42570810960364 26.5115468033576  3.11718835341564 26.3471432640959  C 2.8495061552779 26.2045024211491  1.77119032748055 25.1194142588727  1.63482058871012 24.8554653480447  C 1.48903483048635 24.5732902565627  1.4984738341911 24.0286668447671  1.65541919056547 23.6669397867387  C 1.76834056967666 23.4066782773947  1.77269100067197 23.3642524910371  1.70344891773009 23.1985323179495  C 1.64417462096027 23.0566686403379  1.56822041318355 22.9942804528966  1.36053076967198 22.9168615571638  C 0.990624149837003 22.778976718037  0.766654132710281 22.5990009350639  0.58911102192148 22.2969709228108  C 0.438180367170758 22.0402149251916  0.437501091596921 22.0345267363551  0.437501091596921 21.027341131217  C 0.437501091596921 20.0201544926143  0.438181111265228 20.0144658903921  0.58911102192148 19.7577092726942  C 0.770762650325721 19.4486909732113  1.01481085790328 19.2522283304078  1.36543174789784 19.1327602427962  C 1.57117512964628 19.0626562090882  1.64079986316929 19.0060887006376  1.70219307228855 18.8591542259066  C 1.7730001925935 18.6896906375568  1.7690191631639 18.6495680302764  1.6554191285576 18.3877428890811  C 1.4984738341911 18.0260164511315  1.48903483048635 17.4813911790996  1.63482052670225 17.1992175344681  C 1.68921031867101 17.0939440823341  1.99577467726932 16.7414776933691  2.31607475108084 16.415958478938  C 2.86317165691015 15.8599469079737  3.19271704250204 15.6132800045945  3.3884471656386 15.6132800045945  C 3.43476270583753 15.6132800045945  3.4726569568736 15.6045141583535  3.4726569568736 15.5937991979872  C 3.4726569568736 15.583084237621  3.35099585750502 15.3431435348636  3.20229891234501 15.0605961894538  C 1.66321093446823 12.1360903755883  1.84530062782233 8.75704267330111  3.69613911672886 5.99000957209621  C 4.05708322202059 5.45039205584664  4.93735876138389 4.49358143962643  5.39149201792589 4.14725486350258  C 5.39149201792589 4.14725486350258  5.66015683414968 3.94236845122124  5.66015683414968 3.94236845122124  C 5.66015683414968 3.94236845122124  5.66015683414968 2.74315397285545  5.66015683414968 2.74315397285545  C 5.66015683414968 1.96145637890116  5.68331160720198 1.46557088618181  5.72666337778879 1.31884477857172  C 5.81541627914822 1.0184552879317  6.26845571681949 0.565415478213193  6.56884541415243 0.476662618192348  C 6.88328258161214 0.383759137210642  14.9835431401687 0.380939411886325  15.2928977290133 0.47362423244034  C 15.5929422491894 0.563519752866139  15.9344557742506 0.876718933151592  16.08503176464 1.20008384940738  C 16.2082963875911 1.46479655253945  16.2137979327314 1.52950819563217  16.2143092909865 2.72070298915592  C 16.2146399996398 3.43679739082683  16.2360945168284 3.96484341129814  16.2649137090326 3.96484341129814  C 16.3498500258403 3.96484341129814  17.4729579017481 5.06515636650697  17.7777323824377 5.44695661301779  C 20.0918221581737 8.34589265389043  20.3417670043856 12.3247377528362  18.4160612643686 15.5234640816077  C 18.4160612643686 15.5234640816077  18.2232091332872 15.8438048119142  18.2232091332872 15.8438048119142  C 18.2232091332872 15.8438048119142  18.9678498925234 16.5884455711504  18.9678498925234 16.5884455711504  C 18.9678498925234 16.5884455711504  19.7124912718383 17.3330869504654  19.7124912718383 17.3330869504654  C 19.7124912718383 17.3330869504654  19.9343068667739 17.1164895246927  19.9343068667739 17.1164895246927  C 19.9343068667739 17.1164895246927  20.1561222550167 16.8998925123058  20.1561222550167 16.8998925123058  C 20.1561222550167 16.8998925123058  23.6740014499507 20.4265075830092  23.6740014499507 20.4265075830092  C 27.5098291114707 24.2718617206727  27.4190805900817 24.1663656602764  27.5503553900011 24.9327436925998  C 27.8094160135478 26.4451384388499  26.4451394723145 27.8094149800833  24.9327447260643 27.5503543565366  C 24.166366693741 27.4190795566171  24.2718627541372 27.5098280780062  20.4265086164737 23.6740004164862  C 20.4265086164737 23.6740004164862  16.8998935457703 20.1561210148592  16.8998935457703 20.1561210148592  C 16.8998935457703 20.1561210148592  17.1164905581572 19.9343058333094  17.1164905581572 19.9343058333094  C 17.1164905581572 19.9343058333094  17.3330879839299 19.7124900316809  17.3330879839299 19.7124900316809  C 17.3330879839299 19.7124900316809  16.588446604615 18.9678488590588  16.588446604615 18.9678488590588  C 16.588446604615 18.9678488590588  15.8438058453788 18.2232078931297  15.8438058453788 18.2232078931297  C 15.8438058453788 18.2232078931297  15.5234651150722 18.4161197584616  15.5234651150722 18.4161197584616  C 14.9783028548646 18.7444218862101  14.3925151035306 18.9906014077116  13.7738443707223 19.2017679773187  C 13.4470581287633 19.3133075316607  13.1725897890603 19.4096991828322  13.163914681006 19.4159723125991  C 13.1552397796447 19.422245442366  13.2290675927887 19.5575598484852  13.3279771769691 19.7166720492945  C 13.3279771769691 19.7166720492945  13.5078126154574 20.0059666780028  13.5078126154574 20.0059666780028  C 13.5078126154574 20.0059666780028  13.5078126154574 21.0225127848791  13.5078126154574 21.0225127848791  C 13.5078126154574 22.0349752599662  13.5072132060233 22.0400971102338  13.3562023337549 22.2969729897398  C 13.1745508913742 22.6059912892227  12.9305029938361 22.8024549654908  12.5798817524635 22.921921399559  C 12.3741385980773 22.9920254332671  12.3045136785307 23.0485931484106  12.24312051075 23.1955270030628  C 12.1723133077679 23.3649945185779  12.1762946265676 23.405115679008  12.2898947025124 23.6669418536678  C 12.4468395214853 24.0286689116961  12.4562785665286 24.5732923234918  12.3104937177536 24.8554674149737  C 12.1741239376446 25.1194163258018  11.0958078618158 26.2045044880781  10.828125663678 26.347145331025  C 10.5213239389438 26.5106311537738  9.994403774744 26.5103913900002  9.61693374466206 26.3465252523001  C 9.19068088113482 26.1615557686625  9.04542103234692 26.232368759046  8.8111966286615 26.7393182544459  C 8.61538052127509 27.1631358621276  8.39485303654397 27.3799401875015  8.02550252397878 27.5117482551243  C 7.88763525374914 27.5609473680869  7.54219952406005 27.5849733517477  6.97265721523974 27.5849733517477  C 6.40311490641942 27.5849733517477  6.05767917673034 27.5609473680869  5.91981190650069 27.5117482551243  Z M 7.92099652261328 26.6025330215912  C 7.99952432579911 26.5407628459458  8.09292740420946 26.3929195424971  8.12855836789965 26.2739925769195  C 8.21565979292176 25.9832748675375  8.50509125233535 25.6567496787217  8.80389974891979 25.5120977137771  C 9.12620757563466 25.3560714380888  9.61093076252631 25.3547134656813  9.95940673820358 25.5088526351168  C 10.3874123575932 25.6981792052613  10.4295359589189 25.6807363907299  11.0551416521865 25.0551306974623  C 11.6820550914849 24.4282187050143  11.6984908981671 24.3880810091515  11.5062501647084 23.9534885001602  C 11.185377200163 23.2281018054109  11.5518108624062 22.360531059042  12.2806594566767 22.1199880531499  C 12.6741169765227 21.9901373673687  12.7148437471741 21.88764455493  12.7148437471741 21.0273349304297  C 12.7148437471741 20.1670236523862  12.6741169765227 20.0098436168838  12.2806594566767 19.8799908641735  C 11.5518108624062 19.6394488917458  11.185377200163 18.7718777319912  11.5062501647084 18.0464914506277  C 11.6984908981671 17.611899768408  11.6820550914849 17.5717618658523  11.0551416521865 16.9448490466327  C 10.4319257423247 16.3216325166921  10.382981481718 16.3009322219259  9.97276902133935 16.4870707606528  C 9.64278358654568 16.6368057175983  9.10813620796909 16.6351685030716  8.79475668812115 16.4834619024739  C 8.50605423459512 16.3437035988262  8.21864402513179 16.0182232426618  8.11999983464568 15.7193287618275  C 7.99014708193536 15.3258741356822  7.88765447618961 15.2851473650308  7.02734423161063 15.2851473650308  C 6.16703398703165 15.2851473650308  6.00985395152919 15.3258741356822  5.88000119881887 15.7193316555283  C 5.63876742522718 16.4502765292747  4.77628917873304 16.8175865694491  4.05359589927176 16.4971557210346  C 3.61126212078587 16.3010314345219  3.57338068471012 16.3163275365077  2.94485917458516 16.9448494600185  C 2.31925306793177 17.570455153286  2.30181066678616 17.6125787546117  2.4911376503165 18.0405843740014  C 2.81326276050043 18.768801521437  2.44790886201012 19.6395423169404  1.71934120474062 19.8799912775593  C 1.32588430497332 20.0098440302696  1.28515722428255 20.167024065772  1.28515722428255 21.0273349304297  C 1.28515722428255 21.8879917990159  1.33450141499751 22.0112510479515  1.72600543882861 22.1285472064826  C 2.01672399565148 22.2156496649692  2.34324990789247 22.5050817444616  2.48790083937252 22.8038894142744  C 2.64392711506085 23.1261980677609  2.64528508746838 23.6109198078022  2.4911376503165 23.9593957834794  C 2.30181046009325 24.3874009894832  2.31925306793177 24.4295250041948  2.94485896789225 25.0551306974623  C 3.57046507454564 25.680738457659  3.61258888256425 25.6981812721904  4.04059429526097 25.5088526351168  C 4.76881144269657 25.1867279383187  5.6395522382 25.5520824568877  5.88000119881887 26.2806501554958  C 6.00985395152919 26.6741066418773  6.16703398703165 26.7148334125287  7.02734423161063 26.7148334125287  C 7.70194999257013 26.7148334125287  7.79272145687201 26.7034239639905  7.92099652261328 26.6025247538749  Z M 10.8859052193429 21.7584201486609  C 10.4766875719319 23.8972080881593  8.33157937668358 25.3069405337859  6.1991404232495 24.8821886741587  C 4.94031674359457 24.6314474401711  3.81732254878635 23.7009945103102  3.33290154692663 22.5073760357437  C 2.40101974899066 20.211205088307  3.80837936003003 17.5796418262883  6.24938788264301 17.1125995641585  C 8.94967695005716 16.5959487304146  11.4032681101558 19.0544104022045  10.8859052193429 21.7584201486609  Z M 4.82274134294436 23.1875610583769  C 5.55206863799044 23.9097460799767  6.5907073230633 24.2141303244555  7.60519084140771 24.0313889903694  C 8.50176990399188 23.8698874195402  9.35523117236144 23.213436943567  9.76246394777402 22.3720955272614  C 11.0299139559568 19.7535479243714  8.25143151448249 16.967674557882  5.63534893121681 18.2339311212123  C 3.74929763904287 19.1468323093791  3.33283375165271 21.7122428860176  4.82274134294436 23.1875610583769  Z M 6.09706678402887 22.9414042730954  C 6.08127751276384 22.9414042730954  5.81075370052279 22.6829203227628  5.49590356063229 22.3669943462846  C 5.49590356063229 22.3669943462846  4.92344791526949 21.7925844194738  4.92344791526949 21.7925844194738  C 4.92344791526949 21.7925844194738  5.23637870481352 21.4796534232369  5.23637870481352 21.4796534232369  C 5.23637870481352 21.4796534232369  5.54930970105045 21.1120349972432  5.54930970105045 21.1120349972432  C 5.54930970105045 21.1120349972432  5.82427307026887 21.4375521447453  5.82427307026887 21.4375521447453  C 5.82427307026887 21.4375521447453  6.09923685287311 21.7083797955615  6.09923685287311 21.7083797955615  C 6.09923685287311 21.7083797955615  7.30151886069097 20.5070748251212  7.30151886069097 20.5070748251212  C 7.30151886069097 20.5070748251212  8.44911302536631 19.3604564576659  8.44911302536631 19.3604564576659  C 8.44911302536631 19.3604564576659  8.7631285392931 19.6744719715927  8.7631285392931 19.6744719715927  C 8.7631285392931 19.6744719715927  9.07714425991279 19.9884870721337  9.07714425991279 19.9884870721337  C 9.07714425991279 19.9884870721337  7.62880281917316 21.4922906276503  7.62880281917316 21.4922906276503  C 6.83221537814431 22.2893026159128  6.1128562619868 22.9414042730954  6.09706678402887 22.9414042730954  Z M 25.92348170956 26.5628376485522  C 26.1778524710174 26.4318129470518  26.4427418345782 26.1640360835621  26.5845889767572 25.8945292004299  C 26.7335897604924 25.6114239908606  26.7241335599377 24.9553517629097  26.566854725225 24.6640615141717  C 26.4993467544452 24.5390350408702  25.0998952140774 23.0434252056244  23.3005487032345 21.2462758403968  C 23.3005487032345 21.2462758403968  20.0976686737778 18.1019271087124  20.0976686737778 18.1019271087124  C 20.0976686737778 18.1019271087124  19.0998001648671 19.0997949975444  19.0998001648671 19.0997949975444  C 19.0998001648671 19.0997949975444  18.1019322760351 20.0976635064551  18.1019322760351 20.0976635064551  C 18.1019322760351 20.0976635064551  21.2462810077195 23.3004153863087  21.2462810077195 23.3004153863087  C 22.9756723037482 25.0318508752005  24.5189847953006 26.4875311543423  24.6090243600142 26.535264814585  C 24.6990639247278 26.5829964078987  24.8344147087988 26.6422883355736  24.9098059471012 26.6670253428389  C 25.1353678509998 26.7410338055848  25.6877608492185 26.6842635313912  25.9234858434182 26.5628376485522  Z M 25.4023427460053 25.8398423907519  C 25.2957904848477 25.8398423907519  25.1290031562745 25.7902236911854  25.0443892804038 25.7056077483856  C 24.959773337604 25.6209938725149  24.9101546380375 25.5088939736985  24.9101546380375 25.4023417125408  C 24.9101546380375 25.2957894513831  24.959773337604 25.12900212281  25.0443892804038 25.0443882469393  C 25.1290031562745 24.9597723041395  25.2957904848477 24.910153604573  25.4023427460053 24.910153604573  C 25.508895007163 24.910153604573  25.6209949059795 24.9597723041395  25.7056087818502 25.0443882469393  C 25.79022472465 25.12900212281  25.8398434242165 25.2957894513831  25.8398434242165 25.4023417125408  C 25.8398434242165 25.5088939736985  25.79022472465 25.6209938725149  25.7056087818502 25.7056077483856  C 25.6209949059795 25.7902236911854  25.508895007163 25.8398423907519  25.4023427460053 25.8398423907519  Z M 17.9650490707419 19.0585922131252  C 17.9811029089296 19.0585922131252  18.2395798317032 18.8123279475313  18.5394406018838 18.5113378072998  C 18.5394406018838 18.5113378072998  19.0846415136653 17.9640827813956  19.0846415136653 17.9640827813956  C 19.0846415136653 17.9640827813956  18.3880562355301 17.2128106935824  18.3880562355301 17.2128106935824  C 18.3880562355301 17.2128106935824  17.6367841477169 16.5162254154472  17.6367841477169 16.5162254154472  C 17.6367841477169 16.5162254154472  17.0767815433863 17.076227606392  17.0767815433863 17.076227606392  C 17.0767815433863 17.076227606392  16.5167793524415 17.636229590644  16.5167793524415 17.636229590644  C 16.5167793524415 17.636229590644  17.1989752903795 18.3747547201094  17.1989752903795 18.3747547201094  C 17.5741828598872 18.7508651242405  17.9489939923968 19.0585922131252  17.9650490707419 19.0585922131252  Z M 12.20405617116 18.6936380587195  C 12.2380592215045 18.727641109064  12.7003572613101 18.6338256783015  13.1250001937746 18.5067492247355  C 15.2416484290933 17.8733305395342  17.0500392015246 16.4021997588041  18.0130361364903 14.4521933402511  C 19.3812452169969 11.6816592745655  19.0169198224183 8.36312257472632  17.071309348639 5.9609371810793  C 16.8764194321747 5.72031211810256  16.6039866042326 5.4137234937568  16.4659035466067 5.27962898918236  C 16.4659035466067 5.27962898918236  16.2148435921544 5.03582064872489  16.2148435921544 5.03582064872489  C 16.2148435921544 5.03582064872489  16.2148435921544 5.67421050506372  16.2148435921544 5.67421050506372  C 16.2148435921544 6.29854545033107  16.218293296794 6.31655460343124  16.3714876729457 6.49223696131307  C 16.6365578928012 6.79621588099863  17.0323012295201 7.41587274567242  17.2545868441293 7.87499949618604  C 18.783242948247 11.0324060523522  17.6883587822746 14.8730050129674  14.765624946712 16.7895003102977  C 14.1654340067561 17.1830578695114  13.8484774594371 17.3350273834885  13.115701493216 17.5805822790211  C 13.115701493216 17.5805822790211  12.4867959476674 17.7913305021818  12.4867959476674 17.7913305021818  C 12.4867959476674 17.7913305021818  12.3343950655907 18.2314532866276  12.3343950655907 18.2314532866276  C 12.2505748904878 18.4735208594114  12.1919226773641 18.6815039448449  12.20405617116 18.6936380587195  Z M 12.2955950862304 16.9257797656058  C 12.3518794253967 16.9257797656058  12.6210851569615 16.8510158402801  12.8938298845022 16.7596379389853  C 14.9098271478881 16.0842171878884  16.357960655562 14.5308151887103  16.9107883289668 12.4506771887137  C 17.0321772137752 11.9939251330235  17.0520149790351 11.7479659461623  17.0563850871952 10.9921869194836  C 17.0594751461743 10.4576259385427  17.0336974401157 9.98952230832868  16.9901280218965 9.78906201798568  C 16.8793048651746 9.27917706990214  16.6108268993399 8.51238792538416  16.4061174161881 8.12109344682349  C 16.4061174161881 8.12109344682349  16.220150432575 7.76562463667262  16.220150432575 7.76562463667262  C 16.220150432575 7.76562463667262  16.2162956098352 9.24218710033989  16.2162956098352 9.24218710033989  C 16.2127363579543 10.6059361612713  16.2039291731317 10.7375515911036  16.1010432307814 10.9648431012588  C 15.9514457246199 11.2953256324969  15.7505133476744 11.4994549286551  15.4218743104854 11.6548193736511  C 15.4218743104854 11.6548193736511  15.1484369550089 11.784086978738  15.1484369550089 11.784086978738  C 15.1484369550089 11.784086978738  10.9101554648092 11.784086978738  10.9101554648092 11.784086978738  C 10.9101554648092 11.784086978738  6.72656202444483 11.784086978738  6.72656202444483 11.784086978738  C 6.72656202444483 11.784086978738  6.45008338951566 11.6553439602524  6.45008338951566 11.6553439602524  C 6.12671832857484 11.5047677631701  5.81351925163584 11.163254031416  5.72362395857224 10.8632095112399  C 5.68275002257013 10.7267849575102  5.65921142078712 10.137715956257  5.65750227712839 9.20849822321609  C 5.65750227712839 9.20849822321609  5.6548504071149 7.76562442997971  5.6548504071149 7.76562442997971  C 5.6548504071149 7.76562442997971  5.46888342350188 8.12109324013058  5.46888342350188 8.12109324013058  C 5.26417394035005 8.51238771869125  4.99569597451535 9.27917686320923  4.8848732311793 9.78906181129277  C 4.84130339957423 9.98952210163577  4.81552424666525 10.4576257318498  4.81861554580178 10.9921867127907  C 4.82301603781949 11.7529904440701  4.84250862592252 11.9932467668985  4.96798114252015 12.468748969765  C 5.11006598154365 13.0072075588778  5.6853392646324 14.2722016419242  5.85043749875892 14.4092206444582  C 5.90451642459359 14.4541019425664  6.25166005778395 14.4773786644346  6.95680924318875 14.4834045894832  C 7.97407381461432 14.4920980932062  7.98696153083264 14.4937061640328  8.24228804029803 14.6437966327806  C 8.55130633978085 14.8254480751612  8.74776898258442 15.0694959726994  8.86723707019594 15.4201172140719  C 8.93734110390401 15.6258603684582  8.99390861235461 15.6954852880048  9.14084308708555 15.7568784557855  C 9.31030874236445 15.8276856587676  9.3504313496449 15.8237043399679  9.61225649084014 15.710104264023  C 9.99448211135625 15.5442650358202  10.5195848248134 15.5431412464778  10.828125663678 15.7075020003075  C 10.9484380918199 15.7715929239273  11.3471952178348 16.0719247472459  11.6474121198964 16.3749055468773  C 11.9519230671279 16.6822202834099  12.2385062982651 16.9257797656058  12.2955950862304 16.9257797656058  Z M 4.4598989699828 15.3880080908463  C 4.7393891205859 15.7859876381401  4.80637271145736 15.8287120957502  4.96312530602546 15.7089831616884  C 5.01234942882998 15.6713855149758  5.103253589979 15.5103411488597  5.16513475971617 15.3511072059275  C 5.16513475971617 15.3511072059275  5.27764597742013 15.0615903823428  5.27764597742013 15.0615903823428  C 5.27764597742013 15.0615903823428  4.99820129925686 14.5972793603032  4.99820129925686 14.5972793603032  C 3.75571069990869 12.5328208776373  3.6365941969342 10.0200130260824  4.67510101193157 7.87499949618604  C 4.89738683323359 7.41587274567242  5.2931299632596 6.79621588099862  5.55820018311515 6.49223696131307  C 5.71139579942432 6.31655460343123  5.71484426390639 6.29854545033107  5.71484426390639 5.67421050506372  C 5.71484426390639 5.67421050506372  5.71484426390639 5.03582064872489  5.71484426390639 5.03582064872489  C 5.71484426390639 5.03582064872489  5.46378430945413 5.27962898918236  5.46378430945413 5.27962898918236  C 3.8854886297862 6.81233606760984  2.9508793122323 9.10453561750651  3.05505026439345 11.3203117047167  C 3.12427626662706 12.7927926035238  3.66437992459695 14.2552298805308  4.4598989699828 15.3880080908463  Z M 15.0713777049366 10.9648428945659  C 15.0713777049366 10.9648428945659  15.2056104870667 10.83060969905  15.2056104870667 10.83060969905  C 15.3398228065988 10.6963977929036  15.3398436825826 10.6415053237819  15.3398436825826 9.46342230158902  C 15.3398436825826 9.46342230158902  15.3398436825826 8.28515573609361  15.3398436825826 8.28515573609361  C 15.3398436825826 8.28515573609361  10.9648439280304 8.28515573609361  10.9648439280304 8.28515573609361  C 10.9648439280304 8.28515573609361  6.53515674372154 8.28515573609361  6.53515674372154 8.28515573609361  C 6.53515674372154 8.28515573609361  6.53515674372154 9.46342230158902  6.53515674372154 9.46342230158902  C 6.53515674372154 10.6415053237819  6.53517761970527 10.6963977929036  6.66938993923745 10.83060969905  C 6.66938993923745 10.83060969905  6.80362272136755 10.9648428945659  6.80362272136755 10.9648428945659  C 6.80362272136755 10.9648428945659  10.9648439280304 10.9648428945659  10.9648439280304 10.9648428945659  C 10.9648439280304 10.9648428945659  15.0713777049366 10.9648428945659  15.0713777049366 10.9648428945659  Z M 7.4101568599863 10.089842984994  C 7.4101568599863 10.089842984994  7.4101568599863 9.59765549710493  7.4101568599863 9.59765549710493  C 7.4101568599863 9.59765549710493  7.4101568599863 9.16015564566546  7.4101568599863 9.16015564566546  C 7.4101568599863 9.16015564566546  7.84765671142577 9.16015564566546  7.84765671142577 9.16015564566546  C 7.84765671142577 9.16015564566546  8.33984419931486 9.16015564566546  8.33984419931486 9.16015564566546  C 8.33984419931486 9.16015564566546  8.33984419931486 9.59765549710493  8.33984419931486 9.59765549710493  C 8.33984419931486 9.59765549710493  8.33984419931486 10.089842984994  8.33984419931486 10.089842984994  C 8.33984419931486 10.089842984994  7.84765671142577 10.089842984994  7.84765671142577 10.089842984994  C 7.84765671142577 10.089842984994  7.4101568599863 10.089842984994  7.4101568599863 10.089842984994  Z M 9.16015667913 10.089842984994  C 9.16015667913 10.089842984994  9.16015667913 9.59765549710493  9.16015667913 9.59765549710493  C 9.16015667913 9.59765549710493  9.16015667913 9.16015564566546  9.16015667913 9.16015564566546  C 9.16015667913 9.16015564566546  9.59765653056947 9.16015564566546  9.59765653056947 9.16015564566546  C 9.59765653056947 9.16015564566546  10.0898440184586 9.16015564566546  10.0898440184586 9.16015564566546  C 10.0898440184586 9.16015564566546  10.0898440184586 9.59765549710493  10.0898440184586 9.59765549710493  C 10.0898440184586 9.59765549710493  10.0898440184586 10.089842984994  10.0898440184586 10.089842984994  C 10.0898440184586 10.089842984994  9.59765653056947 10.089842984994  9.59765653056947 10.089842984994  C 9.59765653056947 10.089842984994  9.16015667913 10.089842984994  9.16015667913 10.089842984994  Z M 10.9101564982737 10.089842984994  C 10.9101564982737 10.089842984994  10.9101564982737 9.59765549710493  10.9101564982737 9.59765549710493  C 10.9101564982737 9.59765549710493  10.9101564982737 9.16015564566546  10.9101564982737 9.16015564566546  C 10.9101564982737 9.16015564566546  11.4023439861628 9.16015564566546  11.4023439861628 9.16015564566546  C 11.4023439861628 9.16015564566546  11.8398438376023 9.16015564566546  11.8398438376023 9.16015564566546  C 11.8398438376023 9.16015564566546  11.8398438376023 9.59765549710493  11.8398438376023 9.59765549710493  C 11.8398438376023 9.59765549710493  11.8398438376023 10.089842984994  11.8398438376023 10.089842984994  C 11.8398438376023 10.089842984994  11.4023439861628 10.089842984994  11.4023439861628 10.089842984994  C 11.4023439861628 10.089842984994  10.9101564982737 10.089842984994  10.9101564982737 10.089842984994  Z M 15.3398436825826 7.46484325627847  C 15.3398436825826 7.46484325627847  15.3398436825826 6.09765585881752  15.3398436825826 6.09765585881752  C 15.3398436825826 6.09765585881752  15.3398436825826 4.78515589111329  15.3398436825826 4.78515589111329  C 15.3398436825826 4.78515589111329  10.9648439280304 4.78515589111329  10.9648439280304 4.78515589111329  C 10.9648439280304 4.78515589111329  6.53515674372154 4.78515589111329  6.53515674372154 4.78515589111329  C 6.53515674372154 4.78515589111329  6.53515674372154 6.15234328857423  6.53515674372154 6.15234328857423  C 6.53515674372154 6.15234328857423  6.53515674372154 7.46484325627847  6.53515674372154 7.46484325627847  C 6.53515674372154 7.46484325627847  10.9648439280304 7.46484325627847  10.9648439280304 7.46484325627847  C 10.9648439280304 7.46484325627847  15.3398436825826 7.46484325627847  15.3398436825826 7.46484325627847  Z M 10.0351565887019 6.5898431400137  C 10.0351565887019 6.5898431400137  10.0351565887019 6.15234328857423  10.0351565887019 6.15234328857423  C 10.0351565887019 6.15234328857423  10.0351565887019 5.66015580068514  10.0351565887019 5.66015580068514  C 10.0351565887019 5.66015580068514  10.4726564401413 5.66015580068514  10.4726564401413 5.66015580068514  C 10.4726564401413 5.66015580068514  10.9648439280304 5.66015580068514  10.9648439280304 5.66015580068514  C 10.9648439280304 5.66015580068514  10.9648439280304 6.15234328857423  10.9648439280304 6.15234328857423  C 10.9648439280304 6.15234328857423  10.9648439280304 6.5898431400137  10.9648439280304 6.5898431400137  C 10.9648439280304 6.5898431400137  10.4726564401413 6.5898431400137  10.4726564401413 6.5898431400137  C 10.4726564401413 6.5898431400137  10.0351565887019 6.5898431400137  10.0351565887019 6.5898431400137  Z M 11.7851564078456 6.5898431400137  C 11.7851564078456 6.5898431400137  11.7851564078456 6.15234328857423  11.7851564078456 6.15234328857423  C 11.7851564078456 6.15234328857423  11.7851564078456 5.66015580068514  11.7851564078456 5.66015580068514  C 11.7851564078456 5.66015580068514  12.2773438957346 5.66015580068514  12.2773438957346 5.66015580068514  C 12.2773438957346 5.66015580068514  12.7148437471741 5.66015580068514  12.7148437471741 5.66015580068514  C 12.7148437471741 5.66015580068514  12.7148437471741 6.15234328857423  12.7148437471741 6.15234328857423  C 12.7148437471741 6.15234328857423  12.7148437471741 6.5898431400137  12.7148437471741 6.5898431400137  C 12.7148437471741 6.5898431400137  12.2773438957346 6.5898431400137  12.2773438957346 6.5898431400137  C 12.2773438957346 6.5898431400137  11.7851564078456 6.5898431400137  11.7851564078456 6.5898431400137  Z M 13.5351562269893 6.5898431400137  C 13.5351562269893 6.5898431400137  13.5351562269893 6.15234328857423  13.5351562269893 6.15234328857423  C 13.5351562269893 6.15234328857423  13.5351562269893 5.66015580068514  13.5351562269893 5.66015580068514  C 13.5351562269893 5.66015580068514  14.0273437148784 5.66015580068514  14.0273437148784 5.66015580068514  C 14.0273437148784 5.66015580068514  14.4648437730107 5.66015580068514  14.4648437730107 5.66015580068514  C 14.4648437730107 5.66015580068514  14.4648437730107 6.15234328857423  14.4648437730107 6.15234328857423  C 14.4648437730107 6.15234328857423  14.4648437730107 6.5898431400137  14.4648437730107 6.5898431400137  C 14.4648437730107 6.5898431400137  13.9726562851216 6.5898431400137  13.9726562851216 6.5898431400137  C 13.9726562851216 6.5898431400137  13.5351562269893 6.5898431400137  13.5351562269893 6.5898431400137  Z M 15.3398436825826 3.96484341129814  C 15.3398436825826 3.96484341129814  15.3398436825826 2.78657643241692  15.3398436825826 2.78657643241692  C 15.3398436825826 1.60849363758628  15.3398228065988 1.55360108578737  15.2056104870667 1.41938911763314  C 15.2056104870667 1.41938911763314  15.0713777049366 1.28515619081801  15.0713777049366 1.28515619081801  C 15.0713777049366 1.28515619081801  10.9648439280304 1.28515619081801  10.9648439280304 1.28515619081801  C 10.9648439280304 1.28515619081801  6.80362272136755 1.28515619081801  6.80362272136755 1.28515619081801  C 6.80362272136755 1.28515619081801  6.66938993923745 1.41938911763314  6.66938993923745 1.41938911763314  C 6.53517761970527 1.55360108578737  6.53515674372154 1.60849363758628  6.53515674372154 2.78657643241692  C 6.53515674372154 2.78657643241692  6.53515674372154 3.96484341129814  6.53515674372154 3.96484341129814  C 6.53515674372154 3.96484341129814  10.9648439280304 3.96484341129814  10.9648439280304 3.96484341129814  C 10.9648439280304 3.96484341129814  15.3398436825826 3.96484341129814  15.3398436825826 3.96484341129814  Z M 7.4101568599863 3.08984350172629  C 7.4101568599863 3.08984350172629  7.4101568599863 2.5976560138372  7.4101568599863 2.5976560138372  C 7.4101568599863 2.5976560138372  7.4101568599863 2.16015616239773  7.4101568599863 2.16015616239773  C 7.4101568599863 2.16015616239773  7.84765671142577 2.16015616239773  7.84765671142577 2.16015616239773  C 7.84765671142577 2.16015616239773  8.33984419931486 2.16015616239773  8.33984419931486 2.16015616239773  C 8.33984419931486 2.16015616239773  8.33984419931486 2.5976560138372  8.33984419931486 2.5976560138372  C 8.33984419931486 2.5976560138372  8.33984419931486 3.08984350172629  8.33984419931486 3.08984350172629  C 8.33984419931486 3.08984350172629  7.84765671142577 3.08984350172629  7.84765671142577 3.08984350172629  C 7.84765671142577 3.08984350172629  7.4101568599863 3.08984350172629  7.4101568599863 3.08984350172629  Z M 9.16015667913 3.08984350172629  C 9.16015667913 3.08984350172629  9.16015667913 2.5976560138372  9.16015667913 2.5976560138372  C 9.16015667913 2.5976560138372  9.16015667913 2.16015616239773  9.16015667913 2.16015616239773  C 9.16015667913 2.16015616239773  9.59765653056947 2.16015616239773  9.59765653056947 2.16015616239773  C 9.59765653056947 2.16015616239773  10.0898440184586 2.16015616239773  10.0898440184586 2.16015616239773  C 10.0898440184586 2.16015616239773  10.0898440184586 2.5976560138372  10.0898440184586 2.5976560138372  C 10.0898440184586 2.5976560138372  10.0898440184586 3.08984350172629  10.0898440184586 3.08984350172629  C 10.0898440184586 3.08984350172629  9.59765653056947 3.08984350172629  9.59765653056947 3.08984350172629  C 9.59765653056947 3.08984350172629  9.16015667913 3.08984350172629  9.16015667913 3.08984350172629  Z M 10.9101564982737 3.08984350172629  C 10.9101564982737 3.08984350172629  10.9101564982737 2.5976560138372  10.9101564982737 2.5976560138372  C 10.9101564982737 2.5976560138372  10.9101564982737 2.16015616239773  10.9101564982737 2.16015616239773  C 10.9101564982737 2.16015616239773  11.4023439861628 2.16015616239773  11.4023439861628 2.16015616239773  C 11.4023439861628 2.16015616239773  11.8398438376023 2.16015616239773  11.8398438376023 2.16015616239773  C 11.8398438376023 2.16015616239773  11.8398438376023 2.5976560138372  11.8398438376023 2.5976560138372  C 11.8398438376023 2.5976560138372  11.8398438376023 3.08984350172629  11.8398438376023 3.08984350172629  C 11.8398438376023 3.08984350172629  11.4023439861628 3.08984350172629  11.4023439861628 3.08984350172629  C 11.4023439861628 3.08984350172629  10.9101564982737 3.08984350172629  10.9101564982737 3.08984350172629  Z M 14.8476561946935 25.8398423907519  C 14.8476561946935 25.8398423907519  14.8476561946935 25.4023417125408  14.8476561946935 25.4023417125408  C 14.8476561946935 25.4023417125408  14.8476561946935 24.9648410343297  14.8476561946935 24.9648410343297  C 14.8476561946935 24.9648410343297  14.410156343254 24.9648410343297  14.410156343254 24.9648410343297  C 14.410156343254 24.9648410343297  13.9726562851216 24.9648410343297  13.9726562851216 24.9648410343297  C 13.9726562851216 24.9648410343297  13.9726562851216 24.5273424230477  13.9726562851216 24.5273424230477  C 13.9726562851216 24.5273424230477  13.9726562851216 24.0351543150799  13.9726562851216 24.0351543150799  C 13.9726562851216 24.0351543150799  14.410156343254 24.0351543150799  14.410156343254 24.0351543150799  C 14.410156343254 24.0351543150799  14.8476561946935 24.0351543150799  14.8476561946935 24.0351543150799  C 14.8476561946935 24.0351543150799  14.8476561946935 23.5976536368688  14.8476561946935 23.5976536368688  C 14.8476561946935 23.5976536368688  14.8476561946935 23.1601550255867  14.8476561946935 23.1601550255867  C 14.8476561946935 23.1601550255867  15.3398436825826 23.1601550255867  15.3398436825826 23.1601550255867  C 15.3398436825826 23.1601550255867  15.7773435340221 23.1601550255867  15.7773435340221 23.1601550255867  C 15.7773435340221 23.1601550255867  15.7773435340221 23.5976536368688  15.7773435340221 23.5976536368688  C 15.7773435340221 23.5976536368688  15.7773435340221 24.0351543150799  15.7773435340221 24.0351543150799  C 15.7773435340221 24.0351543150799  16.2148435921544 24.0351543150799  16.2148435921544 24.0351543150799  C 16.2148435921544 24.0351543150799  16.6523434435939 24.0351543150799  16.6523434435939 24.0351543150799  C 16.6523434435939 24.0351543150799  16.6523434435939 24.5273424230477  16.6523434435939 24.5273424230477  C 16.6523434435939 24.5273424230477  16.6523434435939 24.9648410343297  16.6523434435939 24.9648410343297  C 16.6523434435939 24.9648410343297  16.2148435921544 24.9648410343297  16.2148435921544 24.9648410343297  C 16.2148435921544 24.9648410343297  15.7773435340221 24.9648410343297  15.7773435340221 24.9648410343297  C 15.7773435340221 24.9648410343297  15.7773435340221 25.4023417125408  15.7773435340221 25.4023417125408  C 15.7773435340221 25.4023417125408  15.7773435340221 25.8398423907519  15.7773435340221 25.8398423907519  C 15.7773435340221 25.8398423907519  15.3398436825826 25.8398423907519  15.3398436825826 25.8398423907519  C 15.3398436825826 25.8398423907519  14.8476561946935 25.8398423907519  14.8476561946935 25.8398423907519  Z M 15.7773435340221 24.9648410343297  C 15.7773435340221 24.9648410343297  15.7773435340221 24.5273424230477  15.7773435340221 24.5273424230477  C 15.7773435340221 24.5273424230477  15.7773435340221 24.0351543150799  15.7773435340221 24.0351543150799  C 15.7773435340221 24.0351543150799  15.3398436825826 24.0351543150799  15.3398436825826 24.0351543150799  C 15.3398436825826 24.0351543150799  14.8476561946935 24.0351543150799  14.8476561946935 24.0351543150799  C 14.8476561946935 24.0351543150799  14.8476561946935 24.5273424230477  14.8476561946935 24.5273424230477  C 14.8476561946935 24.5273424230477  14.8476561946935 24.9648410343297  14.8476561946935 24.9648410343297  C 14.8476561946935 24.9648410343297  15.3398436825826 24.9648410343297  15.3398436825826 24.9648410343297  C 15.3398436825826 24.9648410343297  15.7773435340221 24.9648410343297  15.7773435340221 24.9648410343297  Z M 24.4726560267555 15.3398426491181  C 24.4726560267555 15.3398426491181  24.4726560267555 14.9023425909857  24.4726560267555 14.9023425909857  C 24.4726560267555 14.9023425909857  24.4726560267555 14.4648427395462  24.4726560267555 14.4648427395462  C 24.4726560267555 14.4648427395462  24.0351553485444 14.4648427395462  24.0351553485444 14.4648427395462  C 24.0351553485444 14.4648427395462  23.5976546703333 14.4648427395462  23.5976546703333 14.4648427395462  C 23.5976546703333 14.4648427395462  23.5976546703333 13.9726552516571  23.5976546703333 13.9726552516571  C 23.5976546703333 13.9726552516571  23.5976546703333 13.5351551935247  23.5976546703333 13.5351551935247  C 23.5976546703333 13.5351551935247  24.0351553485444 13.5351551935247  24.0351553485444 13.5351551935247  C 24.0351553485444 13.5351551935247  24.4726560267555 13.5351551935247  24.4726560267555 13.5351551935247  C 24.4726560267555 13.5351551935247  24.4726560267555 13.0976553420853  24.4726560267555 13.0976553420853  C 24.4726560267555 13.0976553420853  24.4726560267555 12.6601552839529  24.4726560267555 12.6601552839529  C 24.4726560267555 12.6601552839529  24.9648420677942 12.6601552839529  24.9648420677942 12.6601552839529  C 24.9648420677942 12.6601552839529  25.4023427460053 12.6601552839529  25.4023427460053 12.6601552839529  C 25.4023427460053 12.6601552839529  25.4023427460053 13.0976553420853  25.4023427460053 13.0976553420853  C 25.4023427460053 13.0976553420853  25.4023427460053 13.5351551935247  25.4023427460053 13.5351551935247  C 25.4023427460053 13.5351551935247  25.8398434242165 13.5351551935247  25.8398434242165 13.5351551935247  C 25.8398434242165 13.5351551935247  26.2773420354985 13.5351551935247  26.2773420354985 13.5351551935247  C 26.2773420354985 13.5351551935247  26.2773420354985 14.0273426814138  26.2773420354985 14.0273426814138  C 26.2773420354985 14.0273426814138  26.2773420354985 14.4648427395462  26.2773420354985 14.4648427395462  C 26.2773420354985 14.4648427395462  25.8398434242165 14.4648427395462  25.8398434242165 14.4648427395462  C 25.8398434242165 14.4648427395462  25.4023427460053 14.4648427395462  25.4023427460053 14.4648427395462  C 25.4023427460053 14.4648427395462  25.4023427460053 14.9023425909857  25.4023427460053 14.9023425909857  C 25.4023427460053 14.9023425909857  25.4023427460053 15.3398426491181  25.4023427460053 15.3398426491181  C 25.4023427460053 15.3398426491181  24.9648420677942 15.3398426491181  24.9648420677942 15.3398426491181  C 24.9648420677942 15.3398426491181  24.4726560267555 15.3398426491181  24.4726560267555 15.3398426491181  Z M 25.4023427460053 14.4648427395462  C 25.4023427460053 14.4648427395462  25.4023427460053 14.0273426814138  25.4023427460053 14.0273426814138  C 25.4023427460053 14.0273426814138  25.4023427460053 13.5351551935247  25.4023427460053 13.5351551935247  C 25.4023427460053 13.5351551935247  24.9101546380375 13.5351551935247  24.9101546380375 13.5351551935247  C 24.9101546380375 13.5351551935247  24.4726560267555 13.5351551935247  24.4726560267555 13.5351551935247  C 24.4726560267555 13.5351551935247  24.4726560267555 14.0273426814138  24.4726560267555 14.0273426814138  C 24.4726560267555 14.0273426814138  24.4726560267555 14.4648427395462  24.4726560267555 14.4648427395462  C 24.4726560267555 14.4648427395462  24.9101546380375 14.4648427395462  24.9101546380375 14.4648427395462  C 24.9101546380375 14.4648427395462  25.4023427460053 14.4648427395462  25.4023427460053 14.4648427395462  Z M 21.847656091347 7.02734319814608  C 21.847656091347 7.02734319814608  21.847656091347 6.5898431400137  21.847656091347 6.5898431400137  C 21.847656091347 6.5898431400137  21.847656091347 6.15234328857423  21.847656091347 6.15234328857423  C 21.847656091347 6.15234328857423  21.4101554131359 6.15234328857423  21.4101554131359 6.15234328857423  C 21.4101554131359 6.15234328857423  20.9726547349248 6.15234328857423  20.9726547349248 6.15234328857423  C 20.9726547349248 6.15234328857423  20.9726547349248 5.66015580068514  20.9726547349248 5.66015580068514  C 20.9726547349248 5.66015580068514  20.9726547349248 5.22265594924567  20.9726547349248 5.22265594924567  C 20.9726547349248 5.22265594924567  21.4101554131359 5.22265594924567  21.4101554131359 5.22265594924567  C 21.4101554131359 5.22265594924567  21.847656091347 5.22265594924567  21.847656091347 5.22265594924567  C 21.847656091347 5.22265594924567  21.847656091347 4.78515589111329  21.847656091347 4.78515589111329  C 21.847656091347 4.78515589111329  21.847656091347 4.34765603967382  21.847656091347 4.34765603967382  C 21.847656091347 4.34765603967382  22.3398421323858 4.34765603967382  22.3398421323858 4.34765603967382  C 22.3398421323858 4.34765603967382  22.7773428105969 4.34765603967382  22.7773428105969 4.34765603967382  C 22.7773428105969 4.34765603967382  22.7773428105969 4.78515589111329  22.7773428105969 4.78515589111329  C 22.7773428105969 4.78515589111329  22.7773428105969 5.22265594924567  22.7773428105969 5.22265594924567  C 22.7773428105969 5.22265594924567  23.214843488808 5.22265594924567  23.214843488808 5.22265594924567  C 23.214843488808 5.22265594924567  23.65234210009 5.22265594924567  23.65234210009 5.22265594924567  C 23.65234210009 5.22265594924567  23.65234210009 5.66015580068514  23.65234210009 5.66015580068514  C 23.65234210009 5.66015580068514  23.65234210009 6.15234328857423  23.65234210009 6.15234328857423  C 23.65234210009 6.15234328857423  23.214843488808 6.15234328857423  23.214843488808 6.15234328857423  C 23.214843488808 6.15234328857423  22.7773428105969 6.15234328857423  22.7773428105969 6.15234328857423  C 22.7773428105969 6.15234328857423  22.7773428105969 6.5898431400137  22.7773428105969 6.5898431400137  C 22.7773428105969 6.5898431400137  22.7773428105969 7.02734319814608  22.7773428105969 7.02734319814608  C 22.7773428105969 7.02734319814608  22.3398421323858 7.02734319814608  22.3398421323858 7.02734319814608  C 22.3398421323858 7.02734319814608  21.847656091347 7.02734319814608  21.847656091347 7.02734319814608  Z M 22.7773428105969 6.15234328857423  C 22.7773428105969 6.15234328857423  22.7773428105969 5.66015580068514  22.7773428105969 5.66015580068514  C 22.7773428105969 5.66015580068514  22.7773428105969 5.22265594924567  22.7773428105969 5.22265594924567  C 22.7773428105969 5.22265594924567  22.2851547026291 5.22265594924567  22.2851547026291 5.22265594924567  C 22.2851547026291 5.22265594924567  21.847656091347 5.22265594924567  21.847656091347 5.22265594924567  C 21.847656091347 5.22265594924567  21.847656091347 5.66015580068514  21.847656091347 5.66015580068514  C 21.847656091347 5.66015580068514  21.847656091347 6.15234328857423  21.847656091347 6.15234328857423  C 21.847656091347 6.15234328857423  22.2851547026291 6.15234328857423  22.2851547026291 6.15234328857423  C 22.2851547026291 6.15234328857423  22.7773428105969 6.15234328857423  22.7773428105969 6.15234328857423  Z M 24.9101546380375 3.96484341129814  C 24.9101546380375 3.96484341129814  24.9101546380375 3.52734355985867  24.9101546380375 3.52734355985867  C 24.9101546380375 3.52734355985867  24.9101546380375 3.08984350172629  24.9101546380375 3.08984350172629  C 24.9101546380375 3.08984350172629  24.4726560267555 3.08984350172629  24.4726560267555 3.08984350172629  C 24.4726560267555 3.08984350172629  24.0351553485444 3.08984350172629  24.0351553485444 3.08984350172629  C 24.0351553485444 3.08984350172629  24.0351553485444 2.59765601383721  24.0351553485444 2.59765601383721  C 24.0351553485444 2.59765601383721  24.0351553485444 2.16015616239773  24.0351553485444 2.16015616239773  C 24.0351553485444 2.16015616239773  24.4726560267555 2.16015616239773  24.4726560267555 2.16015616239773  C 24.4726560267555 2.16015616239773  24.9101546380375 2.16015616239773  24.9101546380375 2.16015616239773  C 24.9101546380375 2.16015616239773  24.9101546380375 1.72265616627322  24.9101546380375 1.72265616627322  C 24.9101546380375 1.72265616627322  24.9101546380375 1.28515619081801  24.9101546380375 1.28515619081801  C 24.9101546380375 1.28515619081801  25.4023427460053 1.28515619081801  25.4023427460053 1.28515619081801  C 25.4023427460053 1.28515619081801  25.8398434242165 1.28515619081801  25.8398434242165 1.28515619081801  C 25.8398434242165 1.28515619081801  25.8398434242165 1.72265616627322  25.8398434242165 1.72265616627322  C 25.8398434242165 1.72265616627322  25.8398434242165 2.16015616239773  25.8398434242165 2.16015616239773  C 25.8398434242165 2.16015616239773  26.2773420354985 2.16015616239773  26.2773420354985 2.16015616239773  C 26.2773420354985 2.16015616239773  26.7148427137096 2.16015616239773  26.7148427137096 2.16015616239773  C 26.7148427137096 2.16015616239773  26.7148427137096 2.5976560138372  26.7148427137096 2.5976560138372  C 26.7148427137096 2.5976560138372  26.7148427137096 3.08984350172629  26.7148427137096 3.08984350172629  C 26.7148427137096 3.08984350172629  26.2773420354985 3.08984350172629  26.2773420354985 3.08984350172629  C 26.2773420354985 3.08984350172629  25.8398434242165 3.08984350172629  25.8398434242165 3.08984350172629  C 25.8398434242165 3.08984350172629  25.8398434242165 3.52734355985867  25.8398434242165 3.52734355985867  C 25.8398434242165 3.52734355985867  25.8398434242165 3.96484341129814  25.8398434242165 3.96484341129814  C 25.8398434242165 3.96484341129814  25.4023427460053 3.96484341129814  25.4023427460053 3.96484341129814  C 25.4023427460053 3.96484341129814  24.9101546380375 3.96484341129814  24.9101546380375 3.96484341129814  Z M 25.8398434242165 3.08984350172629  C 25.8398434242165 3.08984350172629  25.8398434242165 2.59765601383721  25.8398434242165 2.59765601383721  C 25.8398434242165 2.59765601383721  25.8398434242165 2.16015616239773  25.8398434242165 2.16015616239773  C 25.8398434242165 2.16015616239773  25.4023427460053 2.16015616239773  25.4023427460053 2.16015616239773  C 25.4023427460053 2.16015616239773  24.9101546380375 2.16015616239773  24.9101546380375 2.16015616239773  C 24.9101546380375 2.16015616239773  24.9101546380375 2.59765601383721  24.9101546380375 2.59765601383721  C 24.9101546380375 2.59765601383721  24.9101546380375 3.08984350172629  24.9101546380375 3.08984350172629  C 24.9101546380375 3.08984350172629  25.4023427460053 3.08984350172629  25.4023427460053 3.08984350172629  C 25.4023427460053 3.08984350172629  25.8398434242165 3.08984350172629  25.8398434242165 3.08984350172629  Z " fill-rule="nonzero" fill="#7e8993" stroke="none" transform="matrix(1 0 0 1 20 219 )" />
  </g>
</svg>