<?xml version="1.0" encoding="utf-8"?>
<svg version="1.1" xmlns:xlink="http://www.w3.org/1999/xlink" width="23px" height="28px" xmlns="http://www.w3.org/2000/svg">
  <g transform="matrix(1 0 0 1 -17 -74 )">
    <path d="M 11.4500400382835 27.969178089433  C 3.38920038342256 27.9661103484625  1.98888732136004 27.9541893952953  1.74865728914815 27.8865549718852  C 1.09243910741161 27.7018193166374  0.563701120635671 27.2373098026528  0.247671835648239 26.567901957364  C 0.0780530784295469 26.2086180175543  0.0539355545280315 26.1054286821847  0.0352929532124307 25.6592061986029  C 0.0203735934769301 25.3020985018843  0.0385144445643803 25.0684828208776  0.0977213058288639 24.8552748234277  C 0.143623761819836 24.6899771161681  1.79711732999798 21.1674734006441  3.77215152944901 17.0274906648043  C 3.77215152944901 17.0274906648043  7.36312217540283 9.44577433308657  7.36312217540283 9.44577433308657  C 7.36312217540283 9.44577433308657  7.36312217540283 5.55362636059603  7.36312217540283 5.55362636059603  C 7.36312217540283 5.55362636059603  7.36312217540283 1.66147863517188  7.36312217540283 1.66147863517188  C 7.36312217540283 1.66147863517188  6.83317091755545 1.66147863517188  6.83317091755545 1.66147863517188  C 6.16439816314177 1.66147863517188  5.91549331160437 1.55632730444636  5.75312798407145 1.20520757044694  C 5.69416780880225 1.07770472018807  5.64592764752089 0.904792097462816  5.64592764752089 0.820957304587109  C 5.64592764752089 0.591601789289495  5.84196109978206 0.272324197709477  6.06242753822366 0.142608590006357  C 6.06242753822366 0.142608590006357  6.25851389531839 0.0272373890705895  6.25851389531839 0.0272373890705895  C 6.25851389531839 0.0272373890705895  11.4701306979951 0.0272373890705895  11.4701306979951 0.0272373890705895  C 16.4845298848313 0.0272373890705895  16.7411051505455 0.0311474946516336  16.9272552325436 0.130564393948665  C 17.1449658995064 0.24683687041604  17.3540723524791 0.585074624769814  17.3540723524791 0.820957304587109  C 17.3540723524791 0.904792097462816  17.3058321911977 1.07770472018807  17.2468720159285 1.20520757044694  C 17.0845066883956 1.55632730444636  16.8356018368582 1.66147863517188  16.1668290824446 1.66147863517188  C 16.1668290824446 1.66147863517188  15.6368778245972 1.66147863517188  15.6368778245972 1.66147863517188  C 15.6368778245972 1.66147863517188  15.6368778245972 5.55362636059603  15.6368778245972 5.55362636059603  C 15.6368778245972 5.55362636059603  15.6368778245972 9.44577433308657  15.6368778245972 9.44577433308657  C 15.6368778245972 9.44577433308657  19.227847683862 17.0274906648043  19.227847683862 17.0274906648043  C 21.202883456691 21.1674734006441  22.8563758448357 24.6899771161681  22.9022791465173 24.8552748234277  C 22.9614853587634 25.0684828208776  22.9796264065231 25.3020985018843  22.9647068501153 25.6592061986029  C 22.9460623214117 26.1054286821847  22.9219463708882 26.2086180175543  22.752328361024 26.567901957364  C 22.5347223236949 27.0288310676252  22.1673228386675 27.4455847079112  21.7880974516259 27.6616566165625  C 21.2103806026212 27.9908231638108  21.751244416583 27.9730982094383  11.4500400382835 27.969178089433  Z M 11.4739819338714 26.3383525773082  C 20.2132517370011 26.3383525773082  20.825186212983 26.3327112281409  20.9955692778752 26.243106426277  C 21.2514595341646 26.1085170120208  21.4123393962408 25.8340694928081  21.4153681487939 25.5269639150221  C 21.4175708779235 25.3038959098489  21.2011350404444 24.7669973857274  19.4516075956968 21.095331456894  C 19.4516075956968 21.095331456894  17.4853742824795 16.9688716938517  17.4853742824795 16.9688716938517  C 17.4853742824795 16.9688716938517  15.6635015429003 16.9716058951999  15.6635015429003 16.9716058951999  C 15.6635015429003 16.9716058951999  13.8416289999933 16.9743400965481  13.8416289999933 16.9743400965481  C 13.8416289999933 16.9743400965481  13.691429620784 17.3058856872135  13.691429620784 17.3058856872135  C 13.2607431711258 18.2565736726444  12.1294018229707 18.8376155481109  11.1030726359828 18.6713102217701  C 10.3480777865659 18.5489715943076  9.62114354286476 17.9958527501097  9.30857037921602 17.3058865107681  C 9.30857037921602 17.3058865107681  9.15837100000668 16.9743415377687  9.15837100000668 16.9743415377687  C 9.15837100000668 16.9743415377687  7.33649845709973 16.9716052775339  7.33649845709973 16.9716052775339  C 7.33649845709973 16.9716052775339  5.51462571752054 16.9688710761857  5.51462571752054 16.9688710761857  C 5.51462571752054 16.9688710761857  3.54839260097548 21.095331456894  3.54839260097548 21.095331456894  C 1.7988659429168 24.7669973857274  1.5824320721602 25.3038959098489  1.58463185120608 25.5269639150221  C 1.5876606037592 25.8340694928081  1.74854066250763 26.1085170120208  2.00443091879707 26.243106426277  C 2.17481319700029 26.3327194636871  2.73471154072496 26.3383525773082  11.4739819338714 26.3383525773082  Z M 9.91813279126651 23.6623662465122  C 9.27804960040384 24.3293713711886  8.38454655330495 24.5698513799776  7.51923076884665 24.3330732492187  C 6.5972004127978 24.0807772904769  5.90183285090085 23.2730307985109  5.74020268421492 22.2665379282741  C 5.47064842712157 20.5879859845284  6.96955151490509 19.0188414194443  8.57296367625626 19.3010276755603  C 9.62186100320981 19.4856239441882  10.4228309396772 20.3241285542123  10.5991639299583 21.4221796978787  C 10.7254432441988 22.2085364174  10.4679451923171 23.0894295897562  9.91813279126651 23.6623662465122  Z M 7.7252950955537 22.6722250533141  C 8.01278369787861 22.8313769841999  8.32658271962238 22.8313769841999  8.61407132194729 22.6722250533141  C 8.87968702068813 22.5251814342723  9.08031670328478 22.1806638288521  9.08031670328478 21.871596132177  C 9.08031670328478 21.3980048695878  8.64809267002524 20.8910507915569  8.19570127487909 20.8910507915569  C 8.09022437720014 20.8910507915569  7.84992196960256 20.9474992843007  7.7252950955537 21.0164925728386  C 7.4596795934851 21.1635341329939  7.25904971421621 21.5625284355018  7.25904971421621 21.871596132177  C 7.25904971421621 22.1806638288521  7.4596795934851 22.5251814342723  7.7252950955537 22.6722250533141  Z M 12.7861386294139 24.3236003121682  C 12.6159652171335 24.2427457781732  12.5392913628902 24.162478026847  12.4620552227021 23.9843308085828  C 12.3352539403268 23.6918597964467  12.3348047409222 23.4842554705401  12.4599016616335 23.195803404964  C 12.5709339601805 22.9397808615533  12.8659588462121 22.743190137508  13.1391411161851 22.743190137508  C 13.5285566821901 22.743190137508  13.9735648046351 23.147221917756  13.9705775499254 23.5445231978478  C 13.9683551535715 23.8399034166895  13.7930017877363 24.1893753208327  13.5449030957259 24.315107405119  C 13.2621149600256 24.4584182628323  13.0733412702965 24.4600612543051  12.7861394161029 24.323610606601  Z M 16.1164554206634 22.5804090072876  C 15.946282008383 22.4995544732925  15.8696081541397 22.4192867219664  15.7923718172794 22.2411395037022  C 15.6655705349041 21.9486684915661  15.6651215321717 21.741066224546  15.7902182562108 21.4526121000834  C 15.9012503580855 21.1965895566727  16.1962754407894 21.000000891514  16.4694577107624 21.000000891514  C 16.7276675194941 21.000000891514  17.0794941029202 21.1926941433061  17.1972639991922 21.4343600707521  C 17.3277540661705 21.7021285619727  17.3280787720449 21.9424424186166  17.198581703225 22.2411395037022  C 17.1213453663647 22.4192867219664  17.0446715121214 22.4995544732925  16.874498099841 22.5804090072876  C 16.7518971465746 22.6386631435422  16.5410102197795 22.6863243084591  16.4694604641738 22.6863243084591  C 16.3979105118958 22.6863243084591  16.239059717358 22.6386631435422  16.1164587640916 22.5804090072876  Z M 13.6187179255624 20.8372197612935  C 13.448544513282 20.7563631684119  13.3718706590387 20.6760974759723  13.2946343221784 20.4979486105988  C 13.1678330398031 20.2054775984627  13.1673840370707 19.997875125554  13.2924807611098 19.709421824646  C 13.4035130596568 19.4533998989013  13.6985379456884 19.2568093807447  13.9717202156614 19.2568093807447  C 14.3611357816663 19.2568093807447  14.8061441007836 19.6608395138833  14.8031566494017 20.0581409998638  C 14.8009342530478 20.3535224540374  14.6255810838848 20.7029947699579  14.3774823918744 20.8287247953577  C 14.0946942561741 20.972035653071  13.905920566445 20.9736786445438  13.6187187122514 20.8372279968397  Z M 11.0556118868032 17.0068546507283  C 11.3431004891281 17.1660067875027  11.6568995108719 17.1660067875027  11.9443881131968 17.0068546507283  C 12.2100038119376 16.8598116493524  12.4106334945343 16.5152934262663  12.4106334945343 16.2062257295911  C 12.4106334945343 15.732634467002  11.9784092646025 15.225681006637  11.5260180661286 15.225681006637  C 11.2307854942077 15.225681006637  10.849653173091 15.4357125539062  10.7091924133734 15.7137754779137  C 10.6432879378511 15.844242383616  10.5893665054657 16.0958059964094  10.5893665054657 16.2062257295911  C 10.5893665054657 16.5152934262663  10.7899961880624 16.8598116493524  11.0556118868032 17.0068546507283  Z M 9.30857037921602 15.052089692547  C 9.62114354286476 14.3621232473167  10.3480777865659 13.8090046090074  11.1030726359828 13.6866657756563  C 12.1294018229707 13.5203604493156  13.2607431711258 14.1014025306707  13.691429620784 15.052089692547  C 13.691429620784 15.052089692547  13.8416289999933 15.3836352832124  13.8416289999933 15.3836352832124  C 13.8416289999933 15.3836352832124  15.25961542322 15.3863694845606  15.25961542322 15.3863694845606  C 16.0395077986569 15.3878724717474  16.6776018464467 15.3799498762746  16.6776018464467 15.3687618867218  C 16.6776018464467 15.357573897169  16.0924859909614 14.1135077541848  15.3773446083375 12.6041705493742  C 15.3773446083375 12.6041705493742  14.0770875669006 9.85992224654554  14.0770875669006 9.85992224654554  C 14.0770875669006 9.85992224654554  14.0764397285298 5.73346310116923  14.0764397285298 5.73346310116923  C 14.0764397285298 5.73346310116923  14.075791890159 1.66147863517188  14.075791890159 1.66147863517188  C 14.075791890159 1.66147863517188  11.4739819338714 1.66147863517188  11.4739819338714 1.66147863517188  C 11.4739819338714 1.66147863517188  8.92420810984096 1.66147863517188  8.92420810984096 1.66147863517188  C 8.92420810984096 1.66147863517188  8.92355909143672 5.73346310116923  8.92355909143672 5.73346310116923  C 8.92355909143672 5.73346310116923  8.92291007303248 9.85992224654554  8.92291007303248 9.85992224654554  C 8.92291007303248 9.85992224654554  7.62265283492332 12.6041711670402  7.62265283492332 12.6041711670402  C 6.90751676244998 14.1135083718508  6.32240090696474 15.357574514835  6.32240090696474 15.3687625043878  C 6.32240090696474 15.3799504939406  6.96049495475454 15.3878751483  7.74038733019141 15.3863701022265  C 7.74038733019141 15.3863701022265  9.15837375341809 15.3836359008783  9.15837375341809 15.3836359008783  C 9.15837375341809 15.3836359008783  9.30857313262743 15.0520903102129  9.30857313262743 15.0520903102129  Z " fill-rule="nonzero" fill="#7e8993" stroke="none" transform="matrix(1 0 0 1 17 74 )" />
  </g>
</svg>