<?xml version="1.0" encoding="utf-8"?>
<svg version="1.1" xmlns:xlink="http://www.w3.org/1999/xlink" width="48px" height="48px" xmlns="http://www.w3.org/2000/svg">
  <g transform="matrix(1 0 0 1 -428 -4396 )">
    <path d="M 429 4398  A 1 1 0 0 1 430 4397 L 474 4397  A 1 1 0 0 1 475 4398 L 475 4442  A 1 1 0 0 1 474 4443 L 430 4443  A 1 1 0 0 1 429 4442 L 429 4398  Z " fill-rule="nonzero" fill="#d7d7d7" stroke="none" />
    <path d="M 428.5 4398  A 1.5 1.5 0 0 1 430 4396.5 L 474 4396.5  A 1.5 1.5 0 0 1 475.5 4398 L 475.5 4442  A 1.5 1.5 0 0 1 474 4443.5 L 430 4443.5  A 1.5 1.5 0 0 1 428.5 4442 L 428.5 4398  Z " stroke-width="1" stroke="#000000" fill="none" stroke-opacity="0.0470588235294118" />
  </g>
</svg>