<?xml version="1.0" encoding="utf-8"?>
<svg version="1.1" xmlns:xlink="http://www.w3.org/1999/xlink" width="1072px" height="32px" xmlns="http://www.w3.org/2000/svg">
  <g transform="matrix(1 0 0 1 -125 -9309 )">
    <path d="M 126 9313  A 3 3 0 0 1 129 9310 L 1193 9310  A 3 3 0 0 1 1196 9313 L 1196 9337  A 3 3 0 0 1 1193 9340 L 129 9340  A 3 3 0 0 1 126 9337 L 126 9313  Z " fill-rule="nonzero" fill="#ffffff" stroke="none" />
    <path d="M 125.5 9313  A 3.5 3.5 0 0 1 129 9309.5 L 1193 9309.5  A 3.5 3.5 0 0 1 1196.5 9313 L 1196.5 9337  A 3.5 3.5 0 0 1 1193 9340.5 L 129 9340.5  A 3.5 3.5 0 0 1 125.5 9337 L 125.5 9313  Z " stroke-width="1" stroke-dasharray="9,4" stroke="#d9d9d9" fill="none" stroke-dashoffset="0.5" />
  </g>
</svg>