<?xml version="1.0" encoding="utf-8"?>
<svg version="1.1" xmlns:xlink="http://www.w3.org/1999/xlink" width="19px" height="18px" xmlns="http://www.w3.org/2000/svg">
  <g transform="matrix(1 0 0 1 -30 -7 )">
    <path d="M 14.3984375 16.34625  C 14.5430689102564 16.20375  14.6153846153846 16.035  14.6153846153846 15.84  C 14.6153846153846 15.645  14.5430689102564 15.47625  14.3984375 15.33375  C 14.2538060897436 15.19125  14.0825320512821 15.12  13.8846153846154 15.12  C 13.6866987179487 15.12  13.5154246794872 15.19125  13.3707932692308 15.33375  C 13.2261618589744 15.47625  13.1538461538462 15.645  13.1538461538462 15.84  C 13.1538461538462 16.035  13.2261618589744 16.20375  13.3707932692308 16.34625  C 13.5154246794872 16.48875  13.6866987179487 16.56  13.8846153846154 16.56  C 14.0825320512821 16.56  14.2538060897436 16.48875  14.3984375 16.34625  Z M 17.3215144230769 16.34625  C 17.4661458333333 16.20375  17.5384615384615 16.035  17.5384615384615 15.84  C 17.5384615384615 15.645  17.4661458333333 15.47625  17.3215144230769 15.33375  C 17.1768830128205 15.19125  17.005608974359 15.12  16.8076923076923 15.12  C 16.6097756410256 15.12  16.4385016025641 15.19125  16.2938701923077 15.33375  C 16.1492387820513 15.47625  16.0769230769231 15.645  16.0769230769231 15.84  C 16.0769230769231 16.035  16.1492387820513 16.20375  16.2938701923077 16.34625  C 16.4385016025641 16.48875  16.6097756410256 16.56  16.8076923076923 16.56  C 17.005608974359 16.56  17.1768830128205 16.48875  17.3215144230769 16.34625  Z M 18.6802884615385 12.555  C 18.8934294871795 12.765  19 13.02  19 13.32  L 19 16.92  C 19 17.22  18.8934294871795 17.475  18.6802884615385 17.685  C 18.4671474358974 17.895  18.2083333333333 18  17.9038461538462 18  L 1.09615384615385 18  C 0.791666666666667 18  0.532852564102564 17.895  0.319711538461538 17.685  C 0.106570512820513 17.475  0 17.22  0 16.92  L 0 13.32  C 0 13.02  0.106570512820513 12.765  0.319711538461538 12.555  C 0.532852564102564 12.345  0.791666666666667 12.24  1.09615384615385 12.24  L 5.97175480769231 12.24  C 6.13161057692308 12.66  6.39993990384615 13.005  6.77674278846154 13.275  C 7.15354567307692 13.545  7.57411858974359 13.68  8.03846153846154 13.68  L 10.9615384615385 13.68  C 11.4258814102564 13.68  11.8464543269231 13.545  12.2232572115385 13.275  C 12.6000600961538 13.005  12.8683894230769 12.66  13.0282451923077 12.24  L 17.9038461538462 12.24  C 18.2083333333333 12.24  18.4671474358974 12.345  18.6802884615385 12.555  Z M 15.1292067307692 5.25375  C 15.3651842948718 5.47875  15.4184695512821 5.7375  15.2890625 6.03  C 15.159655448718 6.33  14.9350961538462 6.48  14.6153846153846 6.48  L 11.6923076923077 6.48  L 11.6923076923077 11.52  C 11.6923076923077 11.715  11.6199919871795 11.88375  11.4753605769231 12.02625  C 11.3307291666667 12.16875  11.1594551282051 12.24  10.9615384615385 12.24  L 8.03846153846154 12.24  C 7.84054487179487 12.24  7.66927083333333 12.16875  7.52463942307692 12.02625  C 7.38000801282051 11.88375  7.30769230769231 11.715  7.30769230769231 11.52  L 7.30769230769231 6.48  L 4.38461538461539 6.48  C 4.06490384615385 6.48  3.84034455128205 6.33  3.7109375 6.03  C 3.58153044871795 5.7375  3.63481570512821 5.47875  3.87079326923077 5.25375  L 8.98617788461539 0.213749999999999  C 9.12319711538462 0.0712499999999991  9.29447115384615 0  9.5 0  C 9.70552884615385 0  9.87680288461538 0.0712499999999991  10.0138221153846 0.213749999999999  L 15.1292067307692 5.25375  Z " fill-rule="nonzero" fill="#7f7f7f" stroke="none" transform="matrix(1 0 0 1 30 7 )" />
  </g>
</svg>