<?xml version="1.0" encoding="utf-8"?>
<svg version="1.1" xmlns:xlink="http://www.w3.org/1999/xlink" width="165px" height="125px" xmlns="http://www.w3.org/2000/svg">
  <g transform="matrix(1 0 0 1 -16 -72 )">
    <path d="M 16 72  L 181 72  L 181 197  L 16 197  L 16 72  " fill-rule="nonzero" fill="#cccccc" stroke="none" />
    <path d="M 25 81  L 172 81  L 172 188  L 25 188  L 25 81  " fill-rule="nonzero" fill="#ffffff" stroke="none" />
    <path d="M 111.175 109.5  C 105.925 109.5  101.8 105.375  101.8 100.125  C 101.8 94.875  105.925 90.75  111.175 90.75  C 116.425 90.75  120.55 94.875  120.55 100.125  C 120.55 105.375  116.425 109.5  111.175 109.5  " fill-rule="nonzero" fill="#cccccc" stroke="none" />
    <path d="M 28 185  L 28 129.45  L 63.25 104.2  L 112.6 139.090909090909  L 140.8 119.35  L 169 139.090909090909  L 169 185  L 28 185  " fill-rule="nonzero" fill="#169bd5" stroke="none" />
  </g>
</svg>