<?xml version="1.0" encoding="utf-8"?>
<svg version="1.1" xmlns:xlink="http://www.w3.org/1999/xlink" width="9px" height="15px" xmlns="http://www.w3.org/2000/svg">
  <g transform="matrix(1 0 0 1 -11 -2 )">
    <path d="M 8.53897550111359 3.81310096153846  C 8.66592427616927 3.81310096153846  8.77951002227172 3.85817307692308  8.87973273942094 3.94831730769231  C 9 4.06850961538462  9.02338530066815 4.20072115384615  8.94988864142539 4.34495192307692  L 3.53786191536748 14.7746394230769  C 3.45100222717149 14.9248798076923  3.31069042316258 15  3.11692650334076 15  C 3.0902004454343 15  3.043429844098 14.9939903846154  2.97661469933185 14.9819711538462  C 2.8630289532294 14.9519230769231  2.77783964365256 14.8948317307692  2.72104677060134 14.8106971153846  C 2.66425389755011 14.7265625  2.64922048997773 14.6364182692308  2.67594654788419 14.5402644230769  L 4.65033407572383 7.25661057692308  L 0.581291759465479 8.16706730769231  C 0.55456570155902 8.17307692307692  0.514476614699332 8.17608173076923  0.461024498886414 8.17608173076923  C 0.34075723830735 8.17608173076923  0.237193763919822 8.14302884615384  0.150334075723831 8.07692307692308  C 0.0300668151447661 7.98677884615385  -0.0133630289532294 7.86959134615385  0.0200445434298441 7.72536057692308  L 2.03452115812918 0.288461538461539  C 2.06124721603564 0.204326923076922  2.11469933184855 0.135216346153847  2.19487750556793 0.0811298076923078  C 2.27505567928731 0.0270432692307687  2.36859688195991 0  2.47550111358575 0  L 5.76280623608018 0  C 5.88975501113586 0  5.99665924276169 0.0375600961538441  6.08351893095768 0.112680288461539  C 6.17037861915368 0.187800480769231  6.21380846325167 0.276442307692307  6.21380846325167 0.378605769230769  C 6.21380846325167 0.426682692307692  6.19710467706013 0.480769230769231  6.16369710467706 0.540865384615384  L 4.44988864142539 4.71454326923077  L 8.41870824053452 3.83112980769231  C 8.47216035634744 3.81911057692308  8.51224944320713 3.81310096153846  8.53897550111359 3.81310096153846  Z " fill-rule="nonzero" fill="#ffffff" stroke="none" transform="matrix(1 0 0 1 11 2 )" />
  </g>
</svg>