<?xml version="1.0" encoding="utf-8"?>
<svg version="1.1" xmlns:xlink="http://www.w3.org/1999/xlink" width="33px" height="18px" xmlns="http://www.w3.org/2000/svg">
  <g>
    <path d="M 22 14.4  L 4 14.4  L 4 3.6  L 22 3.6  L 22 14.4  Z M 31.1666666666667 2.25  L 31.1666666666667 4.5  C 31.6727430555556 4.5  32.1048177083333 4.67578125  32.462890625 5.02734375  C 32.8209635416667 5.37890625  33 5.803125  33 6.3  L 33 11.7  C 33 12.196875  32.8209635416667 12.62109375  32.462890625 12.97265625  C 32.1048177083333 13.32421875  31.6727430555556 13.5  31.1666666666667 13.5  L 31.1666666666667 15.75  C 31.1666666666667 16.36875  30.9422743055556 16.8984375  30.4934895833333 17.3390625  C 30.0447048611111 17.7796875  29.5052083333333 18  28.875 18  L 2.29166666666667 18  C 1.66145833333333 18  1.12196180555556 17.7796875  0.673177083333333 17.3390625  C 0.224392361111111 16.8984375  0 16.36875  0 15.75  L 0 2.25  C 0 1.63125  0.224392361111111 1.1015625  0.673177083333333 0.6609375  C 1.12196180555556 0.220312499999997  1.66145833333333 0  2.29166666666667 0  L 28.875 0  C 29.5052083333333 0  30.0447048611111 0.220312499999997  30.4934895833333 0.6609375  C 30.9422743055556 1.1015625  31.1666666666667 1.63125  31.1666666666667 2.25  Z M 29.3333333333333 11.7  L 31.1666666666667 11.7  L 31.1666666666667 6.3  L 29.3333333333333 6.3  L 29.3333333333333 2.25  C 29.3333333333333 2.11875  29.2903645833333 2.0109375  29.2044270833333 1.9265625  C 29.1184895833333 1.8421875  29.0086805555556 1.8  28.875 2  L 2.29166666666667 2  C 2.15798611111111 1.8  2.04817708333333 1.8421875  1.96223958333333 1.9265625  C 1.87630208333333 2.0109375  1.83333333333333 2.11875  2 2.25  L 2 15.75  C 1.83333333333333 15.88125  1.87630208333333 15.9890625  1.96223958333333 16.0734375  C 2.04817708333333 16.1578125  2.15798611111111 16.2  2.29166666666667 16  L 28.875 16  C 29.0086805555556 16.2  29.1184895833333 16.1578125  29.2044270833333 16.0734375  C 29.2903645833333 15.9890625  29.3333333333333 15.88125  29.3333333333333 15.75  L 29.3333333333333 11.7  Z " fill-rule="nonzero" fill="#ffffff" stroke="none" />
  </g>
</svg>